# Wavefront OBJ exported by MilkShape 3D

v 1.104800 5.596601 3.563616
v 1.069400 5.646201 3.438416
v 1.310300 5.402302 3.309816
v 1.345600 5.353002 3.434616
v 0.864100 5.255901 3.530816
v 0.828500 5.305701 3.405016
v -0.258800 3.062001 2.650916
v -0.258800 0.369701 3.346416
v -0.258800 0.369701 2.967516
v -0.258800 2.860101 2.272016
v 0.122200 3.062001 2.650916
v 0.122200 2.860101 2.272016
v 0.122200 0.369701 2.967516
v 0.122200 0.369701 3.346416
v -0.816000 -0.001899 3.896816
v -0.816000 -0.001999 2.417116
v -0.816000 0.217601 2.417116
v -0.816000 0.217601 3.896816
v 0.671400 -0.001899 3.896816
v 0.671400 -0.001999 2.417116
v 0.671400 0.217601 3.896816
v 0.671400 0.217601 2.417116
v 0.201100 3.571701 2.656516
v 0.201100 2.923401 2.139216
v 0.201100 2.537201 2.266416
v 0.201100 3.185501 2.783716
v -0.345600 3.571701 2.656516
v -0.345600 3.185501 2.783716
v -0.345600 2.923401 2.139216
v -0.345600 2.537201 2.266416
v -0.286000 0.217601 2.940816
v 0.148500 0.217601 2.940816
v 0.148500 0.369701 2.940816
v -0.286000 0.369701 2.940816
v 0.148500 0.217601 3.373116
v 0.148500 0.369701 3.373116
v -0.286000 0.217601 3.373116
v -0.286000 0.369701 3.373116
v 0.927700 -0.001899 0.996016
v 0.927700 -0.001999 -1.003984
v 0.927700 0.569101 -1.003984
v 0.927700 0.569101 0.996016
v -1.072300 -0.001899 0.996016
v -1.072300 0.569101 0.996016
v -1.072300 -0.001999 -1.003984
v -1.072300 0.569101 -1.003984
v 0.377900 0.699601 -0.433984
v 0.486700 0.461701 -0.304084
v 0.931200 0.774001 -0.620284
v 0.628200 0.848701 -0.661084
v -0.109100 1.725201 -1.033484
v 0.233900 1.639701 -0.938284
v 0.405900 1.834801 -1.044884
v -0.109100 1.982101 -1.173884
v 0.753100 1.403201 -0.869384
v 0.504600 1.297501 -0.811684
v -0.109100 0.461701 -0.304084
v -0.109100 0.699601 -0.433984
v -0.109100 4.845901 4.080216
v 0.486700 4.845901 4.080216
v 0.153800 1.930701 -0.543684
v 0.384700 1.709101 -0.426784
v 0.482800 1.464301 -0.297684
v 0.327400 1.188401 -0.152184
v -0.109100 2.006901 -0.583884
v -0.109100 1.188401 -0.152184
v 0.931200 5.162102 3.767816
v 0.377900 4.975801 3.842316
v 0.628200 5.202902 3.693116
v -0.109100 5.575401 2.816716
v -0.109100 5.715702 2.559816
v 0.405900 5.586701 2.707016
v 0.233900 5.480202 2.902216
v 0.504600 5.353501 3.244316
v 0.753100 5.411201 3.138716
v -0.109100 4.975801 3.842316
v 0.384700 4.970402 2.834516
v 0.153800 5.087301 2.612916
v 0.482800 4.841302 3.079316
v 0.327400 4.695702 3.355216
v -0.109100 5.127501 2.536816
v -0.109100 4.695702 3.355216
v -0.596000 0.699601 -0.433984
v -0.846400 0.848701 -0.661084
v -1.149300 0.774001 -0.620284
v -0.704900 0.461701 -0.304084
v -0.624100 1.834801 -1.044884
v -0.452100 1.639701 -0.938284
v -0.722800 1.297501 -0.811684
v -0.971200 1.403201 -0.869384
v -0.971200 5.411201 3.138716
v -1.149300 5.162102 3.767816
v -0.704900 4.845901 4.080216
v -0.602800 1.709101 -0.426784
v -0.371900 1.930701 -0.543684
v -0.700900 1.464301 -0.297684
v -0.545600 1.188401 -0.152184
v -0.596000 4.975801 3.842316
v -0.846400 5.202902 3.693116
v -0.452100 5.480202 2.902216
v -0.624100 5.586701 2.707016
v -0.722800 5.353501 3.244316
v -0.371900 5.087301 2.612916
v -0.602800 4.970402 2.834516
v -0.700900 4.841302 3.079316
v -0.545600 4.695802 3.355216
v 1.234200 1.500801 -0.966884
v 1.412300 0.871601 -0.717884
v 1.412300 5.259702 3.670216
v 1.234200 5.508701 3.041116
v 0.486700 0.673201 -0.092584
v 0.931200 0.985601 -0.408784
v 0.753100 1.614701 -0.657784
v 0.405900 2.046401 -0.833384
v -0.971200 1.614701 -0.657784
v -1.149300 0.985601 -0.408784
v -0.704900 0.673201 -0.092584
v -0.624100 2.046401 -0.833384
v -0.109100 0.673201 -0.092584
v -0.109100 2.193601 -0.962284
v 0.486700 4.596102 3.830416
v 0.931200 4.912302 3.518116
v 0.753100 5.161402 2.888916
v -0.109100 4.596102 3.830416
v -0.971200 5.161402 2.888916
v -1.149300 4.912302 3.518116
v -0.704900 4.596102 3.830416
v -0.624100 5.337002 2.457316
v -0.109100 5.465901 2.310016
v 0.405900 5.337002 2.457316
v 0.405900 1.834901 -1.044884
v -0.624100 1.834901 -1.044884
# 132 vertices

vt 0.247200 0.215400
vt 0.247000 0.191600
vt 0.319400 0.191800
vt 0.319600 0.215500
vt 0.693200 0.874300
vt 0.329800 0.874200
vt 0.329800 0.925300
vt 0.665900 0.925400
vt 0.332100 0.934500
vt 0.694900 0.934500
vt 0.694900 0.985900
vt 0.332100 0.985900
vt 0.669000 0.985900
vt 0.669000 0.934500
vt 0.266100 0.784500
vt 0.266000 0.984700
vt 0.295700 0.984700
vt 0.295700 0.784500
vt 0.034200 0.552600
vt 0.034200 0.380800
vt 0.206900 0.380800
vt 0.206900 0.552600
vt 0.251200 0.513900
vt 0.252100 0.401900
vt 0.298300 0.372300
vt 0.297400 0.484200
vt 0.111100 0.289200
vt 0.111100 0.363000
vt 0.058900 0.363000
vt 0.058900 0.289200
vt 0.109000 0.289200
vt 0.109000 0.363000
vt 0.056800 0.363000
vt 0.056800 0.289200
vt 0.196500 0.363000
vt 0.196500 0.289200
vt 0.271000 0.649500
vt 0.321500 0.649500
vt 0.321500 0.667200
vt 0.271000 0.667200
vt 0.304200 0.927500
vt 0.304200 0.869200
vt 0.324700 0.869200
vt 0.324700 0.927500
vt 0.271000 0.717400
vt 0.321500 0.717400
vt 0.715700 0.875300
vt 0.985700 0.875300
vt 0.985700 0.952400
vt 0.715700 0.952400
vt 0.257000 0.804400
vt 0.024700 0.804400
vt 0.024700 0.572200
vt 0.257000 0.572200
vt 0.093800 0.053200
vt 0.111800 0.012800
vt 0.185300 0.081200
vt 0.135000 0.093900
vt 0.012400 0.230400
vt 0.069400 0.210500
vt 0.097700 0.243600
vt 0.012400 0.274000
vt 0.155400 0.177000
vt 0.114200 0.159100
vt 0.012400 0.013200
vt 0.012400 0.053500
vt 0.659300 0.008400
vt 0.579300 0.008400
vt 0.579300 0.861800
vt 0.659300 0.861800
vt 0.197800 0.234900
vt 0.154300 0.216500
vt 0.180800 0.179200
vt 0.238100 0.190600
vt 0.197800 0.140700
vt 0.213700 0.093000
vt 0.263200 0.083100
vt 0.271600 0.133400
vt 0.139900 0.272800
vt 0.192800 0.276800
vt 0.263200 0.026500
vt 0.213700 0.026500
vt 0.012400 0.208400
vt 0.012400 0.071200
vt 0.084500 0.071200
vt 0.094000 0.158500
vt 0.110300 0.117500
vt 0.055700 0.195600
vt 0.748700 0.008400
vt 0.748700 0.861800
vt 0.841700 0.044700
vt 0.841700 0.824300
vt 0.416100 0.045900
vt 0.509100 0.008400
vt 0.509100 0.861800
vt 0.416100 0.825400
vt 0.339000 0.825400
vt 0.339000 0.045800
vt 0.316800 0.333600
vt 0.315000 0.223900
vt 0.236000 0.223900
vt 0.237800 0.333600
vt 0.185500 0.592500
vt 0.220100 0.634100
vt 0.206200 0.687200
vt 0.179200 0.723900
vt 0.071900 0.687200
vt 0.058000 0.634100
vt 0.092600 0.592500
vt 0.098900 0.723900
vt 0.139100 0.592500
vt 0.139100 0.742000
vt 0.743300 0.584900
vt 0.710600 0.584900
vt 0.710600 0.857700
vt 0.743300 0.857700
vt 0.913600 0.072400
vt 0.913600 0.800300
vt 0.987700 0.072400
vt 0.987700 0.800300
# 120 texture coordinates

vn 0.027668 -0.926753 -0.374650
vn -0.726775 -0.683796 -0.064976
vn 0.762075 -0.498630 -0.413050
vn 0.894427 -0.111856 -0.432999
vn 0.447214 -0.223713 -0.865998
vn 0.894427 0.120291 0.430732
vn 0.447214 0.240583 0.861464
vn -0.707107 -0.176860 -0.684632
vn -0.707107 0.190198 0.681047
vn 0.816487 0.408244 -0.408271
vn 0.333343 0.666687 0.666642
vn 0.666667 -0.666667 0.333333
vn 0.408248 -0.408248 -0.816497
vn -0.333323 0.666647 -0.666692
vn -0.816506 0.408253 0.408225
vn -0.666667 -0.666667 -0.333333
vn -0.408248 -0.408248 0.816497
vn -0.894427 -0.139903 -0.424767
vn -0.447214 0.279805 0.849535
vn -0.903012 0.422854 0.075922
vn -0.273399 0.169987 -0.946761
vn 0.447214 -0.279805 -0.849535
vn 0.750871 0.116715 -0.650054
vn 0.894427 0.139903 0.424767
vn 0.465165 0.871292 0.156437
vn 0.447214 0.000000 0.894427
vn -0.894427 0.000000 0.447214
vn -0.333333 -0.666667 0.666667
vn 0.816497 -0.408248 0.408248
vn -0.447214 0.000000 -0.894427
vn -0.816497 -0.408248 -0.408248
vn 0.894427 0.000000 -0.447214
vn 0.333333 -0.666667 -0.666667
vn 0.408255 -0.816510 -0.408214
vn 0.666667 0.333333 -0.666667
vn -0.666674 -0.333337 -0.666657
vn -0.408248 0.816497 -0.408248
vn 0.327472 0.236366 0.914819
vn -0.169011 0.982875 -0.073425
vn -0.331469 0.923283 0.194105
vn 0.468930 0.384439 0.795180
vn -0.000019 0.966685 0.255967
vn 0.466058 0.800139 0.377581
vn -0.034962 0.484225 0.874245
vn -0.000000 -0.358781 0.933422
vn -0.018640 0.172216 0.984883
vn 0.772050 0.498638 0.394078
vn 0.000000 0.846333 0.532653
vn 0.000000 -0.195249 0.980754
vn 0.000000 -0.142315 -0.989821
vn -0.406176 0.004017 -0.913786
vn 0.455857 0.878601 -0.142317
vn 0.578877 0.671009 0.463302
vn 0.862156 0.158365 0.481257
vn 0.168656 0.039348 0.984889
vn -0.000017 0.716173 0.697923
vn 0.000000 -0.018810 0.999823
vn -0.154516 -0.538797 -0.828144
vn 0.327266 -0.914804 -0.236707
vn 0.468745 -0.795214 -0.384595
vn -0.000019 -0.256633 -0.966509
vn -0.000000 -0.992939 0.118623
vn -0.340876 -0.937580 0.068902
vn 0.465742 -0.378098 -0.800079
vn 0.771753 -0.394465 -0.498794
vn -0.080535 -0.996740 -0.004919
vn -0.000037 -0.980913 0.194448
vn 0.578615 -0.463655 -0.670991
vn 0.455562 0.141376 -0.878906
vn 0.861808 -0.481705 -0.158896
vn 0.168622 -0.984872 -0.039928
vn -0.000035 -0.697969 -0.716128
vn -0.000115 -0.999835 0.018182
vn -0.327488 0.236377 0.914810
vn -0.468871 0.384418 0.795225
vn 0.582916 0.686195 0.435139
vn 0.169043 0.982870 -0.073417
vn 0.034958 0.484223 0.874246
vn -0.466034 0.800127 0.377636
vn -0.771994 0.498654 0.394171
vn 0.484439 0.127795 0.865441
vn 0.440212 -0.894457 -0.078491
vn 0.633234 -0.608422 -0.478370
vn 0.406233 0.003990 -0.913761
vn -0.578830 0.671005 0.463367
vn -0.455877 0.878603 -0.142244
vn -0.862135 0.158398 0.481283
vn -0.168704 0.039356 0.984881
vn -0.327248 -0.914805 -0.236730
vn -0.468686 -0.795259 -0.384574
vn -0.465717 -0.378154 -0.800067
vn 0.340896 -0.937574 0.068888
vn -0.771696 -0.394557 -0.498809
vn -0.455581 0.141303 -0.878908
vn -0.578514 -0.463786 -0.670988
vn -0.861737 -0.481827 -0.158910
vn -0.168629 -0.984871 -0.039910
vn -0.389813 -0.418240 0.820440
vn -0.485296 0.600257 0.635751
vn -0.757142 -0.287292 -0.586685
vn -0.298673 -0.921360 0.248777
vn 0.155233 0.462203 0.873081
vn 0.158039 0.944226 -0.288897
vn 0.231689 0.451665 0.861579
vn 0.026458 0.484254 0.874527
vn -0.231738 0.451668 0.861565
vn -0.260520 0.957681 0.122378
vn -0.155266 0.462206 0.873074
vn -0.026473 0.484254 0.874527
vn -0.000000 0.485679 0.874137
vn -0.000000 0.496526 0.868022
vn -0.155887 0.865697 0.475677
vn -0.190688 0.965881 -0.175247
vn -0.137251 0.874623 0.464969
vn 0.000003 0.874023 0.485884
vn 0.137275 0.874619 0.464970
vn 0.123523 0.909350 -0.397272
vn 0.155913 0.865689 0.475682
vn 0.012680 0.881968 0.471138
vn 0.000000 0.867997 0.496569
vn -0.012670 0.881967 0.471141
vn -0.656791 -0.533217 0.533203
vn 0.656863 -0.533172 0.533159
# 123 normals

g develop
s 1
f 1/1/1 2/2/1 3/3/2
f 1/1/1 3/3/2 4/4/2
f 1/3/1 5/2/3 6/1/3
f 1/3/1 6/1/3 2/4/1
f 7/5/4 8/6/5 9/7/6
f 7/5/4 9/7/6 10/8/7
f 11/5/8 12/8/9 13/7/9
f 11/5/8 13/7/9 14/6/8
f 8/9/5 7/10/4 11/11/8
f 8/9/5 11/11/8 14/12/8
f 10/13/7 9/12/6 13/9/9
f 10/13/7 13/9/9 12/14/9
f 15/15/10 16/16/11 17/17/12
f 15/15/10 17/17/12 18/18/13
f 16/19/11 15/20/10 19/21/14
f 16/19/11 19/21/14 20/22/15
f 19/16/14 15/15/10 18/18/13
f 19/16/14 18/18/13 21/17/16
f 20/16/15 19/15/14 21/18/16
f 20/16/15 21/18/16 22/17/17
f 16/16/11 20/15/15 22/18/17
f 16/16/11 22/18/17 17/17/12
f 21/20/16 18/21/13 17/22/12
f 21/20/16 17/22/12 22/19/17
f 23/23/18 24/24/19 25/25/20
f 23/23/18 25/25/20 26/26/21
f 27/27/22 23/28/18 26/29/21
f 27/27/22 26/29/21 28/30/23
f 29/24/24 27/23/22 28/26/23
f 29/24/24 28/26/23 30/25/25
f 24/31/19 29/32/24 30/33/25
f 24/31/19 30/33/25 25/34/20
f 26/35/21 25/32/20 30/31/25
f 26/35/21 30/31/25 28/36/23
f 31/37/26 32/38/27 33/39/28
f 31/37/26 33/39/28 34/40/29
f 32/41/27 35/42/30 36/43/31
f 32/41/27 36/43/31 33/44/28
f 35/37/30 37/38/32 38/39/33
f 35/37/30 38/39/33 36/40/31
f 37/42/32 31/41/26 34/44/29
f 37/42/32 34/44/29 38/43/33
f 33/45/28 36/40/31 38/39/33
f 33/45/28 38/39/33 34/46/29
f 39/47/29 40/48/34 41/49/35
f 39/47/29 41/49/35 42/50/11
f 43/47/28 39/48/29 42/49/11
f 43/47/28 42/49/11 44/50/15
f 40/51/34 39/52/29 43/53/28
f 40/51/34 43/53/28 45/54/36
f 42/53/11 41/54/35 46/51/37
f 42/53/11 46/51/37 44/52/15
f 45/47/36 43/48/28 44/49/15
f 45/47/36 44/49/15 46/50/37
f 41/50/35 40/47/34 45/48/36
f 41/50/35 45/48/36 46/49/37
# 56 triangles in group

g 001
f 47/55/38 48/56/39 49/57/40
f 47/55/38 49/57/40 50/58/41
f 51/59/42 52/60/43 53/61/44
f 51/59/42 53/61/44 54/62/45
f 50/58/41 49/57/40 55/63/46
f 50/58/41 55/63/46 56/64/47
f 57/65/48 48/56/39 47/55/38
f 57/65/48 47/55/38 58/66/49
f 55/63/46 53/61/44 52/60/43
f 55/63/46 52/60/43 56/64/47
f 48/67/39 57/68/48 59/69/50
f 48/67/39 59/69/50 60/70/51
f 52/71/43 61/72/52 62/73/53
f 52/71/43 62/73/53 56/74/47
f 63/75/54 64/76/55 47/77/38
f 63/75/54 47/77/38 50/78/41
f 51/79/42 65/80/56 61/71/52
f 51/79/42 61/71/52 52/72/43
f 56/74/47 62/73/53 63/75/54
f 56/74/47 63/75/54 50/78/41
f 64/77/55 66/81/57 58/82/49
f 64/77/55 58/82/49 47/76/38
f 65/83/56 66/84/57 64/85/55
f 65/83/56 64/85/55 62/86/53
f 64/85/55 63/87/54 62/86/53
f 65/83/56 62/86/53 61/88/52
f 49/89/40 48/67/39 60/70/51
f 49/89/40 60/70/51 67/90/58
f 68/55/59 69/58/60 67/57/58
f 68/55/59 67/57/58 60/56/51
f 70/59/61 71/62/62 72/61/63
f 70/59/61 72/61/63 73/60/64
f 69/58/60 74/64/65 75/63/66
f 69/58/60 75/63/66 67/57/58
f 59/65/50 76/66/67 68/55/59
f 59/65/50 68/55/59 60/56/51
f 75/63/66 74/64/65 73/60/64
f 75/63/66 73/60/64 72/61/63
f 73/71/64 74/74/65 77/73/68
f 73/71/64 77/73/68 78/72/69
f 79/75/70 69/78/60 68/77/59
f 79/75/70 68/77/59 80/76/71
f 70/79/61 73/72/64 78/71/69
f 70/79/61 78/71/69 81/80/72
f 74/74/65 69/78/60 79/75/70
f 74/74/65 79/75/70 77/73/68
f 80/77/71 68/76/59 76/82/67
f 80/77/71 76/82/67 82/81/73
f 81/83/72 78/88/69 77/86/68
f 81/83/72 77/86/68 80/85/71
f 77/86/68 79/87/70 80/85/71
f 81/83/72 80/85/71 82/84/73
f 83/55/74 84/58/75 85/57/76
f 83/55/74 85/57/76 86/56/77
f 51/59/42 54/62/45 87/61/78
f 51/59/42 87/61/78 88/60/79
f 84/58/75 89/64/80 90/63/81
f 84/58/75 90/63/81 85/57/76
f 57/65/48 58/66/49 83/55/74
f 57/65/48 83/55/74 86/56/77
f 90/63/81 89/64/80 88/60/79
f 90/63/81 88/60/79 87/61/78
f 90/91/81 91/92/82 92/90/83
f 90/91/81 92/90/83 85/89/76
f 86/67/77 93/70/84 59/69/50
f 86/67/77 59/69/50 57/68/48
f 88/71/79 89/74/80 94/73/85
f 88/71/79 94/73/85 95/72/86
f 96/75/87 84/78/75 83/77/74
f 96/75/87 83/77/74 97/76/88
f 51/79/42 88/72/79 95/71/86
f 51/79/42 95/71/86 65/80/56
f 89/74/80 84/78/75 96/75/87
f 89/74/80 96/75/87 94/73/85
f 97/77/88 83/76/74 58/82/49
f 97/77/88 58/82/49 66/81/57
f 65/83/56 95/88/86 94/86/85
f 65/83/56 94/86/85 97/85/88
f 94/86/85 96/87/87 97/85/88
f 65/83/56 97/85/88 66/84/57
f 85/89/76 92/90/83 93/70/84
f 85/89/76 93/70/84 86/67/77
f 98/55/89 93/56/84 92/57/83
f 98/55/89 92/57/83 99/58/90
f 70/59/61 100/60/91 101/61/92
f 70/59/61 101/61/92 71/62/62
f 99/58/90 92/57/83 91/63/82
f 99/58/90 91/63/82 102/64/93
f 59/65/50 93/56/84 98/55/89
f 59/65/50 98/55/89 76/66/67
f 91/63/82 101/61/92 100/60/91
f 91/63/82 100/60/91 102/64/93
f 100/71/91 103/72/94 104/73/95
f 100/71/91 104/73/95 102/74/93
f 105/75/96 106/76/97 98/77/89
f 105/75/96 98/77/89 99/78/90
f 70/79/61 81/80/72 103/71/94
f 70/79/61 103/71/94 100/72/91
f 102/74/93 104/73/95 105/75/96
f 102/74/93 105/75/96 99/78/90
f 106/77/97 82/81/73 76/82/67
f 106/77/97 76/82/67 98/76/89
f 81/83/72 82/84/73 106/85/97
f 81/83/72 106/85/97 104/86/95
f 106/85/97 105/87/96 104/86/95
f 81/83/72 104/86/95 103/88/94
f 107/93/98 108/94/99 109/95/100
f 107/93/98 109/95/100 110/96/101
f 75/97/66 55/98/46 107/93/98
f 75/97/66 107/93/98 110/96/101
f 55/99/46 49/100/40 108/101/99
f 55/99/46 108/101/99 107/102/98
f 49/68/40 67/69/58 109/95/100
f 49/68/40 109/95/100 108/94/99
f 75/99/66 110/102/101 109/101/100
f 75/99/66 109/101/100 67/100/58
f 111/103/102 112/104/103 113/105/104
f 111/103/102 113/105/104 114/106/105
f 115/107/106 116/108/107 117/109/108
f 115/107/106 117/109/108 118/110/109
f 118/110/109 117/109/108 119/111/110
f 118/110/109 119/111/110 120/112/111
f 114/106/105 120/112/111 119/111/110
f 114/106/105 119/111/110 111/103/102
f 121/103/112 122/104/113 123/105/114
f 121/103/112 123/105/114 124/111/115
f 125/107/116 126/108/117 127/109/118
f 125/107/116 127/109/118 124/111/115
f 128/110/119 125/107/116 124/111/115
f 128/110/119 124/111/115 129/112/120
f 130/106/121 129/112/120 124/111/115
f 130/106/121 124/111/115 123/105/114
f 112/113/103 116/114/107 126/115/117
f 112/113/103 126/115/117 122/116/113
f 131/117/122 55/91/46 75/92/66
f 131/117/122 75/92/66 72/118/63
f 54/119/45 131/117/122 72/118/63
f 54/119/45 72/118/63 71/120/62
f 132/117/123 101/118/92 91/92/82
f 132/117/123 91/92/82 90/91/81
f 54/119/45 71/120/62 101/118/92
f 54/119/45 101/118/92 132/117/123
# 142 triangles in group

# 198 triangles total

