# Wavefront OBJ exported by MilkShape 3D

v -0.930608 0.670851 0.401432
v -0.930608 -0.755071 0.681172
v 0.939699 -0.755071 0.681172
v 0.939699 0.670852 0.401432
v -1.068912 0.762266 0.221790
v -1.068910 -0.907585 0.549384
v 1.078002 -0.907584 0.549384
v 1.078002 0.762267 0.221789
v -1.204056 0.923194 0.267278
v -1.204056 -1.039396 0.652303
v 1.213147 0.923194 0.267278
v 1.213148 -1.039395 0.652303
v -1.204057 0.901057 0.154442
v -1.204056 -1.061533 0.539467
v 1.213147 0.901057 0.154442
v 1.213148 -1.061532 0.539467
v -1.095973 0.794995 0.175250
v -1.095972 -0.955470 0.518660
v 1.105063 0.794995 0.175250
v 1.105064 -0.955470 0.518659
v 1.033706 -1.132677 0.621906
v 1.033707 -1.136414 0.602856
v 0.993907 -1.132677 0.621906
v 0.993908 -1.136414 0.602856
v 0.983691 -1.130710 0.631931
v 1.043923 -1.130710 0.631931
v 0.983691 -1.138381 0.592830
v 1.043923 -1.138381 0.592830
v 0.993910 -2.060611 0.803952
v 1.033708 -2.060611 0.803952
v 0.993910 -2.064348 0.784902
v 1.033709 -2.064348 0.784902
# 32 vertices

vt 0.433089 0.465097
vt 0.747750 0.465097
vt 0.747750 0.870272
vt 0.433089 0.870272
vt 0.433089 0.000000
vt 0.801579 0.000000
vt 0.801579 0.465097
vt 0.086785 0.956922
vt 0.061886 0.956922
vt 0.061885 0.523652
vt 0.086785 0.523652
vt 0.149612 0.564743
vt 0.157747 0.523652
vt 0.166375 0.523652
vt 0.174511 0.564743
vt 0.111685 0.956922
vt 0.111685 0.523652
vt 0.772650 0.465097
vt 0.772650 0.988749
vt 0.747750 0.988749
vt 0.061885 0.582890
vt 0.061885 0.897683
vt 0.000000 0.956922
vt 0.000000 0.523652
vt 0.945019 0.059238
vt 0.945019 0.464413
vt 0.883134 0.523651
vt 0.883134 0.000000
vt 0.801579 0.461361
vt 0.818798 0.056553
vt 0.883134 0.474372
vt 0.882579 0.487409
vt 0.860880 0.523178
vt 0.863464 0.582417
vt 0.863464 0.897210
vt 0.801579 0.956449
vt 0.801579 0.523178
vt 0.023405 0.500237
vt 0.409684 0.500237
vt 0.433089 0.523651
vt 0.023405 0.023415
vt 0.000000 0.000000
vt 0.987680 0.023415
vt 0.987680 0.500237
vt 0.964472 0.523651
vt 0.945019 0.486991
vt 0.945019 0.473943
vt 0.964472 0.000000
vt 0.409684 0.023415
vt 0.122030 0.901194
vt 0.122030 0.532550
vt 0.132375 0.523652
vt 0.132375 0.910093
vt 0.987680 0.470960
vt 0.987680 0.005862
vt 1.000000 0.000000
vt 1.000000 0.476822
vt 0.875785 0.529041
vt 0.875785 0.994138
vt 0.863464 1.000000
vt 0.863464 0.523178
vt 0.111685 0.901194
vt 0.111685 0.532550
vt 0.122030 0.523652
vt 0.122030 0.910092
vt 0.772650 0.939403
vt 0.780782 0.465097
vt 0.789411 0.465097
vt 0.797550 0.939403
vt 0.178715 0.523652
vt 0.182919 0.523652
vt 0.182919 0.728507
vt 0.178715 0.728507
vt 0.189335 0.534487
vt 0.189335 0.525865
vt 0.191547 0.523652
vt 0.191547 0.536700
vt 0.185131 0.525865
vt 0.185131 0.534487
vt 0.182919 0.536700
vt 0.195751 0.523652
vt 0.195751 0.532273
vt 0.191547 0.532273
vt 0.140993 0.523652
vt 0.140993 0.728507
vt 0.132375 0.728507
vt 0.174511 0.728507
vt 0.174511 0.523652
vt 0.149611 0.523652
vt 0.149612 0.728507
# 90 texture coordinates

vn -0.059153 0.306913 0.949897
vn -0.148117 0.117181 0.982003
vn 0.036629 0.009778 0.999281
vn 0.148117 0.262528 0.953489
vn 0.387879 -0.334444 -0.858893
vn -0.241372 -0.567497 -0.787202
vn -0.387881 -0.014851 -0.921590
vn 0.241368 0.228014 -0.943266
vn -0.634157 0.446907 0.630967
vn -0.267260 0.370168 -0.889689
vn -0.495559 -0.614065 -0.614285
vn -0.374544 -0.290065 0.880670
vn 0.695728 -0.308044 0.648900
vn 0.168722 0.741295 0.649627
vn 0.401995 0.123896 -0.907221
vn 0.410153 -0.516041 -0.751982
vn 0.534522 0.107907 -0.838238
vn 0.317079 0.758056 0.569923
vn -0.038517 0.374320 0.926499
vn 0.156587 -0.441309 -0.883588
vn 0.236579 -0.171145 -0.956420
vn -0.318579 -0.311904 -0.895111
vn -0.156584 0.074760 -0.984831
vn -0.008458 0.515869 -0.856625
vn 0.534517 0.838239 0.107922
vn 0.267264 0.683889 -0.678871
vn 0.816505 0.322029 -0.479183
vn 0.333331 0.782536 0.525860
vn -0.534523 0.735316 -0.416647
vn -0.267270 0.889690 0.370159
vn -0.333332 0.525849 -0.782543
vn -0.816510 0.479204 0.321986
# 32 normals

g default
s 1
f 1/1/1 2/2/2 3/3/3
f 1/1/1 3/3/3 4/4/4
f 5/1/5 8/5/6 7/6/7
f 5/1/5 7/6/7 6/7/8
f 9/8/9 13/9/10 14/10/11
f 9/8/9 14/10/11 10/11/12
f 12/12/13 26/13/14 28/14/15
f 12/12/13 28/14/15 16/15/16
f 12/16/13 16/8/16 15/11/17
f 12/16/13 15/11/17 11/17/18
f 13/2/10 9/18/9 11/19/18
f 13/2/10 11/19/18 15/20/17
f 2/21/2 1/22/1 9/23/9
f 2/21/2 9/23/9 10/24/12
f 1/25/1 4/26/4 11/27/18
f 1/25/1 11/27/18 9/28/9
f 3/29/3 2/30/2 10/28/12
f 3/29/3 10/28/12 25/31/19
f 3/29/3 25/31/19 26/32/14
f 3/29/3 26/32/14 12/33/13
f 4/34/4 3/35/3 12/36/13
f 4/34/4 12/36/13 11/37/18
f 17/38/20 18/39/21 14/40/11
f 17/38/20 14/40/11 13/24/10
f 19/41/22 17/38/20 13/24/10
f 19/41/22 13/24/10 15/42/17
f 18/43/21 20/44/23 16/45/16
f 18/43/21 16/45/16 28/46/15
f 18/43/21 28/46/15 27/47/24
f 18/43/21 27/47/24 14/48/11
f 20/49/23 19/41/22 15/42/17
f 20/49/23 15/42/17 16/5/16
f 5/50/5 6/51/8 18/52/21
f 5/50/5 18/52/21 17/53/20
f 8/54/6 5/55/5 17/56/20
f 8/54/6 17/56/20 19/57/22
f 6/58/8 7/59/7 20/60/23
f 6/58/8 20/60/23 18/61/21
f 7/62/7 8/63/6 19/64/22
f 7/62/7 19/64/22 20/65/23
f 14/66/11 27/67/24 25/68/19
f 14/66/11 25/68/19 10/69/12
f 24/70/25 23/71/26 29/72/27
f 24/70/25 29/72/27 31/73/28
f 21/74/29 23/75/26 25/76/19
f 21/74/29 25/76/19 26/77/14
f 24/78/25 22/79/30 28/80/15
f 24/78/25 28/80/15 27/71/24
f 22/79/30 21/74/29 26/77/14
f 22/79/30 26/77/14 28/80/15
f 23/75/26 24/78/25 27/71/24
f 23/75/26 27/71/24 25/76/19
f 31/76/28 29/81/27 30/82/31
f 31/76/28 30/82/31 32/83/32
f 22/52/30 24/84/25 31/85/28
f 22/52/30 31/85/28 32/86/32
f 21/73/29 22/87/30 32/88/32
f 21/73/29 32/88/32 30/70/31
f 23/84/26 21/89/29 30/90/31
f 23/84/26 30/90/31 29/85/27
# 60 triangles in group

# 60 triangles total

