# Wavefront OBJ exported by MilkShape 3D

v 0.377900 0.693899 -0.426642
v 0.628200 0.842999 -0.653743
v 0.931200 0.768299 -0.612943
v 0.486700 0.455999 -0.296742
v -0.109100 1.719499 -1.026142
v -0.109100 1.976399 -1.166542
v 0.405900 1.829099 -1.037543
v 0.233900 1.633999 -0.930942
v 0.504600 1.291799 -0.804343
v 0.753100 1.397499 -0.862042
v -0.109100 0.455999 -0.296742
v -0.109100 0.693899 -0.426642
v 0.486700 4.840198 4.087558
v -0.109100 4.840198 4.087558
v 0.384700 1.566599 -0.729343
v 0.153800 1.788199 -0.846242
v 0.482800 1.321799 -0.600243
v 0.327400 1.045999 -0.454742
v -0.109100 1.864399 -0.886443
v -0.109100 1.045999 -0.454742
v 0.931200 5.156398 3.775158
v 0.377900 4.970098 3.849658
v 0.628200 5.197198 3.700458
v -0.109100 5.569698 2.824058
v 0.233900 5.474498 2.909558
v 0.405900 5.580998 2.714358
v -0.109100 5.709999 2.567157
v 0.753100 5.405498 3.146058
v 0.504600 5.347798 3.251658
v -0.109100 4.970098 3.849658
v 0.153800 5.293098 2.898057
v 0.384700 5.176299 3.119658
v 0.482800 5.047098 3.364358
v 0.327400 4.901598 3.640258
v -0.109100 5.333298 2.821857
v -0.109100 4.901598 3.640258
v -0.596000 0.693899 -0.426642
v -0.704900 0.455999 -0.296742
v -1.149300 0.768299 -0.612943
v -0.846400 0.842999 -0.653743
v -0.452100 1.633999 -0.930942
v -0.624100 1.829099 -1.037543
v -0.971200 1.397499 -0.862042
v -0.722800 1.291799 -0.804343
v -1.149300 5.156398 3.775158
v -0.971200 5.405498 3.146058
v -0.704900 4.840198 4.087558
v -0.371900 1.788199 -0.846242
v -0.602800 1.566599 -0.729343
v -0.700900 1.321799 -0.600243
v -0.545600 1.045999 -0.454742
v -0.596000 4.970098 3.849658
v -0.846400 5.197198 3.700458
v -0.624100 5.580998 2.714358
v -0.452100 5.474498 2.909558
v -0.722800 5.347798 3.251658
v -0.602800 5.176299 3.119658
v -0.371900 5.293098 2.898057
v -0.700900 5.047098 3.364358
v -0.545600 4.901598 3.640258
v 1.234200 1.495099 -0.959543
v 1.234200 5.502998 3.048458
v 1.412300 5.253998 3.677558
v 1.412300 0.865899 -0.710543
v -0.704900 0.667499 -0.085242
v -1.149300 0.979899 -0.401442
v -0.971200 1.608999 -0.650443
v -0.624100 2.040699 -0.826043
v -0.109100 0.667499 -0.085242
v -0.109100 2.187899 -0.954942
v 0.405900 2.040699 -0.826043
v 0.486700 0.667499 -0.085242
v 0.753100 1.608999 -0.650443
v 0.931200 0.979899 -0.401442
v -0.704900 4.590398 3.837758
v -1.149300 4.906599 3.525458
v -0.971200 5.155698 2.896258
v -0.109100 4.590398 3.837758
v -0.624100 5.331298 2.464657
v -0.109100 5.460198 2.317358
v 0.405900 5.331298 2.464657
v 0.753100 5.155698 2.896258
v 0.486700 4.590398 3.837758
v 0.931200 4.906599 3.525458
v 1.104800 5.590898 3.570958
v 1.345600 5.347298 3.441958
v 1.310300 5.396598 3.317159
v 1.069400 5.640498 3.445758
v 0.828500 5.299998 3.412358
v 0.864100 5.250198 3.538158
v -0.258800 3.056299 2.658257
v -0.258800 2.854399 2.279357
v -0.258800 0.363999 2.974858
v -0.258800 0.363999 3.353758
v 0.122200 3.056299 2.658257
v 0.122200 0.363999 3.353758
v 0.122200 0.363999 2.974858
v 0.122200 2.854399 2.279357
v -0.816000 -0.007601 3.904158
v -0.816000 0.211899 3.904158
v -0.816000 0.211899 2.424458
v -0.816000 -0.007701 2.424458
v 0.671400 -0.007701 2.424458
v 0.671400 -0.007601 3.904158
v 0.671400 0.211899 3.904158
v 0.671400 0.211899 2.424458
v 0.201100 3.565999 2.663857
v 0.201100 3.179799 2.791058
v 0.201100 2.531499 2.273757
v 0.201100 2.917699 2.146558
v -0.345600 3.565999 2.663857
v -0.345600 3.179799 2.791058
v -0.345600 2.917699 2.146558
v -0.345600 2.531499 2.273757
v -0.286000 0.211899 2.948158
v -0.286000 0.363999 2.948158
v 0.148500 0.363999 2.948158
v 0.148500 0.211899 2.948158
v 0.148500 0.363999 3.380458
v 0.148500 0.211899 3.380458
v -0.286000 0.363999 3.380458
v -0.286000 0.211899 3.380458
v 0.927700 -0.007601 1.003358
v 0.927700 -0.007701 -0.996642
v 0.927700 0.563399 -0.996642
v 0.927700 0.563399 1.003358
v -1.072300 -0.007601 1.003358
v -1.072300 0.563399 1.003358
v -1.072300 -0.007701 -0.996642
v -1.072300 0.563399 -0.996642
v 0.405900 1.829199 -1.037543
v -0.624100 1.829199 -1.037543
# 132 vertices

vt 0.093800 0.053200
vt 0.135000 0.093900
vt 0.185300 0.081200
vt 0.111800 0.012800
vt 0.012400 0.230400
vt 0.012400 0.274000
vt 0.097700 0.243600
vt 0.069400 0.210500
vt 0.114200 0.159100
vt 0.155400 0.177000
vt 0.012400 0.013200
vt 0.012400 0.053500
vt 0.659300 0.008400
vt 0.659300 0.861800
vt 0.579300 0.861800
vt 0.579300 0.008400
vt 0.197800 0.234900
vt 0.238100 0.190600
vt 0.180800 0.179200
vt 0.154300 0.216500
vt 0.197800 0.140700
vt 0.271600 0.133400
vt 0.263200 0.083100
vt 0.213700 0.093000
vt 0.139900 0.272800
vt 0.192800 0.276800
vt 0.213700 0.026500
vt 0.263200 0.026500
vt 0.012400 0.208400
vt 0.055700 0.195600
vt 0.094000 0.158500
vt 0.084500 0.071200
vt 0.110300 0.117500
vt 0.012400 0.071200
vt 0.748700 0.008400
vt 0.748700 0.861800
vt 0.841700 0.044700
vt 0.841700 0.824300
vt 0.416100 0.045900
vt 0.416100 0.825400
vt 0.509100 0.861800
vt 0.509100 0.008400
vt 0.339000 0.825400
vt 0.339000 0.045800
vt 0.316800 0.333600
vt 0.237800 0.333600
vt 0.236000 0.223900
vt 0.315000 0.223900
vt 0.092600 0.592500
vt 0.058000 0.634100
vt 0.071900 0.687200
vt 0.098900 0.723900
vt 0.139100 0.592500
vt 0.139100 0.742000
vt 0.179200 0.723900
vt 0.185500 0.592500
vt 0.206200 0.687200
vt 0.220100 0.634100
vt 0.743300 0.584900
vt 0.743300 0.857700
vt 0.710600 0.857700
vt 0.710600 0.584900
vt 0.247200 0.215400
vt 0.319600 0.215500
vt 0.319400 0.191800
vt 0.247000 0.191600
vt 0.693200 0.874300
vt 0.665900 0.925400
vt 0.329800 0.925300
vt 0.329800 0.874200
vt 0.332100 0.934500
vt 0.332100 0.985900
vt 0.694900 0.985900
vt 0.694900 0.934500
vt 0.669000 0.985900
vt 0.669000 0.934500
vt 0.266100 0.784500
vt 0.295700 0.784500
vt 0.295700 0.984700
vt 0.266000 0.984700
vt 0.034200 0.552600
vt 0.206900 0.552600
vt 0.206900 0.380800
vt 0.034200 0.380800
vt 0.251200 0.513900
vt 0.297400 0.484200
vt 0.298300 0.372300
vt 0.252100 0.401900
vt 0.111100 0.289200
vt 0.058900 0.289200
vt 0.058900 0.363000
vt 0.111100 0.363000
vt 0.109000 0.289200
vt 0.056800 0.289200
vt 0.056800 0.363000
vt 0.109000 0.363000
vt 0.196500 0.363000
vt 0.196500 0.289200
vt 0.271000 0.649500
vt 0.271000 0.667200
vt 0.321500 0.667200
vt 0.321500 0.649500
vt 0.304200 0.927500
vt 0.324700 0.927500
vt 0.324700 0.869200
vt 0.304200 0.869200
vt 0.271000 0.717400
vt 0.321500 0.717400
vt 0.715700 0.875300
vt 0.985700 0.875300
vt 0.985700 0.952400
vt 0.715700 0.952400
vt 0.257000 0.804400
vt 0.024700 0.804400
vt 0.024700 0.572200
vt 0.257000 0.572200
vt 0.913600 0.072400
vt 0.913600 0.800300
vt 0.987700 0.072400
vt 0.987700 0.800300
# 120 texture coordinates

vn -0.225613 -0.398562 -0.888958
vn -0.414408 -0.444028 -0.794421
vn 0.331468 -0.923283 -0.194106
vn 0.169011 -0.982875 0.073425
vn 0.000023 -0.991950 -0.126629
vn 0.000000 0.358781 -0.933422
vn 0.034961 -0.484225 -0.874245
vn -0.511289 -0.802299 -0.308059
vn -0.756946 -0.503036 -0.417119
vn 0.018640 -0.172216 -0.984883
vn 0.000000 -0.846333 -0.532654
vn 0.000000 -0.217018 -0.976168
vn 0.406176 -0.004017 0.913786
vn 0.000000 0.142314 0.989822
vn -0.581024 -0.674383 -0.455652
vn -0.489719 -0.812410 0.316488
vn -0.718919 -0.328716 -0.612455
vn -0.091884 -0.295102 -0.951037
vn 0.000018 -0.723801 -0.690009
vn 0.000000 -0.278775 -0.960356
vn 0.154516 0.538796 0.828145
vn -0.280787 0.909279 0.307198
vn -0.415904 0.808829 0.415716
vn 0.000010 0.508241 0.861215
vn -0.327173 0.591290 0.737112
vn 0.340876 0.937580 -0.068903
vn 0.000000 0.992939 -0.118623
vn 0.080536 0.996740 0.004919
vn -0.646180 0.563631 0.514560
vn 0.000000 0.998686 -0.051247
vn -0.317792 0.321983 0.891816
vn -0.442113 0.625525 0.642849
vn -0.732492 0.625331 0.269103
vn -0.136148 0.981220 0.136643
vn 0.000014 0.746212 0.665708
vn 0.000000 0.996422 0.084523
vn 0.225642 -0.398559 -0.888952
vn -0.169043 -0.982870 0.073417
vn -0.582915 -0.686195 -0.435139
vn 0.414312 -0.444016 -0.794478
vn 0.511207 -0.802280 -0.308244
vn -0.034958 -0.484223 -0.874246
vn -0.484439 -0.127795 -0.865440
vn 0.756780 -0.503078 -0.417369
vn -0.633234 0.608422 0.478370
vn -0.440212 0.894457 0.078491
vn -0.406232 -0.003991 0.913761
vn 0.489730 -0.812492 0.316260
vn 0.580887 -0.674375 -0.455838
vn 0.718825 -0.328732 -0.612556
vn 0.091949 -0.295092 -0.951034
vn 0.280825 0.909267 0.307197
vn 0.415812 0.808882 0.415705
vn -0.340896 0.937574 -0.068888
vn 0.327103 0.591385 0.737066
vn 0.646032 0.563798 0.514562
vn 0.441996 0.625642 0.642816
vn 0.317767 0.322085 0.891788
vn 0.732437 0.625391 0.269114
vn 0.136222 0.981212 0.136626
vn 0.389813 0.418240 -0.820440
vn 0.298673 0.921360 -0.248777
vn 0.757142 0.287292 0.586685
vn 0.485295 -0.600257 -0.635752
vn 0.155266 -0.462206 -0.873074
vn 0.260520 -0.957681 -0.122378
vn 0.231737 -0.451668 -0.861565
vn 0.026473 -0.484254 -0.874527
vn 0.000000 -0.485679 -0.874137
vn 0.000000 -0.496526 -0.868022
vn -0.026458 -0.484254 -0.874527
vn -0.155233 -0.462203 -0.873081
vn -0.231689 -0.451665 -0.861579
vn -0.158039 -0.944226 0.288896
vn -0.155913 -0.865689 -0.475682
vn -0.123523 -0.909350 0.397272
vn -0.137275 -0.874619 -0.464970
vn -0.000003 -0.874023 -0.485884
vn -0.012680 -0.881968 -0.471138
vn -0.000000 -0.867997 -0.496569
vn 0.012670 -0.881967 -0.471141
vn 0.137251 -0.874623 -0.464969
vn 0.155887 -0.865697 -0.475677
vn 0.190688 -0.965881 0.175246
vn -0.027668 0.926753 0.374650
vn 0.726606 0.684002 0.064682
vn -0.762076 0.498639 0.413036
vn -0.894427 0.111856 0.432999
vn -0.447214 -0.240583 -0.861464
vn -0.894427 -0.120292 -0.430732
vn -0.447214 0.223713 0.865998
vn 0.707107 0.176861 0.684632
vn 0.707107 -0.190198 -0.681047
vn -0.816487 -0.408244 0.408271
vn -0.408248 0.408248 0.816497
vn -0.666667 0.666667 -0.333333
vn -0.333343 -0.666687 -0.666642
vn 0.816506 -0.408253 -0.408225
vn 0.333323 -0.666647 0.666692
vn 0.666667 0.666667 0.333333
vn 0.408248 0.408248 -0.816497
vn 0.894427 0.139903 0.424767
vn 0.273399 -0.169987 0.946761
vn 0.903012 -0.422854 -0.075922
vn 0.447214 -0.279805 -0.849535
vn -0.447214 0.279806 0.849534
vn -0.750871 -0.116714 0.650054
vn -0.894427 -0.139902 -0.424767
vn -0.465165 -0.871292 -0.156437
vn -0.447214 0.000000 -0.894427
vn -0.816497 0.408248 -0.408248
vn 0.333333 0.666667 -0.666667
vn 0.894427 0.000000 -0.447214
vn 0.816497 0.408248 0.408248
vn 0.447214 0.000000 0.894427
vn -0.333333 0.666667 0.666667
vn -0.894427 0.000000 0.447214
vn 0.816490 -0.408245 0.408265
vn 0.408255 -0.816510 -0.408214
vn 0.666667 0.333333 -0.666667
vn 0.333333 0.666667 0.666667
vn -0.333326 -0.666652 0.666685
vn -0.816497 0.408248 0.408248
vn -0.666674 -0.333337 -0.666657
vn -0.408248 0.816497 -0.408248
vn 0.656791 0.533217 -0.533203
vn -0.656863 0.533173 -0.533158
# 127 normals

g develop
s 1
f 1/1/1 2/2/2 3/3/3
f 1/1/1 3/3/3 4/4/4
f 5/5/5 6/6/6 7/7/7
f 5/5/5 7/7/7 8/8/8
f 2/2/2 9/9/9 10/10/10
f 2/2/2 10/10/10 3/3/3
f 11/11/11 12/12/12 1/1/1
f 11/11/11 1/1/1 4/4/4
f 10/10/10 9/9/9 8/8/8
f 10/10/10 8/8/8 7/7/7
f 4/13/4 13/14/13 14/15/14
f 4/13/4 14/15/14 11/16/11
f 8/17/8 9/18/9 15/19/15
f 8/17/8 15/19/15 16/20/16
f 17/21/17 2/22/2 1/23/1
f 17/21/17 1/23/1 18/24/18
f 5/25/5 8/20/8 16/17/16
f 5/25/5 16/17/16 19/26/19
f 9/18/9 2/22/2 17/21/17
f 9/18/9 17/21/17 15/19/15
f 18/23/18 1/24/1 12/27/12
f 18/23/18 12/27/12 20/28/20
f 19/29/19 16/30/16 15/31/15
f 19/29/19 15/31/15 18/32/18
f 15/31/15 17/33/17 18/32/18
f 19/29/19 18/32/18 20/34/20
f 3/35/3 21/36/21 13/14/13
f 3/35/3 13/14/13 4/13/4
f 22/1/22 13/4/13 21/3/21
f 22/1/22 21/3/21 23/2/23
f 24/5/24 25/8/25 26/7/26
f 24/5/24 26/7/26 27/6/27
f 23/2/23 21/3/21 28/10/28
f 23/2/23 28/10/28 29/9/29
f 14/11/14 13/4/13 22/1/22
f 14/11/14 22/1/22 30/12/30
f 28/10/28 26/7/26 25/8/25
f 28/10/28 25/8/25 29/9/29
f 25/17/25 31/20/31 32/19/32
f 25/17/25 32/19/32 29/18/29
f 33/21/33 34/24/34 22/23/22
f 33/21/33 22/23/22 23/22/23
f 24/25/24 35/26/35 31/17/31
f 24/25/24 31/17/31 25/20/25
f 29/18/29 32/19/32 33/21/33
f 29/18/29 33/21/33 23/22/23
f 34/23/34 36/28/36 30/27/30
f 34/23/34 30/27/30 22/24/22
f 35/29/35 36/34/36 34/32/34
f 35/29/35 34/32/34 32/31/32
f 34/32/34 33/33/33 32/31/32
f 35/29/35 32/31/32 31/30/31
f 37/1/37 38/4/38 39/3/39
f 37/1/37 39/3/39 40/2/40
f 5/5/5 41/8/41 42/7/42
f 5/5/5 42/7/42 6/6/6
f 40/2/40 39/3/39 43/10/43
f 40/2/40 43/10/43 44/9/44
f 11/11/11 38/4/38 37/1/37
f 11/11/11 37/1/37 12/12/12
f 43/10/43 42/7/42 41/8/41
f 43/10/43 41/8/41 44/9/44
f 43/37/43 39/35/39 45/36/45
f 43/37/43 45/36/45 46/38/46
f 38/13/38 11/16/11 14/15/14
f 38/13/38 14/15/14 47/14/47
f 41/17/41 48/20/48 49/19/49
f 41/17/41 49/19/49 44/18/44
f 50/21/50 51/24/51 37/23/37
f 50/21/50 37/23/37 40/22/40
f 5/25/5 19/26/19 48/17/48
f 5/25/5 48/17/48 41/20/41
f 44/18/44 49/19/49 50/21/50
f 44/18/44 50/21/50 40/22/40
f 51/23/51 20/28/20 12/27/12
f 51/23/51 12/27/12 37/24/37
f 19/29/19 20/34/20 51/32/51
f 19/29/19 51/32/51 49/31/49
f 51/32/51 50/33/50 49/31/49
f 19/29/19 49/31/49 48/30/48
f 39/35/39 38/13/38 47/14/47
f 39/35/39 47/14/47 45/36/45
f 52/1/52 53/2/53 45/3/45
f 52/1/52 45/3/45 47/4/47
f 24/5/24 27/6/27 54/7/54
f 24/5/24 54/7/54 55/8/55
f 53/2/53 56/9/56 46/10/46
f 53/2/53 46/10/46 45/3/45
f 14/11/14 30/12/30 52/1/52
f 14/11/14 52/1/52 47/4/47
f 46/10/46 56/9/56 55/8/55
f 46/10/46 55/8/55 54/7/54
f 55/17/55 56/18/56 57/19/57
f 55/17/55 57/19/57 58/20/58
f 59/21/59 53/22/53 52/23/52
f 59/21/59 52/23/52 60/24/60
f 24/25/24 55/20/55 58/17/58
f 24/25/24 58/17/58 35/26/35
f 56/18/56 53/22/53 59/21/59
f 56/18/56 59/21/59 57/19/57
f 60/23/60 52/24/52 30/27/30
f 60/23/60 30/27/30 36/28/36
f 35/29/35 58/30/58 57/31/57
f 35/29/35 57/31/57 60/32/60
f 57/31/57 59/33/59 60/32/60
f 35/29/35 60/32/60 36/34/36
f 61/39/61 62/40/62 63/41/63
f 61/39/61 63/41/63 64/42/64
f 28/43/28 62/40/62 61/39/61
f 28/43/28 61/39/61 10/44/10
f 10/45/10 61/46/61 64/47/64
f 10/45/10 64/47/64 3/48/3
f 3/16/3 64/42/64 63/41/63
f 3/16/3 63/41/63 21/15/21
f 28/45/28 21/48/21 63/47/63
f 28/45/28 63/47/63 62/46/62
f 65/49/65 66/50/66 67/51/67
f 65/49/65 67/51/67 68/52/68
f 69/53/69 65/49/65 68/52/68
f 69/53/69 68/52/68 70/54/70
f 69/53/69 70/54/70 71/55/71
f 69/53/69 71/55/71 72/56/72
f 72/56/72 71/55/71 73/57/73
f 72/56/72 73/57/73 74/58/74
f 75/49/75 76/50/76 77/51/77
f 75/49/75 77/51/77 78/53/78
f 78/53/78 77/51/77 79/52/79
f 78/53/78 79/52/79 80/54/80
f 78/53/78 80/54/80 81/55/81
f 78/53/78 81/55/81 82/57/82
f 83/56/83 78/53/78 82/57/82
f 83/56/83 82/57/82 84/58/84
f 74/59/74 84/60/84 76/61/76
f 74/59/74 76/61/76 66/62/66
f 85/63/85 86/64/86 87/65/86
f 85/63/85 87/65/86 88/66/85
f 85/65/85 88/64/85 89/63/87
f 85/65/85 89/63/87 90/66/87
f 91/67/88 92/68/89 93/69/90
f 91/67/88 93/69/90 94/70/91
f 95/67/92 96/70/92 97/69/93
f 95/67/92 97/69/93 98/68/93
f 94/71/91 96/72/92 95/73/92
f 94/71/91 95/73/92 91/74/88
f 92/75/89 98/76/93 97/71/93
f 92/75/89 97/71/93 93/72/90
f 99/77/94 100/78/95 101/79/96
f 99/77/94 101/79/96 102/80/97
f 102/81/97 103/82/98 104/83/99
f 102/81/97 104/83/99 99/84/94
f 104/80/99 105/79/100 100/78/95
f 104/80/99 100/78/95 99/77/94
f 103/80/98 106/79/101 105/78/100
f 103/80/98 105/78/100 104/77/99
f 102/80/97 101/79/96 106/78/101
f 102/80/97 106/78/101 103/77/98
f 105/84/100 106/81/101 101/82/96
f 105/84/100 101/82/96 100/83/95
f 107/85/102 108/86/103 109/87/104
f 107/85/102 109/87/104 110/88/105
f 111/89/106 112/90/107 108/91/103
f 111/89/106 108/91/103 107/92/102
f 113/88/108 114/87/109 112/86/107
f 113/88/108 112/86/107 111/85/106
f 110/93/105 109/94/104 114/95/109
f 110/93/105 114/95/109 113/96/108
f 108/97/103 112/98/107 114/93/109
f 108/97/103 114/93/109 109/96/104
f 115/99/110 116/100/111 117/101/112
f 115/99/110 117/101/112 118/102/113
f 118/103/113 117/104/112 119/105/114
f 118/103/113 119/105/114 120/106/115
f 120/99/115 119/100/114 121/101/116
f 120/99/115 121/101/116 122/102/117
f 122/106/117 121/105/116 116/104/111
f 122/106/117 116/104/111 115/103/110
f 117/107/112 116/108/111 121/101/116
f 117/107/112 121/101/116 119/100/114
f 123/109/118 124/110/119 125/111/120
f 123/109/118 125/111/120 126/112/121
f 127/109/122 123/110/118 126/111/121
f 127/109/122 126/111/121 128/112/123
f 124/113/119 123/114/118 127/115/122
f 124/113/119 127/115/122 129/116/124
f 126/115/121 125/116/120 130/113/125
f 126/115/121 130/113/125 128/114/123
f 129/109/124 127/110/122 128/111/123
f 129/109/124 128/111/123 130/112/125
f 125/112/120 124/109/119 129/110/124
f 125/112/120 129/110/124 130/111/125
f 131/117/126 26/118/26 28/38/28
f 131/117/126 28/38/28 10/37/10
f 6/119/6 27/120/27 26/118/26
f 6/119/6 26/118/26 131/117/126
f 132/117/127 43/37/43 46/38/46
f 132/117/127 46/38/46 54/118/54
f 6/119/6 132/117/127 54/118/54
f 6/119/6 54/118/54 27/120/27
# 198 triangles in group

# 198 triangles total

