# 3ds Max Wavefront OBJ Exporter v0.97b - (c)2007 guruware
# 创建的文件:14.09.2015 08:31:33

mtllib 能力开发机模型\developer_advanced.mtl

#
# object develop
#

v  1.1048 5.6588 2.1046
v  1.0694 5.7084 1.9794
v  1.3103 5.4645 1.8508
v  1.3456 5.4152 1.9756
v  0.8641 5.3181 2.0718
v  0.8285 5.3679 1.9460
v  -0.2588 3.1242 1.1919
v  -0.2588 0.4319 1.8874
v  -0.2588 0.4319 1.5085
v  -0.2588 2.9223 0.8130
v  0.1222 3.1242 1.1919
v  0.1222 2.9223 0.8130
v  0.1222 0.4319 1.5085
v  0.1222 0.4319 1.8874
v  -0.8160 0.0603 2.4378
v  -0.8160 0.0602 0.9581
v  -0.8160 0.2798 0.9581
v  -0.8160 0.2798 2.4378
v  0.6714 0.0603 2.4378
v  0.6714 0.0602 0.9581
v  0.6714 0.2798 2.4378
v  0.6714 0.2798 0.9581
v  0.2011 3.6339 1.1975
v  0.2011 2.9856 0.6802
v  0.2011 2.5994 0.8074
v  0.2011 3.2477 1.3247
v  -0.3456 3.6339 1.1975
v  -0.3456 3.2477 1.3247
v  -0.3456 2.9856 0.6802
v  -0.3456 2.5994 0.8074
v  -0.2860 0.2798 1.4818
v  0.1485 0.2798 1.4818
v  0.1485 0.4319 1.4818
v  -0.2860 0.4319 1.4818
v  0.1485 0.2798 1.9141
v  0.1485 0.4319 1.9141
v  -0.2860 0.2798 1.9141
v  -0.2860 0.4319 1.9141
v  0.9277 0.0603 -0.4630
v  0.9277 0.0602 -2.4630
v  0.9277 0.6313 -2.4630
v  0.9277 0.6313 -0.4630
v  -1.0723 0.0603 -0.4630
v  -1.0723 0.6313 -0.4630
v  -1.0723 0.0602 -2.4630
v  -1.0723 0.6313 -2.4630
# 46 vertices

vn -0.7268 -0.6838 -0.0650
vn 0.7620 -0.4987 -0.4131
vn 1.0000 -0.0000 -0.0000
vn -1.0000 -0.0000 -0.0000
vn 0.0000 -0.2501 -0.9682
vn -0.0000 0.2690 0.9631
vn 1.0000 0.0000 -0.0000
vn 0.0000 1.0000 -0.0000
vn -0.0000 -0.0000 -1.0000
vn -1.0000 0.0000 0.0000
vn 0.0000 0.0000 1.0000
vn -0.0000 -1.0000 0.0000
vn -0.0000 -0.3129 -0.9498
vn 0.0000 0.3129 0.9498
vn -0.0000 0.6238 -0.7816
vn 1.0000 0.0000 0.0000
# 16 vertex normals

vt 0.2472 0.2154 0.8796
vt 0.2470 0.1916 0.8658
vt 0.3194 0.1918 0.9597
vt 0.3196 0.2155 0.9735
vt 0.3194 0.1918 0.8796
vt 0.2470 0.1916 0.7857
vt 0.2472 0.2154 0.7718
vt 0.3196 0.2155 0.8658
vt 0.6932 0.8743 0.4511
vt 0.3298 0.8742 0.4511
vt 0.3298 0.9253 0.4511
vt 0.6659 0.9254 0.4511
vt 0.6932 0.8743 0.5510
vt 0.6659 0.9254 0.5510
vt 0.3298 0.9253 0.5510
vt 0.3298 0.8742 0.5510
vt 0.3321 0.9345 0.1231
vt 0.6949 0.9345 0.1233
vt 0.6949 0.9859 0.1233
vt 0.3321 0.9859 0.1231
vt 0.6690 0.9859 0.2226
vt 0.3321 0.9859 0.2224
vt 0.3321 0.9345 0.2224
vt 0.6690 0.9345 0.2226
vt 0.2661 0.7845 0.3051
vt 0.2660 0.9847 0.3051
vt 0.2957 0.9847 0.3051
vt 0.2957 0.7845 0.3051
vt 0.0342 0.5526 0.0396
vt 0.0342 0.3808 0.0398
vt 0.2069 0.3808 0.0398
vt 0.2069 0.5526 0.0396
vt 0.2661 0.9847 -0.0212
vt 0.2661 0.7845 -0.0212
vt 0.2957 0.7845 -0.0212
vt 0.2957 0.9847 -0.0212
vt 0.2660 0.9847 0.6949
vt 0.2661 0.7845 0.6949
vt 0.2957 0.7845 0.6949
vt 0.2957 0.9847 0.6949
vt 0.2660 0.9847 0.3666
vt 0.2660 0.7845 0.3666
vt 0.2957 0.7845 0.3666
vt 0.2957 0.9847 0.3666
vt 0.0342 0.3808 0.0973
vt 0.2069 0.3808 0.0973
vt 0.2069 0.5526 0.0972
vt 0.0342 0.5526 0.0972
vt 0.2512 0.5139 0.5716
vt 0.2521 0.4019 0.5716
vt 0.2983 0.3723 0.5716
vt 0.2974 0.4842 0.5716
vt 0.1111 0.2892 0.1219
vt 0.1111 0.3630 0.1219
vt 0.0589 0.3630 0.0885
vt 0.0589 0.2892 0.0885
vt 0.2521 0.4019 0.4284
vt 0.2512 0.5139 0.4284
vt 0.2974 0.4842 0.4284
vt 0.2983 0.3723 0.4284
vt 0.1090 0.2892 0.2574
vt 0.1090 0.3630 0.2574
vt 0.0568 0.3630 0.2241
vt 0.0568 0.2892 0.2241
vt 0.1965 0.3630 0.0885
vt 0.1090 0.3630 0.2241
vt 0.1090 0.2892 0.2241
vt 0.1965 0.2892 0.0885
vt 0.2710 0.6495 0.2294
vt 0.3215 0.6495 0.2294
vt 0.3215 0.6672 0.2294
vt 0.2710 0.6672 0.2294
vt 0.3042 0.9275 0.5579
vt 0.3042 0.8692 0.5579
vt 0.3247 0.8692 0.5579
vt 0.3247 0.9275 0.5579
vt 0.2710 0.6495 0.1161
vt 0.3215 0.6495 0.1161
vt 0.3215 0.6672 0.1161
vt 0.2710 0.6672 0.1161
vt 0.3042 0.8692 0.4440
vt 0.3042 0.9275 0.4440
vt 0.3247 0.9275 0.4440
vt 0.3247 0.8692 0.4440
vt 0.2710 0.7174 0.1371
vt 0.2710 0.6672 0.1371
vt 0.3215 0.6672 0.1371
vt 0.3215 0.7174 0.1371
vt 0.7157 0.8753 0.7621
vt 0.9857 0.8753 0.7621
vt 0.9857 0.9524 0.7621
vt 0.7157 0.9524 0.7621
vt 0.7157 0.8753 0.5568
vt 0.9857 0.8753 0.5568
vt 0.9857 0.9524 0.5568
vt 0.7157 0.9524 0.5568
vt 0.2570 0.8044 0.0394
vt 0.0247 0.8044 0.0396
vt 0.0247 0.5722 0.0396
vt 0.2570 0.5722 0.0394
vt 0.0247 0.5722 0.1892
vt 0.2570 0.5722 0.1891
vt 0.2570 0.8044 0.1891
vt 0.0247 0.8044 0.1892
vt 0.7157 0.8753 0.2379
vt 0.9857 0.8753 0.2379
vt 0.9857 0.9524 0.2379
vt 0.7157 0.9524 0.2379
vt 0.7157 0.9524 1.0810
vt 0.7157 0.8753 1.0810
vt 0.9857 0.8753 1.0810
vt 0.9857 0.9524 1.0810
# 112 texture coords

g develop
usemtl 02___Default
s off
f 1/1/1 2/2/1 3/3/1 4/4/1 
f 1/5/2 5/6/2 6/7/2 2/8/2 
f 7/9/3 8/10/3 9/11/3 10/12/3 
f 11/13/4 12/14/4 13/15/4 14/16/4 
f 8/17/5 7/18/5 11/19/5 14/20/5 
f 10/21/6 9/22/6 13/23/6 12/24/6 
f 15/25/7 16/26/7 17/27/7 18/28/7 
f 16/29/8 15/30/8 19/31/8 20/32/8 
f 19/33/9 15/34/9 18/35/9 21/36/9 
f 20/37/10 19/38/10 21/39/10 22/40/10 
f 16/41/11 20/42/11 22/43/11 17/44/11 
f 21/45/12 18/46/12 17/47/12 22/48/12 
f 23/49/10 24/50/10 25/51/10 26/52/10 
f 27/53/13 23/54/13 26/55/13 28/56/13 
f 29/57/7 27/58/7 28/59/7 30/60/7 
f 24/61/14 29/62/14 30/63/14 25/64/14 
f 26/65/15 25/66/15 30/67/15 28/68/15 
f 31/69/11 32/70/11 33/71/11 34/72/11 
f 32/73/4 35/74/4 36/75/4 33/76/4 
f 35/77/9 37/78/9 38/79/9 36/80/9 
f 37/81/16 31/82/16 34/83/16 38/84/16 
f 33/85/12 36/86/12 38/87/12 34/88/12 
f 39/89/7 40/90/7 41/91/7 42/92/7 
f 43/93/11 39/94/11 42/95/11 44/96/11 
f 40/97/12 39/98/12 43/99/12 45/100/12 
f 42/101/8 41/102/8 46/103/8 44/104/8 
f 45/105/10 43/106/10 44/107/10 46/108/10 
f 41/109/9 40/110/9 45/111/9 46/112/9 
# 28 polygons

#
# object 对象001
#

v  0.3779 0.7618 -1.8930
v  0.4867 0.5239 -1.7631
v  0.9312 0.8362 -2.0793
v  0.6282 0.9109 -2.1201
v  -0.1091 1.7874 -2.4925
v  0.2339 1.7019 -2.3973
v  0.4059 1.8970 -2.5039
v  -0.1091 2.0443 -2.6329
v  0.7531 1.4654 -2.3284
v  0.5046 1.3597 -2.2707
v  -0.1091 0.5239 -1.7631
v  -0.1091 0.7618 -1.8930
v  -0.1091 4.9081 2.6212
v  0.4867 4.9081 2.6212
v  0.1538 1.9929 -2.0027
v  0.3847 1.7713 -1.8858
v  0.4828 1.5265 -1.7567
v  0.3274 1.2506 -1.6112
v  -0.1091 2.0691 -2.0429
v  -0.1091 1.2506 -1.6112
v  0.9312 5.2243 2.3088
v  0.3779 5.0380 2.3833
v  0.6282 5.2651 2.2341
v  -0.1091 5.6376 1.3577
v  -0.1091 5.7779 1.1008
v  0.4059 5.6489 1.2480
v  0.2339 5.5424 1.4432
v  0.5046 5.4157 1.7853
v  0.7531 5.4734 1.6797
v  -0.1091 5.0380 2.3833
v  0.3847 5.0326 1.3755
v  0.1538 5.1495 1.1539
v  0.4828 4.9035 1.6203
v  0.3274 4.7579 1.8962
v  -0.1091 5.1897 1.0778
v  -0.1091 4.7579 1.8962
v  -0.5960 0.7618 -1.8930
v  -0.8464 0.9109 -2.1201
v  -1.1493 0.8362 -2.0793
v  -0.7049 0.5239 -1.7631
v  -0.6241 1.8970 -2.5039
v  -0.4521 1.7019 -2.3973
v  -0.7228 1.3597 -2.2707
v  -0.9712 1.4654 -2.3284
v  -0.9712 5.4734 1.6797
v  -1.1493 5.2243 2.3088
v  -0.7049 4.9081 2.6212
v  -0.6028 1.7713 -1.8858
v  -0.3719 1.9929 -2.0027
v  -0.7009 1.5265 -1.7567
v  -0.5456 1.2506 -1.6112
v  -0.5960 5.0380 2.3833
v  -0.8464 5.2651 2.2341
v  -0.4521 5.5424 1.4432
v  -0.6241 5.6489 1.2480
v  -0.7228 5.4157 1.7853
v  -0.3719 5.1495 1.1539
v  -0.6028 5.0326 1.3755
v  -0.7009 4.9035 1.6203
v  -0.5456 4.7580 1.8962
v  1.2342 1.5630 -2.4259
v  1.4123 0.9338 -2.1769
v  1.4123 5.3219 2.2112
v  1.2342 5.5709 1.5821
v  0.4867 0.7354 -1.5516
v  0.9312 1.0478 -1.8678
v  0.7531 1.6769 -2.1168
v  0.4059 2.1086 -2.2924
v  -0.9712 1.6769 -2.1168
v  -1.1493 1.0478 -1.8678
v  -0.7049 0.7354 -1.5516
v  -0.6241 2.1086 -2.2924
v  -0.1091 0.7354 -1.5516
v  -0.1091 2.2558 -2.4213
v  0.4867 4.6583 2.3714
v  0.9312 4.9745 2.0591
v  0.7531 5.2236 1.4299
v  -0.1091 4.6583 2.3714
v  -0.9712 5.2236 1.4299
v  -1.1493 4.9745 2.0591
v  -0.7049 4.6583 2.3714
v  -0.6241 5.3992 0.9983
v  -0.1091 5.5281 0.8510
v  0.4059 5.3992 0.9983
v  0.4059 1.8971 -2.5039
v  -0.6241 1.8971 -2.5039
# 86 vertices

vn 0.1687 0.6342 0.7545
vn -0.0882 0.5030 0.8598
vn 0.0091 0.3499 0.9368
vn 0.0000 0.4792 0.8777
vn 0.0645 0.4073 0.9110
vn -0.0000 0.7071 -0.7071
vn 0.7732 0.5569 -0.3034
vn 0.7724 -0.2126 0.5984
vn 0.3263 0.7964 -0.5092
vn 0.9571 0.2850 -0.0518
vn 0.0000 -0.4994 0.8664
vn 0.0000 0.4665 0.8845
vn -0.0000 0.4665 0.8845
vn -0.7071 0.5000 -0.5000
vn 0.1687 -0.7545 -0.6342
vn -0.0882 -0.8598 -0.5030
vn 0.0091 -0.9368 -0.3499
vn 0.0000 -0.8777 -0.4792
vn 0.0645 -0.9110 -0.4073
vn 0.7732 0.3026 -0.5572
vn 0.7722 -0.5991 0.2118
vn 0.3263 0.5084 -0.7969
vn 0.9571 0.0511 -0.2853
vn -0.0000 -0.8670 0.4984
vn -0.0000 -0.8845 -0.4666
vn 0.0000 -0.8845 -0.4666
vn -0.1687 0.6342 0.7545
vn 0.0882 0.5030 0.8598
vn -0.0091 0.3499 0.9368
vn -0.0000 0.4792 0.8777
vn -0.0645 0.4073 0.9110
vn 0.9613 -0.1949 0.1949
vn 0.0000 0.7071 -0.7071
vn -0.7732 0.5569 -0.3034
vn -0.7724 -0.2126 0.5984
vn -0.3263 0.7964 -0.5092
vn -0.9571 0.2850 -0.0518
vn 0.7071 0.5000 -0.5000
vn -0.1687 -0.7545 -0.6342
vn 0.0882 -0.8598 -0.5030
vn -0.0091 -0.9368 -0.3499
vn -0.0000 -0.8777 -0.4792
vn -0.0645 -0.9110 -0.4073
vn -0.7732 0.3026 -0.5572
vn -0.7722 -0.5991 0.2118
vn -0.3263 0.5084 -0.7969
vn -0.9571 0.0511 -0.2853
vn 0.0000 -0.8845 -0.4665
vn -0.9613 -0.1949 0.1949
vn 0.2757 -0.6797 0.6797
vn 0.1059 0.3918 0.9139
vn -0.2757 0.6797 -0.6797
vn 0.1059 -0.9139 -0.3918
vn 0.0950 0.4668 0.8793
vn 0.3077 0.4243 0.8517
vn 0.1835 0.4673 0.8648
vn -0.0112 0.4900 0.8716
vn -0.1835 0.4673 0.8648
vn -0.3077 0.4243 0.8517
vn -0.0950 0.4668 0.8793
vn 0.0112 0.4900 0.8716
vn 0.0000 0.4965 0.8680
vn -0.0762 0.8642 0.4973
vn -0.3077 0.8516 0.4243
vn -0.1244 0.8829 0.4529
vn 0.0000 0.8684 0.4959
vn 0.1244 0.8829 0.4529
vn 0.3077 0.8516 0.4243
vn 0.0762 0.8642 0.4973
vn -0.0094 0.8786 0.4775
vn 0.0000 0.8680 0.4966
vn 0.0094 0.8786 0.4775
vn -0.7776 -0.4446 0.4446
vn -0.3546 -0.6612 0.6612
vn 0.7776 -0.4446 0.4446
vn 0.3546 -0.6612 0.6612
# 76 vertex normals

vt 0.0938 0.0532 -0.0469
vt 0.1118 0.0128 -0.0610
vt 0.1853 0.0812 -0.0612
vt 0.1350 0.0939 -0.0568
vt 0.0124 0.2304 0.0089
vt 0.0694 0.2105 0.0101
vt 0.0977 0.2436 0.0216
vt 0.0124 0.2740 0.0241
vt 0.1554 0.1770 -0.0117
vt 0.1142 0.1591 -0.0180
vt 0.0124 0.0132 -0.0610
vt 0.0124 0.0535 -0.0469
vt 0.6593 0.0084 0.3788
vt 0.5793 0.0084 0.3788
vt 0.5793 0.8618 0.3751
vt 0.6593 0.8618 0.3751
vt 0.1978 0.2349 0.2724
vt 0.1543 0.2165 0.3037
vt 0.1808 0.1792 0.2136
vt 0.2381 0.1906 0.1668
vt 0.1978 0.1407 0.1754
vt 0.2137 0.0930 0.2359
vt 0.2632 0.0831 0.2163
vt 0.2716 0.1334 0.1186
vt 0.1399 0.2728 0.6592
vt 0.1928 0.2768 0.6354
vt 0.1978 0.2349 0.6190
vt 0.1543 0.2165 0.6338
vt 0.2632 0.0831 0.4594
vt 0.2632 0.0265 0.4594
vt 0.2137 0.0265 0.4305
vt 0.2137 0.0930 0.4305
vt 0.0124 0.2084 0.0743
vt 0.0124 0.0712 0.0238
vt 0.0845 0.0712 0.0238
vt 0.0940 0.1585 0.0559
vt 0.1103 0.1175 0.0408
vt 0.0557 0.1956 0.0696
vt 0.7487 0.0084 0.0005
vt 0.6593 0.0084 0.1738
vt 0.6593 0.8618 0.1738
vt 0.7487 0.8618 0.0005
vt 0.0938 0.0532 1.0595
vt 0.1350 0.0939 1.0697
vt 0.1853 0.0812 1.0741
vt 0.1118 0.0128 1.0733
vt 0.0124 0.2304 1.0050
vt 0.0124 0.2740 0.9901
vt 0.0977 0.2436 0.9923
vt 0.0694 0.2105 1.0037
vt 0.1142 0.1591 1.0314
vt 0.1554 0.1770 1.0252
vt 0.0124 0.0132 1.0733
vt 0.0124 0.0535 1.0595
vt 0.1398 0.2728 0.6560
vt 0.1543 0.2165 0.6306
vt 0.1978 0.2349 0.6162
vt 0.1928 0.2768 0.6326
vt 0.2631 0.0831 0.4563
vt 0.2137 0.0930 0.4269
vt 0.2137 0.0265 0.4269
vt 0.2631 0.0265 0.4563
vt 0.0124 0.2084 0.9395
vt 0.0557 0.1956 0.9441
vt 0.0940 0.1585 0.9575
vt 0.0845 0.0712 0.9890
vt 0.1103 0.1175 0.9723
vt 0.0124 0.0712 0.9890
vt 0.8417 0.0447 0.0700
vt 0.8417 0.8243 0.0700
vt 0.4161 0.0459 0.9300
vt 0.5091 0.0084 0.9995
vt 0.5091 0.8618 0.9995
vt 0.4161 0.8254 0.9300
vt 0.3390 0.8254 0.5875
vt 0.3390 0.0458 0.5908
vt 0.4161 0.0459 0.6183
vt 0.4161 0.8254 0.6149
vt 0.3168 0.3336 -0.0117
vt 0.3150 0.2239 -0.0612
vt 0.2360 0.2239 -0.0611
vt 0.2378 0.3336 -0.0116
vt 0.5793 0.0084 0.4673
vt 0.5793 0.8618 0.4636
vt 0.5091 0.8618 0.4911
vt 0.5091 0.0084 0.4948
vt 0.3168 0.3336 1.0252
vt 0.2378 0.3336 1.0253
vt 0.2360 0.2239 1.0741
vt 0.3150 0.2239 1.0741
vt 0.1855 0.5925 0.5011
vt 0.2201 0.6341 0.7879
vt 0.2062 0.6872 1.3958
vt 0.1792 0.7239 1.8125
vt 0.0719 0.6872 1.3958
vt 0.0580 0.6341 0.7879
vt 0.0926 0.5925 0.5011
vt 0.0989 0.7239 1.8125
vt 0.1391 0.5925 0.5011
vt 0.1391 0.7420 1.9493
vt 0.1855 0.5925 4.7170
vt 0.2201 0.6341 5.0080
vt 0.2062 0.6872 5.2074
vt 0.1391 0.5925 4.7170
vt 0.0719 0.6872 5.2074
vt 0.0580 0.6341 5.0080
vt 0.0926 0.5925 4.7170
vt 0.0989 0.7239 5.3489
vt 0.1391 0.7420 5.4660
vt 0.1792 0.7239 5.3489
vt 0.7433 0.5849 0.7879
vt 0.7106 0.5849 0.7879
vt 0.7106 0.8577 5.0080
vt 0.7433 0.8577 5.0080
vt 0.9136 0.0724 0.2053
vt 0.9136 0.8003 0.2053
vt 0.9877 0.0724 0.7151
vt 0.9877 0.8003 0.7120
vt 0.9136 0.8003 0.6731
vt 0.9136 0.0724 0.6762
# 120 texture coords

g 对象001
usemtl 02___Default
s off
f 47/113/17 48/114/17 49/115/17 50/116/17 
f 51/117/18 52/118/18 53/119/18 54/120/18 
f 50/116/19 49/115/19 55/121/19 56/122/19 
f 57/123/20 48/114/20 47/113/20 58/124/20 
f 55/121/21 53/119/21 52/118/21 56/122/21 
f 48/125/22 57/126/22 59/127/22 60/128/22 
f 52/129/23 61/130/23 62/131/23 56/132/23 
f 63/133/24 64/134/24 47/135/24 50/136/24 
f 51/137/25 65/138/25 61/139/25 52/140/25 
f 56/132/26 62/131/26 63/133/26 50/136/26 
f 64/141/27 66/142/27 58/143/27 47/144/27 
f 65/145/28 66/146/28 64/147/28 62/148/28 
f 64/147/29 63/149/29 62/148/29 
f 65/145/29 62/148/29 61/150/29 
f 49/151/30 48/152/30 60/153/30 67/154/30 
f 68/155/31 69/156/31 67/157/31 60/158/31 
f 70/159/32 71/160/32 72/161/32 73/162/32 
f 69/156/33 74/163/33 75/164/33 67/157/33 
f 59/165/34 76/166/34 68/155/34 60/158/34 
f 75/164/35 74/163/35 73/162/35 72/161/35 
f 73/129/36 74/132/36 77/131/36 78/130/36 
f 79/133/37 69/136/37 68/135/37 80/134/37 
f 70/167/38 73/168/38 78/169/38 81/170/38 
f 74/132/39 69/136/39 79/133/39 77/131/39 
f 80/171/40 68/172/40 76/173/40 82/174/40 
f 81/175/41 78/176/41 77/177/41 80/178/41 
f 77/177/42 79/179/42 80/178/42 
f 81/175/42 80/178/42 82/180/42 
f 83/113/43 84/116/43 85/115/43 86/114/43 
f 51/117/44 54/120/44 87/119/44 88/118/44 
f 84/116/45 89/122/45 90/121/45 85/115/45 
f 57/123/46 58/124/46 83/113/46 86/114/46 
f 90/121/47 89/122/47 88/118/47 87/119/47 
f 90/181/48 91/182/48 92/154/48 85/151/48 
f 86/125/49 93/128/49 59/127/49 57/126/49 
f 88/129/50 89/132/50 94/131/50 95/130/50 
f 96/133/51 84/136/51 83/135/51 97/134/51 
f 51/137/52 88/140/52 95/139/52 65/138/52 
f 89/132/53 84/136/53 96/133/53 94/131/53 
f 97/141/27 83/144/27 58/143/27 66/142/27 
f 65/145/29 95/150/29 94/148/29 97/147/29 
f 94/148/28 96/149/28 97/147/28 
f 65/145/29 97/147/29 66/146/29 
f 85/151/54 92/154/54 93/153/54 86/152/54 
f 98/155/55 93/158/55 92/157/55 99/156/55 
f 70/159/56 100/162/56 101/161/56 71/160/56 
f 99/156/57 92/157/57 91/164/57 102/163/57 
f 59/165/58 93/158/58 98/155/58 76/166/58 
f 91/164/59 101/161/59 100/162/59 102/163/59 
f 100/129/60 103/130/60 104/131/60 102/132/60 
f 105/133/61 106/134/61 98/135/61 99/136/61 
f 70/167/62 81/170/62 103/169/62 100/168/62 
f 102/132/63 104/131/63 105/133/63 99/136/63 
f 106/171/40 82/174/40 76/173/40 98/172/40 
f 81/175/41 82/180/41 106/178/41 104/177/41 
f 106/178/42 105/179/42 104/177/42 
f 81/175/64 104/177/64 103/176/64 
f 107/183/65 108/184/65 109/185/65 110/186/65 
f 75/187/66 55/188/66 107/189/66 110/190/66 
f 55/191/67 49/192/67 108/193/67 107/194/67 
f 49/195/68 67/196/68 109/197/68 108/198/68 
f 75/199/69 110/200/69 109/201/69 67/202/69 
s 1
f 111/203/70 112/204/71 113/205/72 114/206/73 
f 115/207/74 116/208/75 117/209/76 118/210/77 
f 118/210/77 117/209/76 119/211/20 120/212/78 
f 114/206/73 120/212/78 119/211/20 111/203/70 
f 121/213/79 122/214/80 123/215/81 124/216/82 
f 125/217/83 126/218/84 127/219/85 124/216/82 
f 128/220/86 125/217/83 124/216/82 129/221/87 
f 130/222/88 129/221/87 124/216/82 123/215/81 
s off
f 112/223/49 116/224/49 126/225/49 122/226/49 
f 131/227/89 55/181/89 75/182/89 72/228/89 
f 54/229/90 131/227/90 72/228/90 71/230/90 
f 132/227/91 101/228/91 91/182/91 90/181/91 
f 54/229/92 71/230/92 101/231/92 132/232/92 
# 67 polygons - 8 triangles

