# Blender v2.75 (sub 0) OBJ File: 'PDA.blend'
# www.blender.org
mtllib PDA.mtl
o Cube
v -0.930608 1.929149 -0.401432
v -0.930608 3.355071 -0.681172
v 0.939699 3.355071 -0.681172
v 0.939699 1.929148 -0.401432
v -1.068912 1.837734 -0.221790
v -1.068910 3.507585 -0.549384
v 1.078002 3.507584 -0.549384
v 1.078002 1.837733 -0.221789
v -1.204056 1.676806 -0.267278
v -1.204056 3.639396 -0.652303
v 1.213147 1.676806 -0.267278
v 1.213148 3.639395 -0.652303
v -1.204057 1.698943 -0.154442
v -1.204056 3.661533 -0.539467
v 1.213147 1.698943 -0.154442
v 1.213148 3.661532 -0.539467
v -1.095973 1.805005 -0.175250
v -1.095972 3.555470 -0.518660
v 1.105063 1.805005 -0.175250
v 1.105064 3.555470 -0.518659
v 1.033706 3.732677 -0.621906
v 1.033707 3.736414 -0.602856
v 0.993907 3.732677 -0.621906
v 0.993908 3.736414 -0.602856
v 0.983691 3.730710 -0.631931
v 1.043923 3.730710 -0.631931
v 0.983691 3.738381 -0.592830
v 1.043923 3.738381 -0.592830
v 0.993910 4.660611 -0.803952
v 1.033708 4.660611 -0.803952
v 0.993910 4.664348 -0.784902
v 1.033709 4.664348 -0.784902
vt 0.433089 0.465097
vt 0.747750 0.465097
vt 0.747750 0.870272
vt 0.433089 0.870272
vt 0.433089 0.000000
vt 0.801579 0.000000
vt 0.801579 0.465097
vt 0.086785 0.956922
vt 0.061886 0.956922
vt 0.061885 0.523652
vt 0.086785 0.523652
vt 0.149612 0.564743
vt 0.157747 0.523652
vt 0.166375 0.523652
vt 0.174511 0.564743
vt 0.111685 0.956922
vt 0.111685 0.523652
vt 0.772650 0.465097
vt 0.772650 0.988749
vt 0.747750 0.988749
vt 0.061885 0.582890
vt 0.061885 0.897683
vt 0.000000 0.956922
vt 0.000000 0.523652
vt 0.945019 0.059238
vt 0.945019 0.464413
vt 0.883134 0.523651
vt 0.883134 0.000000
vt 0.801579 0.461361
vt 0.818798 0.056553
vt 0.883134 0.474372
vt 0.882579 0.487409
vt 0.860880 0.523178
vt 0.863464 0.582417
vt 0.863464 0.897210
vt 0.801579 0.956449
vt 0.801579 0.523178
vt 0.023405 0.500237
vt 0.409684 0.500237
vt 0.433089 0.523651
vt 0.023405 0.023415
vt 0.000000 0.000000
vt 0.987680 0.023415
vt 0.987680 0.500237
vt 0.964472 0.523651
vt 0.945019 0.486991
vt 0.945019 0.473943
vt 0.964472 0.000000
vt 0.409684 0.023415
vt 0.122030 0.901194
vt 0.122030 0.532550
vt 0.132375 0.523652
vt 0.132375 0.910093
vt 0.987680 0.470960
vt 0.987680 0.005862
vt 1.000000 0.000000
vt 1.000000 0.476822
vt 0.875785 0.529041
vt 0.875785 0.994138
vt 0.863464 1.000000
vt 0.863464 0.523178
vt 0.111685 0.901194
vt 0.111685 0.532550
vt 0.122030 0.523652
vt 0.122030 0.910092
vt 0.772650 0.939403
vt 0.780782 0.465097
vt 0.789411 0.465097
vt 0.797550 0.939403
vt 0.178715 0.523652
vt 0.182919 0.523652
vt 0.182919 0.728507
vt 0.178715 0.728507
vt 0.189335 0.534487
vt 0.189335 0.525865
vt 0.191547 0.523652
vt 0.191547 0.536700
vt 0.185131 0.525865
vt 0.185131 0.534487
vt 0.182919 0.536700
vt 0.195751 0.523652
vt 0.195751 0.532273
vt 0.191547 0.532273
vt 0.140993 0.523652
vt 0.140993 0.728507
vt 0.132375 0.728507
vt 0.174511 0.728507
vt 0.174511 0.523652
vt 0.149611 0.523652
vt 0.149612 0.728507
vn -0.000000 -0.192500 -0.981300
vn -0.000000 0.192500 0.981300
vn -1.000000 0.000000 0.000000
vn 0.451700 0.875500 -0.171800
vn 1.000000 -0.000000 -0.000000
vn -0.000000 -0.981300 0.192500
vn -0.290700 -0.184200 -0.938900
vn -0.000000 -0.469400 -0.883000
vn 0.000000 0.119700 -0.992800
vn 0.290700 -0.184200 -0.938900
vn 0.000000 0.318200 0.948000
vn 0.824100 0.109100 0.555900
vn 0.000000 0.818000 0.575200
vn -0.000000 -0.540000 0.841700
vn -0.824100 0.109100 0.555900
vn -0.039100 0.980500 -0.192400
usemtl æè´¨
s off
f 1/1/1 2/2/1 3/3/1 4/4/1
f 5/1/2 8/5/2 7/6/2 6/7/2
f 9/8/3 13/9/3 14/10/3 10/11/3
f 12/12/4 26/13/4 28/14/4 16/15/4
f 12/16/5 16/8/5 15/11/5 11/17/5
f 13/2/6 9/18/6 11/19/6 15/20/6
f 2/21/7 1/22/7 9/23/7 10/24/7
f 1/25/8 4/26/8 11/27/8 9/28/8
f 3/29/9 2/30/9 10/28/9 25/31/9 26/32/9 12/33/9
f 4/34/10 3/35/10 12/36/10 11/37/10
f 17/38/2 18/39/2 14/40/2 13/24/2
f 19/41/2 17/38/2 13/24/2 15/42/2
f 18/43/11 20/44/11 16/45/11 28/46/11 27/47/11 14/48/11
f 20/49/2 19/41/2 15/42/2 16/5/2
f 5/50/12 6/51/12 18/52/12 17/53/12
f 8/54/13 5/55/13 17/56/13 19/57/13
f 6/58/14 7/59/14 20/60/14 18/61/14
f 7/62/15 8/63/15 19/64/15 20/65/15
f 14/66/16 27/67/16 25/68/16 10/69/16
f 24/70/5 23/71/5 29/72/5 31/73/5
f 21/74/6 23/75/6 25/76/6 26/77/6
f 24/78/6 22/79/6 28/80/6 27/71/6
f 22/79/6 21/74/6 26/77/6 28/80/6
f 23/75/6 24/78/6 27/71/6 25/76/6
f 31/76/6 29/81/6 30/82/6 32/83/6
f 22/52/1 24/84/1 31/85/1 32/86/1
f 21/73/3 22/87/3 32/88/3 30/70/3
f 23/84/2 21/89/2 30/90/2 29/85/2
