# Wavefront OBJ exported by MilkShape 3D

v 0.405900 1.837278 -1.028901
v 0.405900 5.589180 2.722999
v 0.753100 5.413680 3.154698
v 0.753100 1.405678 -0.853400
v -0.109100 1.984578 -1.157901
v -0.109100 5.718179 2.575799
v 0.377900 0.702078 -0.418000
v 0.628200 0.851178 -0.645100
v 0.931200 0.776478 -0.604300
v 0.486700 0.464178 -0.288100
v -0.109100 1.727678 -1.017501
v 0.233900 1.642178 -0.922300
v 0.504600 1.299978 -0.795700
v -0.109100 0.464178 -0.288100
v -0.109100 0.702078 -0.418000
v 0.486700 4.848380 4.096198
v -0.109100 4.848380 4.096198
v 0.384700 1.599078 -0.523300
v 0.153800 1.820678 -0.640200
v 0.482800 1.354278 -0.394200
v 0.327400 1.078378 -0.248700
v -0.109100 1.896878 -0.680400
v -0.109100 1.078378 -0.248700
v 0.931200 5.164579 3.783798
v 0.377900 4.978280 3.858298
v 0.628200 5.205379 3.709098
v -0.109100 5.577879 2.832698
v 0.233900 5.482679 2.918198
v 0.504600 5.355979 3.260298
v -0.109100 4.978280 3.858298
v 0.153800 5.200479 2.739699
v 0.384700 5.083580 2.961298
v 0.482800 4.954480 3.205998
v 0.327400 4.808980 3.481898
v -0.109100 5.240679 2.663499
v -0.109100 4.808980 3.481898
v -0.624100 1.837278 -1.028901
v -0.971200 1.405678 -0.853400
v -0.971200 5.413680 3.154698
v -0.624100 5.589180 2.722999
v -0.596000 0.702078 -0.418000
v -0.704900 0.464178 -0.288100
v -1.149300 0.776478 -0.604300
v -0.846400 0.851178 -0.645100
v -0.452100 1.642178 -0.922300
v -0.722800 1.299978 -0.795700
v -1.149300 5.164579 3.783798
v -0.704900 4.848380 4.096198
v -0.371900 1.820678 -0.640200
v -0.602800 1.599078 -0.523300
v -0.700900 1.354278 -0.394200
v -0.545600 1.078378 -0.248700
v -0.596000 4.978280 3.858298
v -0.846400 5.205379 3.709098
v -0.452100 5.482679 2.918198
v -0.722800 5.355979 3.260298
v -0.602800 5.083580 2.961298
v -0.371900 5.200479 2.739699
v -0.700900 4.954480 3.205998
v -0.545600 4.808980 3.481898
v 1.195800 1.503278 -0.949100
v 1.265100 5.511179 3.058398
v 1.454100 5.262179 3.684298
v 1.378100 0.874078 -0.703100
v 1.104800 5.599080 3.579598
v 1.345600 5.355380 3.450598
v 1.310300 5.404779 3.325898
v 1.069400 5.648679 3.454398
v 0.828500 5.308179 3.420998
v 0.864100 5.258379 3.546798
v -0.258800 3.064478 2.666899
v -0.258800 2.862578 2.287999
v -0.258800 0.372078 2.983498
v -0.258800 0.372078 3.362398
v 0.122200 3.064478 2.666899
v 0.122200 0.372078 3.362398
v 0.122200 0.372078 2.983498
v 0.122200 2.862578 2.287999
v -0.816000 0.000478 3.912698
v -0.816000 0.220078 3.912698
v -0.816000 0.220078 2.433099
v -0.816000 0.000478 2.433099
v 0.671400 0.000478 2.433099
v 0.671400 0.000478 3.912698
v 0.671400 0.220078 3.912698
v 0.671400 0.220078 2.433099
v 0.201100 3.574178 2.672499
v 0.201100 3.187978 2.799699
v 0.201100 2.539678 2.282399
v 0.201100 2.925878 2.155199
v -0.345600 3.574178 2.672499
v -0.345600 3.187978 2.799699
v -0.345600 2.925878 2.155199
v -0.345600 2.539678 2.282399
v -0.286000 0.220078 2.956798
v -0.286000 0.372078 2.956798
v 0.148500 0.372078 2.956798
v 0.148500 0.220078 2.956798
v 0.148500 0.372078 3.388998
v 0.148500 0.220078 3.388998
v -0.286000 0.372078 3.388998
v -0.286000 0.220078 3.388998
v 0.927700 0.000578 1.012000
v 0.927700 0.000578 -0.988001
v 0.927700 0.571578 -0.988001
v 0.927700 0.571578 1.012000
v -1.072300 0.000578 1.012000
v -1.072300 0.571578 1.012000
v -1.072300 0.000578 -0.988001
v -1.072300 0.571578 -0.988001
# 110 vertices

vt 0.913600 0.072400
vt 0.913600 0.800300
vt 0.841700 0.824300
vt 0.841700 0.044700
vt 0.987700 0.072400
vt 0.987700 0.800300
vt 0.093800 0.053200
vt 0.135000 0.093900
vt 0.185300 0.081200
vt 0.111800 0.012800
vt 0.012400 0.230400
vt 0.012400 0.274000
vt 0.097700 0.243600
vt 0.069400 0.210500
vt 0.114200 0.159100
vt 0.155400 0.177000
vt 0.012400 0.013200
vt 0.012400 0.053500
vt 0.659300 0.008400
vt 0.659300 0.861800
vt 0.579300 0.861800
vt 0.579300 0.008400
vt 0.197800 0.234900
vt 0.238100 0.190600
vt 0.180800 0.179200
vt 0.154300 0.216500
vt 0.197800 0.140700
vt 0.271600 0.133400
vt 0.263200 0.083100
vt 0.213700 0.093000
vt 0.139900 0.272800
vt 0.192800 0.276800
vt 0.213700 0.026500
vt 0.263200 0.026500
vt 0.012400 0.208400
vt 0.055700 0.195600
vt 0.094000 0.158500
vt 0.084500 0.071200
vt 0.110300 0.117500
vt 0.012400 0.071200
vt 0.748700 0.008400
vt 0.748700 0.861800
vt 0.416100 0.045900
vt 0.416100 0.825400
vt 0.509100 0.861800
vt 0.509100 0.008400
vt 0.339000 0.825400
vt 0.339000 0.045800
vt 0.316800 0.333600
vt 0.237800 0.333600
vt 0.236000 0.223900
vt 0.315000 0.223900
vt 0.247200 0.215400
vt 0.319600 0.215500
vt 0.319400 0.191800
vt 0.247000 0.191600
vt 0.693200 0.874300
vt 0.665900 0.925400
vt 0.329800 0.925300
vt 0.329800 0.874200
vt 0.332100 0.934500
vt 0.332100 0.985900
vt 0.694900 0.985900
vt 0.694900 0.934500
vt 0.669000 0.985900
vt 0.669000 0.934500
vt 0.266100 0.784500
vt 0.295700 0.784500
vt 0.295700 0.984700
vt 0.266000 0.984700
vt 0.034200 0.552600
vt 0.206900 0.552600
vt 0.206900 0.380800
vt 0.034200 0.380800
vt 0.251200 0.513900
vt 0.297400 0.484200
vt 0.298300 0.372300
vt 0.252100 0.401900
vt 0.111100 0.289200
vt 0.058900 0.289200
vt 0.058900 0.363000
vt 0.111100 0.363000
vt 0.109000 0.289200
vt 0.056800 0.289200
vt 0.056800 0.363000
vt 0.109000 0.363000
vt 0.196500 0.363000
vt 0.196500 0.289200
vt 0.271000 0.649500
vt 0.271000 0.667200
vt 0.321500 0.667200
vt 0.321500 0.649500
vt 0.304200 0.927500
vt 0.324700 0.927500
vt 0.324700 0.869200
vt 0.304200 0.869200
vt 0.271000 0.717400
vt 0.321500 0.717400
vt 0.715700 0.875300
vt 0.985700 0.875300
vt 0.985700 0.952400
vt 0.715700 0.952400
vt 0.257000 0.804400
vt 0.024700 0.804400
vt 0.024700 0.572200
vt 0.257000 0.572200
# 106 texture coordinates

vn 0.435567 0.022551 -0.899874
vn 0.340900 0.937571 -0.068898
vn 0.082117 0.996609 0.005302
vn 0.013465 -0.172967 -0.984836
vn 0.000000 0.358769 -0.933426
vn 0.000000 0.992939 -0.118625
vn -0.309655 -0.266737 -0.912669
vn -0.452552 -0.398264 -0.797861
vn 0.329929 -0.923785 -0.194339
vn 0.169011 -0.982875 0.073425
vn 0.000017 -0.954327 -0.298764
vn -0.443720 -0.793813 -0.415900
vn -0.747143 -0.504615 -0.432598
vn 0.000000 -0.846333 -0.532654
vn 0.000000 0.125354 -0.992112
vn 0.406176 -0.004017 0.913786
vn 0.000000 0.142314 0.989822
vn -0.554065 -0.668372 -0.496277
vn -0.438313 -0.896908 0.058623
vn -0.826983 -0.198936 -0.525855
vn -0.156744 -0.083473 -0.984106
vn 0.000017 -0.710517 -0.703680
vn 0.000000 -0.031281 -0.999511
vn 0.152244 0.538478 0.828772
vn -0.309622 0.912684 0.266724
vn -0.452563 0.797866 0.398242
vn 0.000017 0.299011 0.954250
vn -0.443607 0.416045 0.793801
vn -0.747097 0.432544 0.504729
vn 0.000000 0.992121 -0.125285
vn -0.438292 -0.058534 0.896925
vn -0.553992 0.496270 0.668437
vn -0.826961 0.525864 0.199005
vn -0.156712 0.984104 0.083551
vn 0.000017 0.703663 0.710534
vn 0.000000 0.999508 0.031356
vn -0.435609 0.022519 -0.899854
vn -0.484429 -0.127787 -0.865447
vn -0.440202 0.894462 0.078482
vn -0.340920 0.937565 -0.068884
vn 0.309678 -0.266745 -0.912659
vn -0.169043 -0.982870 0.073417
vn -0.582915 -0.686195 -0.435139
vn 0.452483 -0.398248 -0.797908
vn 0.443682 -0.793794 -0.415977
vn 0.747060 -0.504632 -0.432722
vn -0.633234 0.608422 0.478370
vn -0.406232 -0.003990 0.913761
vn 0.438323 -0.896910 0.058525
vn 0.553996 -0.668363 -0.496366
vn 0.826952 -0.198965 -0.525894
vn 0.156800 -0.083473 -0.984097
vn 0.309644 0.912674 0.266732
vn 0.452494 0.797913 0.398225
vn 0.443568 0.416122 0.793782
vn 0.747014 0.432668 0.504746
vn 0.553924 0.496359 0.668428
vn 0.438301 -0.058437 0.896926
vn 0.826929 0.525902 0.199035
vn 0.156768 0.984095 0.083551
vn 0.382721 0.416631 -0.824587
vn 0.306312 0.917150 -0.254968
vn 0.764070 0.288522 0.577021
vn 0.483079 -0.595579 -0.641810
vn -0.027585 0.926682 0.374832
vn 0.726833 0.683722 0.065102
vn -0.762076 0.498639 0.413036
vn -0.894427 0.111852 0.433000
vn -0.447214 -0.240574 -0.861466
vn -0.894427 -0.120287 -0.430733
vn -0.447214 0.223705 0.866000
vn 0.707107 0.176854 0.684633
vn 0.707107 -0.190190 -0.681049
vn -0.816497 -0.408248 0.408248
vn -0.408248 0.408248 0.816497
vn -0.666667 0.666667 -0.333333
vn -0.333333 -0.666667 -0.666667
vn 0.816497 -0.408248 -0.408248
vn 0.333333 -0.666667 0.666667
vn 0.666667 0.666667 0.333333
vn 0.408248 0.408248 -0.816497
vn 0.894427 0.139903 0.424767
vn 0.273399 -0.169987 0.946761
vn 0.903012 -0.422853 -0.075922
vn 0.447214 -0.279804 -0.849535
vn -0.447214 0.279806 0.849534
vn -0.750871 -0.116714 0.650054
vn -0.894427 -0.139902 -0.424767
vn -0.465165 -0.871291 -0.156438
vn -0.447214 0.000000 -0.894427
vn -0.816497 0.408248 -0.408248
vn 0.333333 0.666667 -0.666667
vn 0.894427 0.000000 -0.447214
vn 0.816497 0.408248 0.408248
vn 0.447214 0.000000 0.894427
vn -0.333333 0.666667 0.666667
vn -0.894427 0.000000 0.447214
vn 0.816497 -0.408248 0.408248
vn 0.408248 -0.816497 -0.408248
vn 0.666667 0.333333 -0.666667
vn 0.333333 0.666667 0.666667
vn -0.333333 -0.666667 0.666667
vn -0.816497 0.408248 0.408248
vn -0.666667 -0.333333 -0.666667
vn -0.408248 0.816497 -0.408248
# 105 normals

g develop
s 1
f 1/1/1 2/2/2 3/3/3
f 1/1/1 3/3/3 4/4/4
f 5/5/5 6/6/6 2/2/2
f 5/5/5 2/2/2 1/1/1
f 7/7/7 8/8/8 9/9/9
f 7/7/7 9/9/9 10/10/10
f 11/11/11 5/12/5 1/13/1
f 11/11/11 1/13/1 12/14/12
f 8/8/8 13/15/13 4/16/4
f 8/8/8 4/16/4 9/9/9
f 14/17/14 15/18/15 7/7/7
f 14/17/14 7/7/7 10/10/10
f 4/16/4 13/15/13 12/14/12
f 4/16/4 12/14/12 1/13/1
f 10/19/10 16/20/16 17/21/17
f 10/19/10 17/21/17 14/22/14
f 12/23/12 13/24/13 18/25/18
f 12/23/12 18/25/18 19/26/19
f 20/27/20 8/28/8 7/29/7
f 20/27/20 7/29/7 21/30/21
f 11/31/11 12/26/12 19/23/19
f 11/31/11 19/23/19 22/32/22
f 13/24/13 8/28/8 20/27/20
f 13/24/13 20/27/20 18/25/18
f 21/29/21 7/30/7 15/33/15
f 21/29/21 15/33/15 23/34/23
f 22/35/22 19/36/19 18/37/18
f 22/35/22 18/37/18 21/38/21
f 18/37/18 20/39/20 21/38/21
f 22/35/22 21/38/21 23/40/23
f 9/41/9 24/42/24 16/20/16
f 9/41/9 16/20/16 10/19/10
f 25/7/25 16/10/16 24/9/24
f 25/7/25 24/9/24 26/8/26
f 27/11/27 28/14/28 2/13/2
f 27/11/27 2/13/2 6/12/6
f 26/8/26 24/9/24 3/16/3
f 26/8/26 3/16/3 29/15/29
f 17/17/17 16/10/16 25/7/25
f 17/17/17 25/7/25 30/18/30
f 3/16/3 2/13/2 28/14/28
f 3/16/3 28/14/28 29/15/29
f 28/23/28 31/26/31 32/25/32
f 28/23/28 32/25/32 29/24/29
f 33/27/33 34/30/34 25/29/25
f 33/27/33 25/29/25 26/28/26
f 27/31/27 35/32/35 31/23/31
f 27/31/27 31/23/31 28/26/28
f 29/24/29 32/25/32 33/27/33
f 29/24/29 33/27/33 26/28/26
f 34/29/34 36/34/36 30/33/30
f 34/29/34 30/33/30 25/30/25
f 35/35/35 36/40/36 34/38/34
f 35/35/35 34/38/34 32/37/32
f 34/38/34 33/39/33 32/37/32
f 35/35/35 32/37/32 31/36/31
f 37/1/37 38/4/38 39/3/39
f 37/1/37 39/3/39 40/2/40
f 5/5/5 37/1/37 40/2/40
f 5/5/5 40/2/40 6/6/6
f 41/7/41 42/10/42 43/9/43
f 41/7/41 43/9/43 44/8/44
f 11/11/11 45/14/45 37/13/37
f 11/11/11 37/13/37 5/12/5
f 44/8/44 43/9/43 38/16/38
f 44/8/44 38/16/38 46/15/46
f 14/17/14 42/10/42 41/7/41
f 14/17/14 41/7/41 15/18/15
f 38/16/38 37/13/37 45/14/45
f 38/16/38 45/14/45 46/15/46
f 38/4/38 43/41/43 47/42/47
f 38/4/38 47/42/47 39/3/39
f 42/19/42 14/22/14 17/21/17
f 42/19/42 17/21/17 48/20/48
f 45/23/45 49/26/49 50/25/50
f 45/23/45 50/25/50 46/24/46
f 51/27/51 52/30/52 41/29/41
f 51/27/51 41/29/41 44/28/44
f 11/31/11 22/32/22 49/23/49
f 11/31/11 49/23/49 45/26/45
f 46/24/46 50/25/50 51/27/51
f 46/24/46 51/27/51 44/28/44
f 52/29/52 23/34/23 15/33/15
f 52/29/52 15/33/15 41/30/41
f 22/35/22 23/40/23 52/38/52
f 22/35/22 52/38/52 50/37/50
f 52/38/52 51/39/51 50/37/50
f 22/35/22 50/37/50 49/36/49
f 43/41/43 42/19/42 48/20/48
f 43/41/43 48/20/48 47/42/47
f 53/7/53 54/8/54 47/9/47
f 53/7/53 47/9/47 48/10/48
f 27/11/27 6/12/6 40/13/40
f 27/11/27 40/13/40 55/14/55
f 54/8/54 56/15/56 39/16/39
f 54/8/54 39/16/39 47/9/47
f 17/17/17 30/18/30 53/7/53
f 17/17/17 53/7/53 48/10/48
f 39/16/39 56/15/56 55/14/55
f 39/16/39 55/14/55 40/13/40
f 55/23/55 56/24/56 57/25/57
f 55/23/55 57/25/57 58/26/58
f 59/27/59 54/28/54 53/29/53
f 59/27/59 53/29/53 60/30/60
f 27/31/27 55/26/55 58/23/58
f 27/31/27 58/23/58 35/32/35
f 56/24/56 54/28/54 59/27/59
f 56/24/56 59/27/59 57/25/57
f 60/29/60 53/30/53 30/33/30
f 60/29/60 30/33/30 36/34/36
f 35/35/35 58/36/58 57/37/57
f 35/35/35 57/37/57 60/38/60
f 57/37/57 59/39/59 60/38/60
f 35/35/35 60/38/60 36/40/36
f 61/43/61 62/44/62 63/45/63
f 61/43/61 63/45/63 64/46/64
f 3/47/3 62/44/62 61/43/61
f 3/47/3 61/43/61 4/48/4
f 4/49/4 61/50/61 64/51/64
f 4/49/4 64/51/64 9/52/9
f 9/22/9 64/46/64 63/45/63
f 9/22/9 63/45/63 24/21/24
f 3/49/3 24/52/24 63/51/63
f 3/49/3 63/51/63 62/50/62
f 65/53/65 66/54/66 67/55/66
f 65/53/65 67/55/66 68/56/65
f 65/55/65 68/54/65 69/53/67
f 65/55/65 69/53/67 70/56/67
f 71/57/68 72/58/69 73/59/70
f 71/57/68 73/59/70 74/60/71
f 75/57/72 76/60/72 77/59/73
f 75/57/72 77/59/73 78/58/73
f 74/61/71 76/62/72 75/63/72
f 74/61/71 75/63/72 71/64/68
f 72/65/69 78/66/73 77/61/73
f 72/65/69 77/61/73 73/62/70
f 79/67/74 80/68/75 81/69/76
f 79/67/74 81/69/76 82/70/77
f 82/71/77 83/72/78 84/73/79
f 82/71/77 84/73/79 79/74/74
f 84/70/79 85/69/80 80/68/75
f 84/70/79 80/68/75 79/67/74
f 83/70/78 86/69/81 85/68/80
f 83/70/78 85/68/80 84/67/79
f 82/70/77 81/69/76 86/68/81
f 82/70/77 86/68/81 83/67/78
f 85/74/80 86/71/81 81/72/76
f 85/74/80 81/72/76 80/73/75
f 87/75/82 88/76/83 89/77/84
f 87/75/82 89/77/84 90/78/85
f 91/79/86 92/80/87 88/81/83
f 91/79/86 88/81/83 87/82/82
f 93/78/88 94/77/89 92/76/87
f 93/78/88 92/76/87 91/75/86
f 90/83/85 89/84/84 94/85/89
f 90/83/85 94/85/89 93/86/88
f 88/87/83 92/88/87 94/83/89
f 88/87/83 94/83/89 89/86/84
f 95/89/90 96/90/91 97/91/92
f 95/89/90 97/91/92 98/92/93
f 98/93/93 97/94/92 99/95/94
f 98/93/93 99/95/94 100/96/95
f 100/89/95 99/90/94 101/91/96
f 100/89/95 101/91/96 102/92/97
f 102/96/97 101/95/96 96/94/91
f 102/96/97 96/94/91 95/93/90
f 97/97/92 96/98/91 101/91/96
f 97/97/92 101/91/96 99/90/94
f 103/99/98 104/100/99 105/101/100
f 103/99/98 105/101/100 106/102/101
f 107/99/102 103/100/98 106/101/101
f 107/99/102 106/101/101 108/102/103
f 104/103/99 103/104/98 107/105/102
f 104/103/99 107/105/102 109/106/104
f 106/105/101 105/106/100 110/103/105
f 106/105/101 110/103/105 108/104/103
f 109/99/104 107/100/102 108/101/103
f 109/99/104 108/101/103 110/102/105
f 105/102/100 104/99/99 109/100/104
f 105/102/100 109/100/104 110/101/105
# 180 triangles in group

# 180 triangles total

