# 3ds Max Wavefront OBJ Exporter v0.97b - (c)2007 guruware
# 创建的文件:04.09.2015 23:05:40

mtllib 能力开发机模型\developer_normal.mtl

#
# object develop
#

v  0.4059 1.8970 -2.5039
v  0.7531 1.4654 -2.3283
v  0.7531 5.4734 1.6796
v  0.4059 5.6489 1.2480
v  -0.1091 2.0443 -2.6328
v  -0.1091 5.7779 1.1008
v  0.3779 0.7618 -1.8930
v  0.4867 0.5239 -1.7631
v  0.9312 0.8362 -2.0793
v  0.6282 0.9109 -2.1201
v  -0.1091 1.7873 -2.4925
v  0.2339 1.7019 -2.3973
v  0.5046 1.3597 -2.2706
v  -0.1091 0.5239 -1.7631
v  -0.1091 0.7618 -1.8930
v  -0.1091 4.9081 2.6211
v  0.4867 4.9081 2.6211
v  0.1538 1.8804 -2.1152
v  0.3847 1.6588 -1.9983
v  0.4828 1.4140 -1.8692
v  0.3274 1.1381 -1.7237
v  -0.1091 1.9566 -2.1554
v  -0.1091 1.1381 -1.7237
v  0.9312 5.2243 2.3088
v  0.3779 5.0380 2.3833
v  0.6282 5.2651 2.2341
v  -0.1091 5.6376 1.3577
v  0.2339 5.5424 1.4432
v  0.5046 5.4157 1.7853
v  -0.1091 5.0380 2.3833
v  0.3847 5.1433 1.4863
v  0.1538 5.2602 1.2647
v  0.4828 5.0142 1.7310
v  0.3274 4.8687 2.0069
v  -0.1091 5.3004 1.1885
v  -0.1091 4.8687 2.0069
v  -0.6241 1.8970 -2.5039
v  -0.6241 5.6489 1.2480
v  -0.9712 5.4734 1.6796
v  -0.9712 1.4654 -2.3283
v  -0.5960 0.7618 -1.8930
v  -0.8464 0.9109 -2.1201
v  -1.1493 0.8362 -2.0793
v  -0.7049 0.5239 -1.7631
v  -0.4521 1.7019 -2.3973
v  -0.7228 1.3597 -2.2706
v  -1.1493 5.2243 2.3088
v  -0.7049 4.9081 2.6211
v  -0.6028 1.6588 -1.9983
v  -0.3719 1.8804 -2.1152
v  -0.7009 1.4140 -1.8692
v  -0.5456 1.1381 -1.7237
v  -0.5960 5.0380 2.3833
v  -0.8464 5.2651 2.2341
v  -0.4521 5.5424 1.4432
v  -0.7228 5.4157 1.7853
v  -0.3719 5.2602 1.2647
v  -0.6028 5.1433 1.4863
v  -0.7009 5.0142 1.7310
v  -0.5456 4.8687 2.0069
v  1.2342 1.5630 -2.4259
v  1.4123 0.9338 -2.1768
v  1.4123 5.3219 2.2112
v  1.2342 5.5709 1.5821
v  1.1048 5.6588 2.1046
v  1.0694 5.7084 1.9794
v  1.3103 5.4645 1.8508
v  1.3456 5.4152 1.9756
v  0.8641 5.3181 2.0718
v  0.8285 5.3679 1.9460
v  -0.2588 3.1242 1.1919
v  -0.2588 0.4319 1.8874
v  -0.2588 0.4319 1.5085
v  -0.2588 2.9223 0.8130
v  0.1222 3.1242 1.1919
v  0.1222 2.9223 0.8130
v  0.1222 0.4319 1.5085
v  0.1222 0.4319 1.8874
v  -0.8160 0.0603 2.4378
v  -0.8160 0.0602 0.9581
v  -0.8160 0.2798 0.9581
v  -0.8160 0.2798 2.4378
v  0.6714 0.0603 2.4378
v  0.6714 0.0602 0.9581
v  0.6714 0.2798 2.4378
v  0.6714 0.2798 0.9581
v  0.2011 3.6339 1.1975
v  0.2011 2.9856 0.6802
v  0.2011 2.5994 0.8074
v  0.2011 3.2477 1.3247
v  -0.3456 3.6339 1.1975
v  -0.3456 3.2477 1.3247
v  -0.3456 2.9856 0.6802
v  -0.3456 2.5994 0.8074
v  -0.2860 0.2798 1.4818
v  0.1485 0.2798 1.4818
v  0.1485 0.4319 1.4818
v  -0.2860 0.4319 1.4818
v  0.1485 0.2798 1.9141
v  0.1485 0.4319 1.9141
v  -0.2860 0.2798 1.9141
v  -0.2860 0.4319 1.9141
v  0.9277 0.0603 -0.4630
v  0.9277 0.0602 -2.4630
v  0.9277 0.6313 -2.4630
v  0.9277 0.6313 -0.4630
v  -1.0723 0.0603 -0.4630
v  -1.0723 0.6313 -0.4630
v  -1.0723 0.0602 -2.4630
v  -1.0723 0.6313 -2.4630
# 110 vertices

vn -0.7776 -0.4446 0.4446
vn -0.3546 -0.6612 0.6612
vn 0.1687 0.6342 0.7545
vn -0.0882 0.5030 0.8598
vn 0.0091 0.3499 0.9368
vn 0.0000 0.4792 0.8777
vn 0.0645 0.4073 0.9110
vn -0.0000 0.7071 -0.7071
vn 0.7743 0.5901 -0.2288
vn 0.7469 -0.1438 0.6492
vn 0.3214 0.8429 -0.4316
vn 0.9513 0.3081 0.0101
vn -0.0000 -0.4102 0.9120
vn 0.0000 0.4665 0.8845
vn -0.0000 0.4666 0.8845
vn -0.0000 0.4665 0.8845
vn -0.7071 0.5000 -0.5000
vn 0.1687 -0.7545 -0.6342
vn -0.0882 -0.8598 -0.5030
vn 0.0091 -0.9368 -0.3499
vn 0.0000 -0.8777 -0.4792
vn 0.0645 -0.9110 -0.4073
vn 0.7743 0.2288 -0.5901
vn 0.7469 -0.6492 0.1438
vn 0.3214 0.4316 -0.8429
vn 0.9513 -0.0101 -0.3081
vn 0.0000 -0.9120 0.4102
vn -0.0000 -0.8845 -0.4665
vn 0.0000 -0.8845 -0.4665
vn 0.7776 -0.4446 0.4446
vn 0.3546 -0.6612 0.6612
vn -0.1687 0.6342 0.7545
vn 0.0882 0.5030 0.8598
vn -0.0091 0.3499 0.9368
vn -0.0000 0.4792 0.8777
vn -0.0645 0.4073 0.9110
vn 0.9613 -0.1949 0.1949
vn 0.0000 0.7071 -0.7071
vn -0.7743 0.5901 -0.2288
vn -0.7469 -0.1438 0.6492
vn -0.3214 0.8429 -0.4316
vn -0.9513 0.3081 0.0101
vn 0.0000 -0.4102 0.9120
vn 0.0000 0.4666 0.8845
vn 0.7071 0.5000 -0.5000
vn -0.1687 -0.7545 -0.6342
vn 0.0882 -0.8598 -0.5030
vn -0.0091 -0.9368 -0.3499
vn -0.0000 -0.8777 -0.4792
vn -0.0645 -0.9110 -0.4073
vn -0.7743 0.2288 -0.5901
vn -0.7469 -0.6492 0.1438
vn -0.3214 0.4316 -0.8429
vn -0.9513 -0.0101 -0.3081
vn -0.0000 -0.9120 0.4102
vn -0.9613 -0.1949 0.1949
vn 0.2757 -0.6797 0.6797
vn 0.1059 0.3918 0.9139
vn -0.2757 0.6797 -0.6797
vn 0.1059 -0.9139 -0.3918
vn -0.7268 -0.6838 -0.0650
vn 0.7620 -0.4987 -0.4131
vn 1.0000 -0.0000 -0.0000
vn -1.0000 -0.0000 -0.0000
vn 0.0000 -0.2501 -0.9682
vn -0.0000 0.2690 0.9631
vn 1.0000 0.0000 -0.0000
vn 0.0000 1.0000 -0.0000
vn -0.0000 -0.0000 -1.0000
vn -1.0000 0.0000 0.0000
vn 0.0000 0.0000 1.0000
vn -0.0000 -1.0000 0.0000
vn -0.0000 -0.3129 -0.9498
vn 0.0000 0.3129 0.9498
vn -0.0000 0.6238 -0.7816
vn 1.0000 0.0000 0.0000
# 76 vertex normals

vt 0.9136 0.0724 0.2053
vt 0.8417 0.0447 0.0700
vt 0.8417 0.8243 0.0700
vt 0.9136 0.8003 0.2053
vt 0.9877 0.0724 0.7151
vt 0.9877 0.8003 0.7120
vt 0.0938 0.0532 -0.0469
vt 0.1118 0.0128 -0.0610
vt 0.1853 0.0812 -0.0612
vt 0.1350 0.0939 -0.0568
vt 0.0124 0.2304 0.0089
vt 0.0694 0.2105 0.0101
vt 0.0977 0.2436 0.0216
vt 0.0124 0.2740 0.0241
vt 0.1554 0.1770 -0.0117
vt 0.1142 0.1591 -0.0180
vt 0.0124 0.0132 -0.0610
vt 0.0124 0.0535 -0.0469
vt 0.6593 0.0084 0.3788
vt 0.5793 0.0084 0.3788
vt 0.5793 0.8618 0.3751
vt 0.6593 0.8618 0.3751
vt 0.1978 0.2349 0.2724
vt 0.1543 0.2165 0.3037
vt 0.1808 0.1792 0.2136
vt 0.2381 0.1906 0.1668
vt 0.1978 0.1407 0.1754
vt 0.2137 0.0930 0.2359
vt 0.2632 0.0831 0.2163
vt 0.2716 0.1334 0.1186
vt 0.1399 0.2728 0.6592
vt 0.1928 0.2768 0.6354
vt 0.1978 0.2349 0.6190
vt 0.1543 0.2165 0.6338
vt 0.2632 0.0831 0.4594
vt 0.2632 0.0265 0.4594
vt 0.2137 0.0265 0.4305
vt 0.2137 0.0930 0.4305
vt 0.0124 0.2084 0.0743
vt 0.0124 0.0712 0.0238
vt 0.0845 0.0712 0.0238
vt 0.0940 0.1585 0.0559
vt 0.1103 0.1175 0.0408
vt 0.0557 0.1956 0.0696
vt 0.7487 0.0084 0.0005
vt 0.6593 0.0084 0.1738
vt 0.6593 0.8618 0.1738
vt 0.7487 0.8618 0.0005
vt 0.0938 0.0532 1.0595
vt 0.1350 0.0939 1.0697
vt 0.1853 0.0812 1.0741
vt 0.1118 0.0128 1.0733
vt 0.0124 0.2304 1.0050
vt 0.0124 0.2740 0.9901
vt 0.0977 0.2436 0.9923
vt 0.0694 0.2105 1.0037
vt 0.1142 0.1591 1.0314
vt 0.1554 0.1770 1.0252
vt 0.0124 0.0132 1.0733
vt 0.0124 0.0535 1.0595
vt 0.1398 0.2728 0.6560
vt 0.1543 0.2165 0.6306
vt 0.1978 0.2349 0.6162
vt 0.1928 0.2768 0.6326
vt 0.2631 0.0831 0.4563
vt 0.2137 0.0930 0.4269
vt 0.2137 0.0265 0.4269
vt 0.2631 0.0265 0.4563
vt 0.0124 0.2084 0.9395
vt 0.0557 0.1956 0.9441
vt 0.0940 0.1585 0.9575
vt 0.0845 0.0712 0.9890
vt 0.1103 0.1175 0.9723
vt 0.0124 0.0712 0.9890
vt 0.9136 0.8003 0.6731
vt 0.9136 0.0724 0.6762
vt 0.4161 0.0459 0.9300
vt 0.5091 0.0084 0.9995
vt 0.5091 0.8618 0.9995
vt 0.4161 0.8254 0.9300
vt 0.3390 0.8254 0.5875
vt 0.3390 0.0458 0.5908
vt 0.4161 0.0459 0.6183
vt 0.4161 0.8254 0.6149
vt 0.3168 0.3336 -0.0117
vt 0.3150 0.2239 -0.0612
vt 0.2360 0.2239 -0.0611
vt 0.2378 0.3336 -0.0116
vt 0.5793 0.0084 0.4673
vt 0.5793 0.8618 0.4636
vt 0.5091 0.8618 0.4911
vt 0.5091 0.0084 0.4948
vt 0.3168 0.3336 1.0252
vt 0.2378 0.3336 1.0253
vt 0.2360 0.2239 1.0741
vt 0.3150 0.2239 1.0741
vt 0.2472 0.2154 0.8796
vt 0.2470 0.1916 0.8658
vt 0.3194 0.1918 0.9597
vt 0.3196 0.2155 0.9735
vt 0.3194 0.1918 0.8796
vt 0.2470 0.1916 0.7857
vt 0.2472 0.2154 0.7718
vt 0.3196 0.2155 0.8658
vt 0.6932 0.8743 0.4511
vt 0.3298 0.8742 0.4511
vt 0.3298 0.9253 0.4511
vt 0.6659 0.9254 0.4511
vt 0.6932 0.8743 0.5510
vt 0.6659 0.9254 0.5510
vt 0.3298 0.9253 0.5510
vt 0.3298 0.8742 0.5510
vt 0.3321 0.9345 0.1231
vt 0.6949 0.9345 0.1233
vt 0.6949 0.9859 0.1233
vt 0.3321 0.9859 0.1231
vt 0.6690 0.9859 0.2226
vt 0.3321 0.9859 0.2224
vt 0.3321 0.9345 0.2224
vt 0.6690 0.9345 0.2226
vt 0.2661 0.7845 0.3051
vt 0.2660 0.9847 0.3051
vt 0.2957 0.9847 0.3051
vt 0.2957 0.7845 0.3051
vt 0.0342 0.5526 0.0396
vt 0.0342 0.3808 0.0398
vt 0.2069 0.3808 0.0398
vt 0.2069 0.5526 0.0396
vt 0.2661 0.9847 -0.0212
vt 0.2661 0.7845 -0.0212
vt 0.2957 0.7845 -0.0212
vt 0.2957 0.9847 -0.0212
vt 0.2660 0.9847 0.6949
vt 0.2661 0.7845 0.6949
vt 0.2957 0.7845 0.6949
vt 0.2957 0.9847 0.6949
vt 0.2660 0.9847 0.3666
vt 0.2660 0.7845 0.3666
vt 0.2957 0.7845 0.3666
vt 0.2957 0.9847 0.3666
vt 0.0342 0.3808 0.0973
vt 0.2069 0.3808 0.0973
vt 0.2069 0.5526 0.0972
vt 0.0342 0.5526 0.0972
vt 0.2512 0.5139 0.5716
vt 0.2521 0.4019 0.5716
vt 0.2983 0.3723 0.5716
vt 0.2974 0.4842 0.5716
vt 0.1111 0.2892 0.1219
vt 0.1111 0.3630 0.1219
vt 0.0589 0.3630 0.0885
vt 0.0589 0.2892 0.0885
vt 0.2521 0.4019 0.4284
vt 0.2512 0.5139 0.4284
vt 0.2974 0.4842 0.4284
vt 0.2983 0.3723 0.4284
vt 0.1090 0.2892 0.2574
vt 0.1090 0.3630 0.2574
vt 0.0568 0.3630 0.2241
vt 0.0568 0.2892 0.2241
vt 0.1965 0.3630 0.0885
vt 0.1090 0.3630 0.2241
vt 0.1090 0.2892 0.2241
vt 0.1965 0.2892 0.0885
vt 0.2710 0.6495 0.2294
vt 0.3215 0.6495 0.2294
vt 0.3215 0.6672 0.2294
vt 0.2710 0.6672 0.2294
vt 0.3042 0.9275 0.5579
vt 0.3042 0.8692 0.5579
vt 0.3247 0.8692 0.5579
vt 0.3247 0.9275 0.5579
vt 0.2710 0.6495 0.1161
vt 0.3215 0.6495 0.1161
vt 0.3215 0.6672 0.1161
vt 0.2710 0.6672 0.1161
vt 0.3042 0.8692 0.4440
vt 0.3042 0.9275 0.4440
vt 0.3247 0.9275 0.4440
vt 0.3247 0.8692 0.4440
vt 0.2710 0.7174 0.1371
vt 0.2710 0.6672 0.1371
vt 0.3215 0.6672 0.1371
vt 0.3215 0.7174 0.1371
vt 0.7157 0.8753 0.7621
vt 0.9857 0.8753 0.7621
vt 0.9857 0.9524 0.7621
vt 0.7157 0.9524 0.7621
vt 0.7157 0.8753 0.5568
vt 0.9857 0.8753 0.5568
vt 0.9857 0.9524 0.5568
vt 0.7157 0.9524 0.5568
vt 0.2570 0.8044 0.0394
vt 0.0247 0.8044 0.0396
vt 0.0247 0.5722 0.0396
vt 0.2570 0.5722 0.0394
vt 0.0247 0.5722 0.1892
vt 0.2570 0.5722 0.1891
vt 0.2570 0.8044 0.1891
vt 0.0247 0.8044 0.1892
vt 0.7157 0.8753 0.2379
vt 0.9857 0.8753 0.2379
vt 0.9857 0.9524 0.2379
vt 0.7157 0.9524 0.2379
vt 0.7157 0.9524 1.0810
vt 0.7157 0.8753 1.0810
vt 0.9857 0.8753 1.0810
vt 0.9857 0.9524 1.0810
# 208 texture coords

g develop
usemtl 02___Default
s off
f 1/1/1 2/2/1 3/3/1 4/4/1 
f 5/5/2 1/1/2 4/4/2 6/6/2 
f 7/7/3 8/8/3 9/9/3 10/10/3 
f 11/11/4 12/12/4 1/13/4 5/14/4 
f 10/10/5 9/9/5 2/15/5 13/16/5 
f 14/17/6 8/8/6 7/7/6 15/18/6 
f 2/15/7 1/13/7 12/12/7 13/16/7 
f 8/19/8 14/20/8 16/21/8 17/22/8 
f 12/23/9 18/24/9 19/25/9 13/26/9 
f 20/27/10 21/28/10 7/29/10 10/30/10 
f 11/31/11 22/32/11 18/33/11 12/34/11 
f 13/26/12 19/25/12 20/27/12 10/30/12 
f 21/35/13 23/36/13 15/37/13 7/38/13 
f 22/39/14 23/40/14 21/41/14 19/42/14 
f 21/41/15 20/43/15 19/42/15 
f 22/39/16 19/42/16 18/44/16 
f 9/45/17 8/46/17 17/47/17 24/48/17 
f 25/49/18 26/50/18 24/51/18 17/52/18 
f 27/53/19 6/54/19 4/55/19 28/56/19 
f 26/50/20 29/57/20 3/58/20 24/51/20 
f 16/59/21 30/60/21 25/49/21 17/52/21 
f 3/58/22 29/57/22 28/56/22 4/55/22 
f 28/23/23 29/26/23 31/25/23 32/24/23 
f 33/27/24 26/30/24 25/29/24 34/28/24 
f 27/61/25 28/62/25 32/63/25 35/64/25 
f 29/26/26 26/30/26 33/27/26 31/25/26 
f 34/65/27 25/66/27 30/67/27 36/68/27 
f 35/69/28 32/70/28 31/71/28 34/72/28 
f 31/71/28 33/73/28 34/72/28 
f 35/69/29 34/72/29 36/74/29 
f 37/1/30 38/4/30 39/3/30 40/2/30 
f 5/5/31 6/6/31 38/75/31 37/76/31 
f 41/7/32 42/10/32 43/9/32 44/8/32 
f 11/11/33 5/14/33 37/13/33 45/12/33 
f 42/10/34 46/16/34 40/15/34 43/9/34 
f 14/17/35 15/18/35 41/7/35 44/8/35 
f 40/15/36 46/16/36 45/12/36 37/13/36 
f 40/2/37 39/3/37 47/48/37 43/45/37 
f 44/19/38 48/22/38 16/21/38 14/20/38 
f 45/23/39 46/26/39 49/25/39 50/24/39 
f 51/27/40 42/30/40 41/29/40 52/28/40 
f 11/31/41 45/34/41 50/33/41 22/32/41 
f 46/26/42 42/30/42 51/27/42 49/25/42 
f 52/35/43 41/38/43 15/37/43 23/36/43 
f 22/39/16 50/44/16 49/42/16 52/41/16 
f 49/42/44 51/43/44 52/41/44 
f 22/39/16 52/41/16 23/40/16 
f 43/45/45 47/48/45 48/47/45 44/46/45 
f 53/49/46 48/52/46 47/51/46 54/50/46 
f 27/53/47 55/56/47 38/55/47 6/54/47 
f 54/50/48 47/51/48 39/58/48 56/57/48 
f 16/59/49 48/52/49 53/49/49 30/60/49 
f 39/58/50 38/55/50 55/56/50 56/57/50 
f 55/23/51 57/24/51 58/25/51 56/26/51 
f 59/27/52 60/28/52 53/29/52 54/30/52 
f 27/61/53 35/64/53 57/63/53 55/62/53 
f 56/26/54 58/25/54 59/27/54 54/30/54 
f 60/65/55 36/68/55 30/67/55 53/66/55 
f 35/69/28 36/74/28 60/72/28 58/71/28 
f 60/72/29 59/73/29 58/71/29 
f 35/69/29 58/71/29 57/70/29 
f 61/77/56 62/78/56 63/79/56 64/80/56 
f 3/81/57 2/82/57 61/83/57 64/84/57 
f 2/85/58 9/86/58 62/87/58 61/88/58 
f 9/89/59 24/90/59 63/91/59 62/92/59 
f 3/93/60 64/94/60 63/95/60 24/96/60 
f 65/97/61 66/98/61 67/99/61 68/100/61 
f 65/101/62 69/102/62 70/103/62 66/104/62 
f 71/105/63 72/106/63 73/107/63 74/108/63 
f 75/109/64 76/110/64 77/111/64 78/112/64 
f 72/113/65 71/114/65 75/115/65 78/116/65 
f 74/117/66 73/118/66 77/119/66 76/120/66 
f 79/121/67 80/122/67 81/123/67 82/124/67 
f 80/125/68 79/126/68 83/127/68 84/128/68 
f 83/129/69 79/130/69 82/131/69 85/132/69 
f 84/133/70 83/134/70 85/135/70 86/136/70 
f 80/137/71 84/138/71 86/139/71 81/140/71 
f 85/141/72 82/142/72 81/143/72 86/144/72 
f 87/145/70 88/146/70 89/147/70 90/148/70 
f 91/149/73 87/150/73 90/151/73 92/152/73 
f 93/153/67 91/154/67 92/155/67 94/156/67 
f 88/157/74 93/158/74 94/159/74 89/160/74 
f 90/161/75 89/162/75 94/163/75 92/164/75 
f 95/165/71 96/166/71 97/167/71 98/168/71 
f 96/169/64 99/170/64 100/171/64 97/172/64 
f 99/173/69 101/174/69 102/175/69 100/176/69 
f 101/177/76 95/178/76 98/179/76 102/180/76 
f 97/181/72 100/182/72 102/183/72 98/184/72 
f 103/185/67 104/186/67 105/187/67 106/188/67 
f 107/189/71 103/190/71 106/191/71 108/192/71 
f 104/193/72 103/194/72 107/195/72 109/196/72 
f 106/197/68 105/198/68 110/199/68 108/200/68 
f 109/201/70 107/202/70 108/203/70 110/204/70 
f 105/205/69 104/206/69 109/207/69 110/208/69 
# 86 polygons - 8 triangles

