# Wavefront OBJ exported by MilkShape 3D

mtllib grid.mtl

v -4.809701 9.748594 1.563501
v -5.000002 9.748594 1.817101
v -3.304302 9.748594 3.089502
v -3.114000 9.748594 2.835901
v -1.608601 9.748594 4.362002
v -1.418302 9.748594 4.108304
v -5.000002 1.000000 1.817099
v -1.608601 0.999999 4.362001
v -1.608601 9.748594 4.362002
v -5.000002 9.748594 1.817101
v -1.608601 0.999999 4.362001
v -1.418301 0.999999 4.108302
v -1.418302 9.748594 4.108304
v -1.608601 9.748594 4.362002
v -1.418301 0.999999 4.108302
v -4.809702 1.000000 1.563499
v -4.809701 9.748594 1.563501
v -1.418302 9.748594 4.108304
v -4.809702 1.000000 1.563499
v -5.000002 1.000000 1.817099
v -5.000002 9.748594 1.817101
v -4.809701 9.748594 1.563501
v 3.304302 9.748594 3.089501
v 5.000003 9.748594 1.817101
v 4.809702 9.748594 1.563502
v 3.114002 9.748594 2.835902
v 1.608601 9.748594 4.362001
v 1.418301 9.748594 4.108303
v 1.608601 9.748594 4.362001
v 1.608601 0.999999 4.362000
v 5.000002 1.000000 1.817100
v 5.000003 9.748594 1.817101
v 1.418301 9.748594 4.108303
v 1.418301 0.999999 4.108302
v 1.608601 0.999999 4.362000
v 1.608601 9.748594 4.362001
v 4.809702 9.748594 1.563502
v 4.809703 1.000000 1.563500
v 1.418301 0.999999 4.108302
v 1.418301 9.748594 4.108303
v 5.000003 9.748594 1.817101
v 5.000002 1.000000 1.817100
v 4.809703 1.000000 1.563500
v 4.809702 9.748594 1.563502
v 4.809702 9.748594 -1.563501
v 5.000000 9.748594 -1.817100
v 3.304302 9.748594 -3.089500
v 3.114002 9.748594 -2.835900
v 1.608600 9.748594 -4.362000
v 1.418301 9.748594 -4.108301
v 5.000001 1.000000 -1.817101
v 1.608600 1.000000 -4.362001
v 1.608600 9.748594 -4.362000
v 5.000000 9.748594 -1.817100
v 1.608600 1.000000 -4.362001
v 1.418300 1.000000 -4.108303
v 1.418301 9.748594 -4.108301
v 1.608600 9.748594 -4.362000
v 1.418300 1.000000 -4.108303
v 4.809702 1.000000 -1.563502
v 4.809702 9.748594 -1.563501
v 1.418301 9.748594 -4.108301
v 4.809702 1.000000 -1.563502
v 5.000001 1.000000 -1.817101
v 5.000000 9.748594 -1.817100
v 4.809702 9.748594 -1.563501
v -3.304302 9.748594 -3.089501
v -5.000000 9.748594 -1.817100
v -4.809702 9.748594 -1.563500
v -3.114002 9.748594 -2.835900
v -1.608601 9.748594 -4.362000
v -1.418300 9.748594 -4.108300
v -1.608601 9.748594 -4.362000
v -1.608601 1.000000 -4.362003
v -5.000001 1.000000 -1.817101
v -5.000000 9.748594 -1.817100
v -1.418300 9.748594 -4.108300
v -1.418300 1.000000 -4.108302
v -1.608601 1.000000 -4.362003
v -1.608601 9.748594 -4.362000
v -4.809702 9.748594 -1.563500
v -4.809702 1.000000 -1.563501
v -1.418300 1.000000 -4.108302
v -1.418300 9.748594 -4.108300
v -5.000000 9.748594 -1.817100
v -5.000001 1.000000 -1.817101
v -4.809702 1.000000 -1.563501
v -4.809702 9.748594 -1.563500
v 5.000000 -0.000001 4.500002
v -5.000003 -0.000001 4.500000
v -5.000003 0.000000 -4.500000
v 5.000002 0.000000 -4.500002
v -5.000003 1.000000 -4.500000
v -5.000003 0.999999 4.500000
v 5.000000 0.999999 4.500002
v 5.000002 1.000000 -4.500002
v 5.000000 -0.000001 4.500002
v 5.000000 0.999999 4.500002
v -5.000003 0.999999 4.500000
v -5.000003 -0.000001 4.500000
v -5.000003 0.000000 -4.500000
v -5.000003 1.000000 -4.500000
v 5.000002 1.000000 -4.500002
v 5.000002 0.000000 -4.500002
v 5.000002 0.000000 -4.500002
v 5.000002 1.000000 -4.500002
v 5.000000 0.999999 4.500002
v 5.000000 -0.000001 4.500002
v -5.000003 -0.000001 4.500000
v -5.000003 0.999999 4.500000
v -5.000003 1.000000 -4.500000
v -5.000003 0.000000 -4.500000
# 112 vertices

vt 0.789600 0.427400
vt 0.801500 0.427500
vt 0.801300 0.507200
vt 0.789400 0.507200
vt 0.801200 0.586900
vt 0.789200 0.586900
vt 0.694100 0.211400
vt 0.694100 0.370900
vt 0.365100 0.370900
vt 0.365100 0.211400
vt 0.822000 0.005700
vt 0.834000 0.005700
vt 0.834000 0.334700
vt 0.822000 0.334700
vt 0.821500 0.669500
vt 0.980900 0.669500
vt 0.980900 0.998500
vt 0.821500 0.998500
vt 0.769800 0.334300
vt 0.757900 0.334300
vt 0.757900 0.005300
vt 0.769800 0.005300
vt 0.746200 0.505200
vt 0.746400 0.584900
vt 0.734500 0.585000
vt 0.734300 0.505300
vt 0.746100 0.425500
vt 0.734200 0.425500
vt 0.036100 0.211400
vt 0.036100 0.370900
vt 0.736800 0.335700
vt 0.736800 0.006700
vt 0.748700 0.006700
vt 0.748700 0.335700
vt 0.693400 0.542000
vt 0.364400 0.542000
vt 0.364400 0.382600
vt 0.693400 0.382600
vt 0.897700 0.004600
vt 0.897700 0.333600
vt 0.885800 0.333600
vt 0.885800 0.004600
vt 0.785900 0.589400
vt 0.774000 0.589500
vt 0.773500 0.509800
vt 0.785400 0.509700
vt 0.772900 0.430100
vt 0.784900 0.430000
vt 0.035600 0.202700
vt 0.035600 0.043200
vt 0.364600 0.043200
vt 0.364600 0.202700
vt 0.876100 0.329100
vt 0.864400 0.329100
vt 0.864400 0.006600
vt 0.876100 0.006600
vt 0.035400 0.542000
vt 0.035400 0.382600
vt 0.799900 0.007500
vt 0.811800 0.007500
vt 0.811800 0.336500
vt 0.799900 0.336500
vt 0.753200 0.504800
vt 0.753000 0.425100
vt 0.764900 0.425100
vt 0.765100 0.504800
vt 0.753300 0.584600
vt 0.765200 0.584500
vt 0.693600 0.202700
vt 0.693600 0.043200
vt 0.790000 0.005000
vt 0.790000 0.334000
vt 0.778100 0.334000
vt 0.778100 0.005000
vt 0.981000 0.340100
vt 0.821600 0.340100
vt 0.846700 0.330000
vt 0.846700 0.007500
vt 0.858100 0.007500
vt 0.858100 0.330000
vt 0.014200 0.993800
vt 0.014200 0.617700
vt 0.352700 0.617700
vt 0.352700 0.993800
vt 0.367900 0.616200
vt 0.706300 0.616200
vt 0.706300 0.992300
vt 0.367900 0.992300
vt 0.761800 0.988800
vt 0.724200 0.988800
vt 0.724200 0.612700
vt 0.761800 0.612700
vt 0.774100 0.612900
vt 0.811700 0.612900
vt 0.811700 0.988900
vt 0.774100 0.988900
vt 0.944800 0.330400
vt 0.908700 0.330400
vt 0.908700 0.010900
vt 0.944800 0.010900
vt 0.947300 0.010900
vt 0.983400 0.010900
vt 0.983400 0.330400
vt 0.947300 0.330400
# 104 texture coordinates

vn 0.000000 1.000000 0.000000
vn -0.600204 -0.000000 0.799847
vn 0.799961 -0.000000 0.600052
vn 0.600189 0.000000 -0.799858
vn -0.799848 0.000000 -0.600202
vn 0.600204 -0.000000 0.799847
vn -0.799960 -0.000000 0.600053
vn -0.600189 0.000000 -0.799859
vn 0.799848 0.000000 -0.600202
vn 0.000000 -1.000000 -0.000000
vn -0.000000 0.000000 1.000000
vn -0.000000 0.000000 -1.000000
vn 1.000000 0.000000 0.000000
vn -1.000000 0.000000 0.000000
# 14 normals

g plate
usemtl Material01
s 1
f 1/1/1 2/2/1 3/3/1
f 1/1/1 3/3/1 4/4/1
f 4/4/1 3/3/1 5/5/1
f 4/4/1 5/5/1 6/6/1
f 7/7/2 8/8/2 9/9/2
f 7/7/2 9/9/2 10/10/2
f 11/11/3 12/12/3 13/13/3
f 11/11/3 13/13/3 14/14/3
f 15/15/4 16/16/4 17/17/4
f 15/15/4 17/17/4 18/18/4
f 19/19/5 20/20/5 21/21/5
f 19/19/5 21/21/5 22/22/5
f 23/23/1 24/24/1 25/25/1
f 23/23/1 25/25/1 26/26/1
f 27/27/1 23/23/1 26/26/1
f 27/27/1 26/26/1 28/28/1
f 29/29/6 30/10/6 31/9/6
f 29/29/6 31/9/6 32/30/6
f 33/31/7 34/32/7 35/33/7
f 33/31/7 35/33/7 36/34/7
f 37/35/8 38/36/8 39/37/8
f 37/35/8 39/37/8 40/38/8
f 41/39/9 42/40/9 43/41/9
f 41/39/9 43/41/9 44/42/9
f 45/43/1 46/44/1 47/45/1
f 45/43/1 47/45/1 48/46/1
f 48/46/1 47/45/1 49/47/1
f 48/46/1 49/47/1 50/48/1
f 51/49/4 52/50/4 53/51/4
f 51/49/4 53/51/4 54/52/4
f 55/53/5 56/54/5 57/55/5
f 55/53/5 57/55/5 58/56/5
f 59/37/2 60/36/2 61/57/2
f 59/37/2 61/57/2 62/58/2
f 63/59/3 64/60/3 65/61/3
f 63/59/3 65/61/3 66/62/3
f 67/63/1 68/64/1 69/65/1
f 67/63/1 69/65/1 70/66/1
f 71/67/1 67/63/1 70/66/1
f 71/67/1 70/66/1 72/68/1
f 73/69/8 74/52/8 75/51/8
f 73/69/8 75/51/8 76/70/8
f 77/71/9 78/72/9 79/73/9
f 77/71/9 79/73/9 80/74/9
f 81/75/6 82/16/6 83/15/6
f 81/75/6 83/15/6 84/76/6
f 85/77/7 86/78/7 87/79/7
f 85/77/7 87/79/7 88/80/7
# 48 triangles in group

g base
usemtl Material01
f 89/81/10 90/82/10 91/83/10
f 89/81/10 91/83/10 92/84/10
f 93/85/1 94/86/1 95/87/1
f 93/85/1 95/87/1 96/88/1
f 97/89/11 98/90/11 99/91/11
f 97/89/11 99/91/11 100/92/11
f 101/93/12 102/94/12 103/95/12
f 101/93/12 103/95/12 104/96/12
f 105/97/13 106/98/13 107/99/13
f 105/97/13 107/99/13 108/100/13
f 109/101/14 110/102/14 111/103/14
f 109/101/14 111/103/14 112/104/14
# 12 triangles in group

# 60 triangles total

