# Wavefront OBJ exported by MilkShape 3D

mtllib matrix.mtl

v -0.738190 0.244672 0.984252
v -0.985833 0.244672 0.738190
v -0.985833 -0.001393 0.738190
v -0.738190 -0.001393 0.984252
v -0.246063 0.244672 0.984252
v -0.246063 0.244672 0.768332
v -0.443598 0.244672 0.768332
v -0.745127 0.244672 0.246063
v -0.985833 0.244672 0.246063
v 0.000000 -0.001393 0.984252
v -0.985833 -0.001393 0.000000
v -0.000790 -0.001393 0.000000
v 0.000000 0.244672 0.984252
v -0.985833 0.244672 0.000000
v -0.984252 0.244672 -0.738190
v -0.738190 0.244672 -0.985833
v -0.738190 -0.001393 -0.985833
v -0.984252 -0.001393 -0.738190
v -0.984252 0.244672 -0.246063
v -0.768332 0.244672 -0.246063
v -0.768332 0.244672 -0.443598
v -0.246063 0.244672 -0.745127
v -0.246063 0.244672 -0.985833
v -0.984252 -0.001393 0.000000
v 0.000000 -0.001393 -0.985833
v 0.000000 -0.001393 -0.000790
v -0.984252 0.244672 0.000000
v 0.000000 0.244672 -0.985833
v 0.984252 0.244672 0.738190
v 0.738190 0.244672 0.985833
v 0.738190 -0.001393 0.985833
v 0.984252 -0.001393 0.738190
v 0.984252 0.244672 0.246063
v 0.768332 0.244672 0.246063
v 0.768332 0.244672 0.443598
v 0.246063 0.244672 0.745127
v 0.246063 0.244672 0.985833
v 0.984252 -0.001393 0.000000
v 0.000000 -0.001393 0.985833
v 0.000000 -0.001393 0.000790
v 0.984252 0.244672 0.000000
v 0.000000 0.244672 0.985833
v 0.738190 0.244672 -0.984252
v 0.985833 0.244672 -0.738190
v 0.985833 -0.001393 -0.738190
v 0.738190 -0.001393 -0.984252
v 0.246063 0.244672 -0.984252
v 0.246063 0.244672 -0.768332
v 0.443598 0.244672 -0.768332
v 0.745127 0.244672 -0.246063
v 0.985833 0.244672 -0.246063
v 0.000000 -0.001393 -0.984252
v 0.985833 -0.001393 0.000000
v 0.000790 -0.001393 0.000000
v 0.000000 0.244672 -0.984252
v 0.985833 0.244672 0.000000
v -0.745127 0.638373 0.246063
v -0.984252 0.638373 0.246063
v -0.984252 0.244672 0.246063
v -0.443598 0.638373 0.768332
v -0.246063 0.638373 0.768332
v -0.246063 0.638373 0.984252
v 0.246063 0.244672 0.984252
v 0.246063 0.638373 0.984252
v 0.000000 0.638373 0.984252
v 0.246063 0.244672 0.768332
v 0.246063 0.638373 0.768332
v -0.716715 0.736798 0.196850
v -0.935040 0.736798 0.196850
v -0.415183 0.736798 0.719120
v -0.196850 0.736798 0.719120
v -0.196850 0.736798 0.935040
v 0.196850 0.736798 0.935040
v 0.000000 0.736798 0.935040
v 0.196850 0.736798 0.719120
v -0.295275 0.736798 0.295275
v 0.197120 0.736798 0.295275
v 0.000000 0.736798 0.295275
v -0.295275 0.736798 0.196433
v -0.246063 0.638373 -0.745127
v -0.246063 0.638373 -0.984252
v -0.246063 0.244672 -0.984252
v -0.768332 0.244672 -0.443595
v -0.768332 0.638373 -0.443595
v -0.768332 0.638373 -0.246063
v -0.984252 0.638373 -0.246063
v -0.984252 0.638373 0.000000
v -0.984252 0.244672 0.000000
v -0.768332 0.244672 0.246063
v -0.768332 0.638373 0.246063
v -0.196850 0.736798 -0.716715
v -0.196850 0.736798 -0.935040
v -0.719120 0.736798 -0.415183
v -0.719120 0.736798 -0.196850
v -0.935040 0.736798 -0.196850
v -0.935040 0.736798 0.000000
v -0.719120 0.736798 0.196850
v -0.295275 0.736798 -0.295275
v -0.295275 0.736798 0.197120
v -0.295275 0.736798 0.000000
v -0.196433 0.736798 -0.295275
v 0.246063 0.638373 0.745127
v 0.768332 0.638373 0.443598
v 0.768332 0.638373 0.246063
v 0.984252 0.638373 0.246063
v 0.984252 0.244672 -0.246063
v 0.984252 0.638373 -0.246063
v 0.984252 0.638373 0.000000
v 0.768332 0.244672 -0.246063
v 0.768332 0.638373 -0.246063
v 0.196850 0.736798 0.716715
v 0.719120 0.736798 0.415183
v 0.719120 0.736798 0.196850
v 0.935040 0.736798 0.196850
v 0.935040 0.736798 -0.196850
v 0.935040 0.736798 0.000000
v 0.719120 0.736798 -0.196850
v 0.295275 0.736798 0.295275
v 0.295275 0.736798 -0.197120
v 0.295275 0.736798 0.000000
v 0.196433 0.736798 0.295275
v 0.745127 0.638373 -0.246063
v 0.443598 0.638373 -0.768332
v 0.246063 0.638373 -0.768332
v 0.246063 0.638373 -0.984252
v 0.000000 0.638373 -0.984252
v -0.246063 0.244672 -0.768332
v -0.246063 0.638373 -0.768332
v 0.716715 0.736798 -0.196850
v 0.415183 0.736798 -0.719120
v 0.196850 0.736798 -0.719120
v 0.196850 0.736798 -0.935040
v 0.000000 0.736798 -0.935040
v -0.196850 0.736798 -0.719120
v 0.295275 0.736798 -0.295275
v -0.197120 0.736798 -0.295275
v 0.000000 0.736798 -0.295275
v 0.295275 0.736798 -0.196433
v 0.316985 0.727980 -0.301340
v -0.316985 0.727980 -0.301340
v 0.000000 1.044965 0.000000
v -0.316985 0.727980 0.301340
v 0.316985 0.727980 0.301340
v -0.246063 0.866225 -0.679500
v -0.246063 2.588665 -0.679500
v -0.246063 2.588665 -0.777925
v -0.246063 0.866225 -0.777925
v 0.000000 0.866225 -0.679500
v 0.000000 0.866225 -0.777925
v 0.246063 1.112288 -0.679500
v 0.246063 1.112288 -0.777925
v 0.246063 2.834730 -0.679500
v 0.246063 2.834730 -0.777925
v 0.000000 2.834730 -0.679500
v 0.000000 2.834730 -0.777925
# 155 vertices

vt 0.370400 0.170400
vt 0.181100 0.170400
vt 0.181100 0.031300
vt 0.370400 0.031300
vt 0.014700 0.589300
vt 0.014700 0.483700
vt 0.111100 0.483700
vt 0.255000 0.589300
vt 0.258400 0.228100
vt 0.375900 0.468900
vt 0.375900 0.228100
vt 0.499600 0.603500
vt 0.499600 0.731200
vt 0.542300 0.774000
vt 0.670200 0.774000
vt 0.670200 0.603600
vt 0.022700 0.259200
vt 0.022700 0.017400
vt 0.147500 0.017400
vt 0.022700 0.380100
vt 0.147500 0.380100
vt 0.147500 0.016000
vt 0.022700 0.137100
vt 0.022700 0.016000
vt 0.620700 0.787800
vt 0.620700 0.987700
vt 0.502600 0.987700
vt 0.502600 0.787800
vt 0.684700 0.787800
vt 0.684700 0.987700
vt 0.402600 0.987700
vt 0.402600 0.787800
vt 0.563700 0.787800
vt 0.563700 0.987700
vt 0.447200 0.987700
vt 0.447200 0.787800
vt 0.573800 0.787800
vt 0.573800 0.987700
vt 0.493800 0.987700
vt 0.493800 0.787800
vt 0.666200 0.138000
vt 0.666200 0.328800
vt 0.533200 0.328800
vt 0.533200 0.138000
vt 0.400200 0.328800
vt 0.400200 0.138000
vt 0.616800 0.787800
vt 0.616800 0.987700
vt 0.508000 0.987700
vt 0.508000 0.787800
vt 0.602600 0.018600
vt 0.617700 0.074900
vt 0.493700 0.074900
vt 0.466800 0.018600
vt 0.717600 0.018600
vt 0.688700 0.074900
vt 0.392000 0.074900
vt 0.420900 0.018600
vt 0.667100 0.018600
vt 0.694100 0.074900
vt 0.570100 0.074900
vt 0.554900 0.018600
vt 0.623500 0.018600
vt 0.594600 0.074900
vt 0.471900 0.074900
vt 0.500900 0.018600
vt 0.569000 0.018600
vt 0.708700 0.018600
vt 0.679800 0.074900
vt 0.568000 0.074900
vt 0.456100 0.074900
vt 0.429200 0.018600
vt 0.587700 0.018600
vt 0.615100 0.074900
vt 0.494800 0.074900
vt 0.483800 0.595900
vt 0.329200 0.868100
vt 0.217200 0.868100
vt 0.267700 0.647200
vt 0.217200 0.980600
vt 0.116300 0.980600
vt 0.015300 0.980600
vt 0.015300 0.868100
vt 0.015200 0.647200
vt 0.116300 0.647200
vt 0.267700 0.595600
vt 0.329300 0.565700
vt 0.676700 0.565700
vt 0.502700 0.357300
vt 0.699000 0.965500
vt 0.699000 0.090500
vt 0.749000 0.090500
vt 0.749000 0.965500
vt 0.698800 0.520400
vt 0.698800 0.395400
vt 0.748800 0.395400
vt 0.748800 0.520400
vt 0.698800 0.645400
vt 0.748800 0.645400
vt 0.701100 0.520400
vt 0.701100 0.395400
vt 0.751100 0.395400
vt 0.751100 0.520400
vt 0.761600 0.213500
vt 0.875100 0.106200
vt 0.988700 0.106200
vt 0.988700 0.856800
vt 0.875100 0.964000
vt 0.761600 0.964000
# 109 texture coordinates

vn -0.704840 0.000000 0.709366
vn 0.000000 1.000000 0.000000
vn 0.000000 -1.000000 0.000000
vn 0.000000 0.000000 1.000000
vn -1.000000 0.000000 0.000000
vn -0.709366 0.000000 -0.704840
vn 0.000000 0.000000 -1.000000
vn 0.709366 0.000000 0.704840
vn 1.000000 0.000000 0.000000
vn 0.704840 0.000000 -0.709366
vn -0.447214 0.000000 0.894427
vn -0.894427 0.000000 0.447214
vn -0.866027 0.000000 0.499997
vn 0.447214 0.000000 0.894427
vn 0.894427 0.000000 0.447214
vn 0.000000 0.447214 0.894427
vn -0.577350 0.577350 0.577350
vn -0.774595 0.447219 0.447211
vn -0.894427 0.447214 0.000000
vn 0.577350 0.577350 0.577350
vn 0.894427 0.447214 0.000000
vn -0.894427 0.000000 -0.447214
vn -0.447214 0.000000 -0.894427
vn -0.500000 0.000000 -0.866026
vn -0.577350 0.577350 -0.577350
vn -0.447214 0.447211 -0.774598
vn 0.000000 0.447214 -0.894427
vn 0.499997 0.000000 0.866027
vn 0.894427 0.000000 -0.447214
vn 0.447214 0.000000 -0.894427
vn 0.447211 0.447219 0.774595
vn 0.577350 0.577350 -0.577350
vn 0.866027 0.000000 -0.499997
vn 0.774595 0.447219 -0.447211
vn 0.000000 0.688995 -0.724766
vn -0.707107 0.707107 0.000000
vn 0.000000 0.688995 0.724766
vn 0.707107 0.707107 0.000000
vn 0.707107 -0.707107 0.000000
# 39 normals

g Main
usemtl Material01
s 1
f 1/1/1 2/2/1 3/3/1
f 1/1/1 3/3/1 4/4/1
s 16
f 5/5/2 6/6/2 7/7/2
f 5/5/2 7/7/2 1/8/2
f 1/8/2 7/7/2 8/9/2
f 1/8/2 8/9/2 2/10/2
f 9/11/2 2/10/2 8/9/2
f 10/12/3 4/13/3 3/14/3
f 10/12/3 3/14/3 11/15/3
f 10/12/3 11/15/3 12/16/3
s 4
f 5/17/4 1/18/4 4/19/4
f 5/17/4 4/19/4 13/20/4
f 13/20/4 4/19/4 10/21/4
f 11/22/5 3/21/5 2/20/5
f 11/22/5 2/20/5 9/23/5
f 11/22/5 9/23/5 14/24/5
s 1
f 15/1/6 16/2/6 17/3/6
f 15/1/6 17/3/6 18/4/6
s 16
f 19/5/2 20/6/2 21/7/2
f 19/5/2 21/7/2 15/8/2
f 15/8/2 21/7/2 22/9/2
f 15/8/2 22/9/2 16/10/2
f 23/11/2 16/10/2 22/9/2
f 24/12/3 18/13/3 17/14/3
f 24/12/3 17/14/3 25/15/3
f 24/12/3 25/15/3 26/16/3
s 4
f 19/17/5 15/18/5 18/19/5
f 19/17/5 18/19/5 27/20/5
f 27/20/5 18/19/5 24/21/5
f 25/22/7 17/21/7 16/20/7
f 25/22/7 16/20/7 23/23/7
f 25/22/7 23/23/7 28/24/7
s 1
f 29/1/8 30/2/8 31/3/8
f 29/1/8 31/3/8 32/4/8
s 16
f 33/5/2 34/6/2 35/7/2
f 33/5/2 35/7/2 29/8/2
f 29/8/2 35/7/2 36/9/2
f 29/8/2 36/9/2 30/10/2
f 37/11/2 30/10/2 36/9/2
f 38/12/3 32/13/3 31/14/3
f 38/12/3 31/14/3 39/15/3
f 38/12/3 39/15/3 40/16/3
s 4
f 33/17/9 29/18/9 32/19/9
f 33/17/9 32/19/9 41/20/9
f 41/20/9 32/19/9 38/21/9
f 39/22/4 31/21/4 30/20/4
f 39/22/4 30/20/4 37/23/4
f 39/22/4 37/23/4 42/24/4
s 1
f 43/1/10 44/2/10 45/3/10
f 43/1/10 45/3/10 46/4/10
s 16
f 47/5/2 48/6/2 49/7/2
f 47/5/2 49/7/2 43/8/2
f 43/8/2 49/7/2 50/9/2
f 43/8/2 50/9/2 44/10/2
f 51/11/2 44/10/2 50/9/2
f 52/12/3 46/13/3 45/14/3
f 52/12/3 45/14/3 53/15/3
f 52/12/3 53/15/3 54/16/3
s 4
f 47/17/7 43/18/7 46/19/7
f 47/17/7 46/19/7 55/20/7
f 55/20/7 46/19/7 52/21/7
f 53/22/9 45/21/9 44/20/9
f 53/22/9 44/20/9 51/23/9
f 53/22/9 51/23/9 56/24/9
s 25
f 8/25/4 57/26/4 58/27/11
f 8/25/4 58/27/11 59/28/12
s 17
f 7/29/13 60/30/13 57/31/13
f 7/29/13 57/31/13 8/32/13
s 31
f 6/33/4 61/34/4 60/35/4
f 6/33/4 60/35/4 7/36/4
s 29
f 5/37/5 62/38/5 61/39/5
f 5/37/5 61/39/5 6/40/5
s 25
f 63/41/14 64/42/15 65/43/4
f 63/41/14 65/43/4 13/44/4
f 13/44/4 65/43/4 62/45/4
f 13/44/4 62/45/4 5/46/4
s 17
f 66/47/9 67/48/9 64/49/9
f 66/47/9 64/49/9 63/50/9
s 8
f 57/51/16 68/52/16 69/53/17
f 57/51/16 69/53/17 58/54/17
s 16
f 60/55/18 70/56/18 68/57/18
f 60/55/18 68/57/18 57/58/18
s 2
f 61/59/16 71/60/16 70/61/16
f 61/59/16 70/61/16 60/62/16
s 4
f 62/63/19 72/64/19 71/65/19
f 62/63/19 71/65/19 61/66/19
s 8
f 65/67/16 64/68/20 73/69/20
f 65/67/16 73/69/20 74/70/16
f 65/67/16 74/70/16 72/71/16
f 65/67/16 72/71/16 62/72/16
s 16
f 67/73/21 75/74/21 73/75/21
f 67/73/21 73/75/21 64/54/21
s 1
f 68/76/2 70/77/2 71/78/2
f 68/76/2 71/78/2 76/79/2
f 71/78/2 72/80/2 74/81/2
f 71/78/2 74/81/2 76/79/2
f 74/81/2 73/82/2 75/83/2
f 74/81/2 75/83/2 77/84/2
f 74/81/2 77/84/2 78/85/2
f 74/81/2 78/85/2 76/79/2
f 68/76/2 76/79/2 79/86/2
s 25
f 22/25/5 80/26/5 81/27/22
f 22/25/5 81/27/22 82/28/23
s 17
f 83/29/24 84/30/24 80/31/24
f 83/29/24 80/31/24 22/32/24
s 31
f 20/33/5 85/34/5 84/35/5
f 20/33/5 84/35/5 83/36/5
s 29
f 19/37/7 86/38/7 85/39/7
f 19/37/7 85/39/7 20/40/7
s 25
f 59/41/12 58/42/11 87/43/5
f 59/41/12 87/43/5 88/44/5
f 88/44/5 87/43/5 86/45/5
f 88/44/5 86/45/5 19/46/5
s 17
f 89/47/4 90/48/4 58/49/4
f 89/47/4 58/49/4 59/50/4
s 8
f 80/51/19 91/52/19 92/53/25
f 80/51/19 92/53/25 81/54/25
s 16
f 84/55/26 93/56/26 91/57/26
f 84/55/26 91/57/26 80/58/26
s 2
f 85/59/19 94/60/19 93/61/19
f 85/59/19 93/61/19 84/62/19
s 4
f 86/63/27 95/64/27 94/65/27
f 86/63/27 94/65/27 85/66/27
s 8
f 87/67/19 58/68/17 69/69/17
f 87/67/19 69/69/17 96/70/19
f 87/67/19 96/70/19 95/71/19
f 87/67/19 95/71/19 86/72/19
s 16
f 90/73/16 97/74/16 69/75/16
f 90/73/16 69/75/16 58/54/16
s 1
f 91/76/2 93/77/2 94/78/2
f 91/76/2 94/78/2 98/79/2
f 94/78/2 95/80/2 96/81/2
f 94/78/2 96/81/2 98/79/2
f 96/81/2 69/82/2 97/83/2
f 96/81/2 97/83/2 99/84/2
f 96/81/2 99/84/2 100/85/2
f 96/81/2 100/85/2 98/79/2
f 91/76/2 98/79/2 101/86/2
s 25
f 36/25/9 102/26/9 64/27/15
f 36/25/9 64/27/15 63/28/14
s 17
f 35/29/28 103/30/28 102/31/28
f 35/29/28 102/31/28 36/32/28
s 31
f 34/33/9 104/34/9 103/35/9
f 34/33/9 103/35/9 35/36/9
s 29
f 33/37/4 105/38/4 104/39/4
f 33/37/4 104/39/4 34/40/4
s 25
f 106/41/29 107/42/30 108/43/9
f 106/41/29 108/43/9 41/44/9
f 41/44/9 108/43/9 105/45/9
f 41/44/9 105/45/9 33/46/9
s 17
f 109/47/7 110/48/7 107/49/7
f 109/47/7 107/49/7 106/50/7
s 8
f 102/51/21 111/52/21 73/53/20
f 102/51/21 73/53/20 64/54/20
s 16
f 103/55/31 112/56/31 111/57/31
f 103/55/31 111/57/31 102/58/31
s 2
f 104/59/21 113/60/21 112/61/21
f 104/59/21 112/61/21 103/62/21
s 4
f 105/63/16 114/64/16 113/65/16
f 105/63/16 113/65/16 104/66/16
s 8
f 108/67/21 107/68/32 115/69/32
f 108/67/21 115/69/32 116/70/21
f 108/67/21 116/70/21 114/71/21
f 108/67/21 114/71/21 105/72/21
s 16
f 110/73/27 117/74/27 115/75/27
f 110/73/27 115/75/27 107/54/27
s 1
f 111/76/2 112/77/2 113/78/2
f 111/76/2 113/78/2 118/79/2
f 113/78/2 114/80/2 116/81/2
f 113/78/2 116/81/2 118/79/2
f 116/81/2 115/82/2 117/83/2
f 116/81/2 117/83/2 119/84/2
f 116/81/2 119/84/2 120/85/2
f 116/81/2 120/85/2 118/79/2
f 111/76/2 118/79/2 121/86/2
s 25
f 50/25/7 122/26/7 107/27/30
f 50/25/7 107/27/30 106/28/29
s 17
f 49/29/33 123/30/33 122/31/33
f 49/29/33 122/31/33 50/32/33
s 31
f 48/33/7 124/34/7 123/35/7
f 48/33/7 123/35/7 49/36/7
s 29
f 47/37/9 125/38/9 124/39/9
f 47/37/9 124/39/9 48/40/9
s 25
f 82/41/23 81/42/22 126/43/7
f 82/41/23 126/43/7 55/44/7
f 55/44/7 126/43/7 125/45/7
f 55/44/7 125/45/7 47/46/7
s 17
f 127/47/5 128/48/5 81/49/5
f 127/47/5 81/49/5 82/50/5
s 8
f 122/51/27 129/52/27 115/53/32
f 122/51/27 115/53/32 107/54/32
s 16
f 123/55/34 130/56/34 129/57/34
f 123/55/34 129/57/34 122/58/34
s 2
f 124/59/27 131/60/27 130/61/27
f 124/59/27 130/61/27 123/62/27
s 4
f 125/63/21 132/64/21 131/65/21
f 125/63/21 131/65/21 124/66/21
s 8
f 126/67/27 81/68/25 92/69/25
f 126/67/27 92/69/25 133/70/27
f 126/67/27 133/70/27 132/71/27
f 126/67/27 132/71/27 125/72/27
s 16
f 128/73/19 134/74/19 92/75/19
f 128/73/19 92/75/19 81/54/19
s 1
f 129/76/2 130/77/2 131/78/2
f 129/76/2 131/78/2 135/79/2
f 131/78/2 132/80/2 133/81/2
f 131/78/2 133/81/2 135/79/2
f 133/81/2 92/82/2 134/83/2
f 133/81/2 134/83/2 136/84/2
f 133/81/2 136/84/2 137/85/2
f 133/81/2 137/85/2 135/79/2
f 129/76/2 135/79/2 138/86/2
# 212 triangles in group

g Core
usemtl Material01
s 2
f 139/87/35 140/88/35 141/89/35
s 4
f 140/87/36 142/88/36 141/89/36
s 8
f 142/87/37 143/88/37 141/89/37
s 17
f 143/87/38 139/88/38 141/89/38
# 4 triangles in group

g Shield
usemtl Material01
s 1
f 144/90/5 145/91/5 146/92/5
f 144/90/5 146/92/5 147/93/5
s 4
f 148/94/3 144/95/3 147/96/3
f 148/94/3 147/96/3 149/97/3
s 2
f 150/98/39 148/94/39 149/97/39
f 150/98/39 149/97/39 151/99/39
s 4
f 152/90/9 150/91/9 151/92/9
f 152/90/9 151/92/9 153/93/9
s 2
f 154/100/2 152/101/2 153/102/2
f 154/100/2 153/102/2 155/103/2
s 4
f 145/98/36 154/100/36 155/103/36
f 145/98/36 155/103/36 146/99/36
s 16
f 151/104/7 149/105/7 147/106/7
f 151/104/7 147/106/7 146/107/7
f 151/104/7 146/107/7 155/108/7
f 151/104/7 155/108/7 153/109/7
f 150/104/4 152/109/4 154/108/4
f 150/104/4 154/108/4 145/107/4
f 150/104/4 145/107/4 144/106/4
f 150/104/4 144/106/4 148/105/4
# 20 triangles in group

# 236 triangles total

