# This file uses centimeters as units for non-parametric coordinates.

mtllib 233333333333333333333333333.mtl
g default
v -3.317940 -0.099538 5.640497
v 3.317940 -0.099538 5.640497
v -3.317940 0.099538 5.640497
v 3.317940 0.099538 5.640497
v -3.317940 0.099538 -5.640497
v 3.317940 0.099538 -5.640497
v -3.317940 -0.099538 -5.640497
v 3.317940 -0.099538 -5.640497
vt 0.636212 0.014908
vt 0.636212 0.590182
vt 0.618954 0.590182
vt 0.618954 0.014908
vt 0.023659 0.014759
vt 0.598933 0.014759
vt 0.598933 0.992724
vt 0.023659 0.992724
vt 0.636253 0.014952
vt 0.636253 0.590226
vt 0.618994 0.590226
vt 0.618994 0.014952
vt 0.023614 0.014708
vt 0.598887 0.014708
vt 0.598887 0.992673
vt 0.023614 0.992673
vt 0.659902 0.588340
vt 0.659902 0.013066
vt 0.670054 0.013066
vt 0.670054 0.588340
vt 0.670054 0.013079
vt 0.670054 0.588352
vt 0.659903 0.588352
vt 0.659903 0.013079
vn 0.000000 0.000000 1.000000
vn 0.000000 0.000000 1.000000
vn 0.000000 0.000000 1.000000
vn 0.000000 0.000000 1.000000
vn 0.000000 1.000000 0.000000
vn 0.000000 1.000000 0.000000
vn 0.000000 1.000000 0.000000
vn 0.000000 1.000000 0.000000
vn 0.000000 0.000000 -1.000000
vn 0.000000 0.000000 -1.000000
vn 0.000000 0.000000 -1.000000
vn 0.000000 0.000000 -1.000000
vn 0.000000 -1.000000 0.000000
vn 0.000000 -1.000000 0.000000
vn 0.000000 -1.000000 0.000000
vn 0.000000 -1.000000 0.000000
vn 1.000000 0.000000 0.000000
vn 1.000000 0.000000 0.000000
vn 1.000000 0.000000 0.000000
vn 1.000000 0.000000 0.000000
vn -1.000000 0.000000 0.000000
vn -1.000000 0.000000 0.000000
vn -1.000000 0.000000 0.000000
vn -1.000000 0.000000 0.000000
s off
g pCube1
usemtl initialShadingGroup
f 1/1/1 2/2/2 4/3/3 3/4/4
f 3/5/5 4/6/6 6/7/7 5/8/8
f 5/9/9 6/10/10 8/11/11 7/12/12
f 7/13/13 8/14/14 2/15/15 1/16/16
f 2/17/17 8/18/18 6/19/19 4/20/20
f 7/21/21 1/22/22 3/23/23 5/24/24
