# Wavefront OBJ exported by MilkShape 3D

v -0.153799 17.716396 33.337749
v -0.153799 17.716396 -33.337749
v -14.371498 17.716396 -33.337749
v -14.371498 17.716396 33.337749
v -0.153799 0.125600 33.337749
v -14.371498 0.125600 33.337749
v -14.371498 0.125600 -33.337749
v -0.153799 0.125600 -33.337749
v 14.063800 17.716396 33.337749
v 14.063800 17.716396 -33.337749
v 14.063800 0.125600 -33.337749
v 14.063800 0.125600 33.337749
v 33.082600 31.923401 35.092350
v 33.082600 31.923401 -35.092350
v 7.872700 22.881798 -35.092350
v 7.872700 22.881798 35.092350
v 33.687401 30.237099 35.092350
v 8.477500 21.195499 35.092350
v 8.477500 21.195499 -35.092350
v 33.687401 30.237099 -35.092350
v 34.292198 28.550797 35.092350
v 9.082300 19.509197 35.092350
v 9.082300 19.509197 -35.092350
v 34.292198 28.550797 -35.092350
v -7.872700 22.881798 -35.092350
v -33.082600 31.923401 -35.092350
v -33.082600 31.923401 35.092350
v -7.872700 22.881798 35.092350
v -33.687401 30.237099 35.092350
v -8.477499 21.195499 35.092350
v -8.477499 21.195499 -35.092350
v -33.687401 30.237099 -35.092350
v -9.082300 19.509197 -35.092350
v -9.082300 19.509197 35.092350
v -34.292198 28.550797 35.092350
v -34.292198 28.550797 -35.092350
v -6.776199 21.392399 3.872448
v -6.776199 21.392399 5.026447
v -11.649899 19.722095 5.026447
v -11.649899 19.722095 3.872448
v -8.811199 27.330399 3.872448
v -13.685001 25.660099 3.872448
v -13.685001 25.660099 5.026447
v -8.811199 27.330399 5.026447
v -6.776199 21.392399 -4.572453
v -6.776199 21.392399 -3.418452
v -11.649899 19.722095 -3.418452
v -11.649899 19.722095 -4.572453
v -8.811199 27.330399 -4.572453
v -13.685001 25.660099 -4.572453
v -13.685001 25.660099 -3.418452
v -8.811199 27.330399 -3.418452
v -0.153799 23.980797 -26.670155
v -10.331100 23.980797 -26.670155
v -10.331100 23.980797 26.670147
v -0.153799 23.980797 26.670147
v -10.331100 17.000298 26.670147
v -0.153799 17.000298 26.670147
v -0.153799 17.000298 -26.670155
v -10.331100 17.000298 -26.670155
v 10.023500 23.980797 26.670147
v 10.023500 23.980797 -26.670155
v 10.023500 17.000298 26.670147
v 10.023500 17.000298 -26.670155
v 10.926100 19.722095 5.026447
v 6.052401 21.392399 5.026447
v 6.052401 21.392399 3.872448
v 10.926100 19.722095 3.872448
v 12.961200 25.660099 5.026447
v 12.961200 25.660099 3.872448
v 8.087400 27.330399 3.872448
v 8.087400 27.330399 5.026447
v 10.926100 19.722095 -3.418452
v 6.052401 21.392399 -3.418452
v 6.052401 21.392399 -4.572453
v 10.926100 19.722095 -4.572453
v 12.961200 25.660099 -3.418452
v 12.961200 25.660099 -4.572453
v 8.087400 27.330399 -4.572453
v 8.087400 27.330399 -3.418452
v -22.527599 4.143500 -27.999252
v -22.527599 4.143500 -30.169254
v -13.362900 1.002600 -30.169254
v -13.362900 1.002600 -27.999252
v -18.700798 15.309400 -27.999252
v -9.536098 12.168500 -27.999252
v -9.536098 12.168500 -30.169254
v -18.700798 15.309400 -30.169254
v -22.527599 4.143500 -22.166855
v -22.527599 4.143500 -24.336853
v -13.362900 1.002600 -24.336853
v -13.362900 1.002600 -22.166855
v -18.700798 15.309400 -22.166855
v -9.536098 12.168500 -22.166855
v -9.536098 12.168500 -24.336853
v -18.700798 15.309400 -24.336853
v -22.527599 4.143500 -16.334454
v -22.527599 4.143500 -18.504456
v -13.362900 1.002600 -18.504456
v -13.362900 1.002600 -16.334454
v -18.700798 15.309400 -16.334454
v -9.536098 12.168500 -16.334454
v -9.536098 12.168500 -18.504456
v -18.700798 15.309400 -18.504456
v -22.527599 4.143500 -10.502053
v -22.527599 4.143500 -12.672053
v -13.362900 1.002600 -12.672053
v -13.362900 1.002600 -10.502053
v -18.700798 15.309400 -10.502053
v -9.536098 12.168500 -10.502053
v -9.536098 12.168500 -12.672053
v -18.700798 15.309400 -12.672053
v -6.690100 3.951500 -8.797954
v -6.690100 3.951500 -6.627953
v -15.854900 0.810500 -6.627953
v -15.854900 0.810500 -8.797954
v -10.516899 15.117400 -8.797954
v -19.681599 11.976400 -8.797954
v -19.681599 11.976400 -6.627953
v -10.516899 15.117400 -6.627953
v -6.690100 3.951500 7.081947
v -6.690100 3.951500 9.251946
v -15.854900 0.810500 9.251946
v -15.854900 0.810500 7.081947
v -10.516899 15.117400 7.081947
v -19.681599 11.976400 7.081947
v -19.681599 11.976400 9.251946
v -10.516899 15.117400 9.251946
v -13.362900 1.002600 13.295547
v -22.527599 4.143500 13.295547
v -22.527599 4.143500 11.125546
v -13.362900 1.002600 11.125546
v -9.536098 12.168500 13.295547
v -9.536098 12.168500 11.125546
v -18.700798 15.309400 11.125546
v -18.700798 15.309400 13.295547
v -13.362900 1.002600 19.127945
v -22.527599 4.143500 19.127945
v -22.527599 4.143500 16.957947
v -13.362900 1.002600 16.957947
v -9.536098 12.168500 19.127945
v -9.536098 12.168500 16.957947
v -18.700798 15.309400 16.957947
v -18.700798 15.309400 19.127945
v -13.362900 1.002600 24.960346
v -22.527599 4.143500 24.960346
v -22.527599 4.143500 22.790348
v -13.362900 1.002600 22.790348
v -9.536098 12.168500 24.960346
v -9.536098 12.168500 22.790348
v -18.700798 15.309400 22.790348
v -18.700798 15.309400 24.960346
v -13.362900 1.002600 30.792747
v -22.527599 4.143500 30.792747
v -22.527599 4.143500 28.622746
v -13.362900 1.002600 28.622746
v -9.536098 12.168500 30.792747
v -9.536098 12.168500 28.622746
v -18.700798 15.309400 28.622746
v -18.700798 15.309400 30.792747
v 11.866900 1.002600 -30.169254
v 21.031601 4.143500 -30.169254
v 21.031601 4.143500 -27.999252
v 11.866900 1.002600 -27.999252
v 8.040100 12.168500 -30.169254
v 8.040100 12.168500 -27.999252
v 17.204800 15.309400 -27.999252
v 17.204800 15.309400 -30.169254
v 11.866900 1.002600 -24.336853
v 21.031601 4.143500 -24.336853
v 21.031601 4.143500 -22.166855
v 11.866900 1.002600 -22.166855
v 8.040100 12.168500 -24.336853
v 8.040100 12.168500 -22.166855
v 17.204800 15.309400 -22.166855
v 17.204800 15.309400 -24.336853
v 11.866900 1.002600 -18.504456
v 21.031601 4.143500 -18.504456
v 21.031601 4.143500 -16.334454
v 11.866900 1.002600 -16.334454
v 8.040100 12.168500 -18.504456
v 8.040100 12.168500 -16.334454
v 17.204800 15.309400 -16.334454
v 17.204800 15.309400 -18.504456
v 11.866900 1.002600 -12.672053
v 21.031601 4.143500 -12.672053
v 21.031601 4.143500 -10.502053
v 11.866900 1.002600 -10.502053
v 8.040100 12.168500 -12.672053
v 8.040100 12.168500 -10.502053
v 17.204800 15.309400 -10.502053
v 17.204800 15.309400 -12.672053
v 21.031601 4.143500 11.125546
v 21.031601 4.143500 13.295547
v 11.866900 1.002600 13.295547
v 11.866900 1.002600 11.125546
v 17.204800 15.309400 11.125546
v 8.040100 12.168500 11.125546
v 8.040100 12.168500 13.295547
v 17.204800 15.309400 13.295547
v 21.031601 4.143500 16.957947
v 21.031601 4.143500 19.127945
v 11.866900 1.002600 19.127945
v 11.866900 1.002600 16.957947
v 17.204800 15.309400 16.957947
v 8.040100 12.168500 16.957947
v 8.040100 12.168500 19.127945
v 17.204800 15.309400 19.127945
v 21.031601 4.143500 22.790348
v 21.031601 4.143500 24.960346
v 11.866900 1.002600 24.960346
v 11.866900 1.002600 22.790348
v 17.204800 15.309400 22.790348
v 8.040100 12.168500 22.790348
v 8.040100 12.168500 24.960346
v 17.204800 15.309400 24.960346
v 21.031601 4.143500 28.622746
v 21.031601 4.143500 30.792747
v 11.866900 1.002600 30.792747
v 11.866900 1.002600 28.622746
v 17.204800 15.309400 28.622746
v 8.040100 12.168500 28.622746
v 8.040100 12.168500 30.792747
v 17.204800 15.309400 30.792747
v 9.809400 10.139800 0.000048
v 9.809400 10.139800 -6.323153
v -23.331001 10.139800 -6.323153
v -23.331001 10.139800 0.000048
v -23.331001 5.802800 -6.323153
v -23.331001 5.802800 0.000048
v 9.809400 5.802800 0.000048
v 9.809400 5.802800 -6.323153
v -23.331001 10.139800 6.323148
v 9.809400 10.139800 6.323148
v -23.331001 5.802800 6.323148
v 9.809400 5.802800 6.323148
v 11.866900 1.002600 -3.630352
v 21.031601 4.143500 -3.630352
v 21.031601 4.143500 -1.460352
v 11.866900 1.002600 -1.460352
v 8.040100 12.168500 -3.630352
v 8.040100 12.168500 -1.460352
v 17.204800 15.309400 -1.460352
v 17.204800 15.309400 -3.630352
v 11.866900 1.002600 2.202048
v 21.031601 4.143500 2.202048
v 21.031601 4.143500 4.372048
v 11.866900 1.002600 4.372048
v 8.040100 12.168500 2.202048
v 8.040100 12.168500 4.372048
v 17.204800 15.309400 4.372048
v 17.204800 15.309400 2.202048
# 252 vertices

vt 0.558500 0.772200
vt 0.558500 0.169800
vt 0.686900 0.169800
vt 0.686900 0.772200
vt 0.974300 0.772200
vt 0.845800 0.772200
vt 0.845800 0.169800
vt 0.974300 0.169800
vt 0.845800 0.041400
vt 0.686900 0.041400
vt 0.845800 0.900700
vt 0.686900 0.900700
vt 0.271600 0.944300
vt 0.271600 0.363500
vt 0.050000 0.363500
vt 0.050000 0.944300
vt 0.271600 0.958900
vt 0.050000 0.958900
vt 0.035400 0.944300
vt 0.035400 0.363500
vt 0.050000 0.348900
vt 0.271600 0.348900
vt 0.286200 0.363500
vt 0.286200 0.944300
vt 0.104900 0.201900
vt 0.104900 0.177700
vt 0.213000 0.177700
vt 0.213000 0.201900
vt 0.104900 0.021800
vt 0.213000 0.021800
vt 0.213000 0.046000
vt 0.104900 0.046000
vt 0.080700 0.046000
vt 0.080700 0.177700
vt 0.213000 0.333600
vt 0.104900 0.333600
vt 0.237200 0.046000
vt 0.237200 0.177700
vt 0.315300 0.175500
vt 0.441700 0.175500
vt 0.441700 0.837900
vt 0.315300 0.837900
vt 0.441700 0.964300
vt 0.528400 0.837900
vt 0.528400 0.964300
vt 0.441700 0.049100
vt 0.528400 0.049100
vt 0.528400 0.175500
# 48 texture coordinates

vn 0.000000 1.000000 0.000000
vn 0.000000 -1.000000 0.000000
vn 0.000000 0.000000 -1.000000
vn 0.000000 0.000000 1.000000
vn -1.000000 0.000000 0.000000
vn 1.000000 0.000000 0.000000
vn -0.337597 0.941291 0.000000
vn -0.941290 -0.337599 0.000000
vn 0.941290 0.337598 0.000000
vn 0.337597 -0.941291 0.000000
vn 0.337597 0.941291 0.000000
vn 0.941290 -0.337598 0.000000
vn -0.941290 0.337599 0.000000
vn -0.337597 -0.941291 0.000000
vn 0.324206 -0.945986 0.000000
vn -0.324200 0.945989 0.000000
vn 0.945989 0.324198 0.000000
vn -0.945984 -0.324213 0.000000
vn -0.324206 -0.945986 0.000000
vn 0.324200 0.945989 0.000000
vn -0.945989 0.324198 0.000000
vn 0.945984 -0.324212 0.000000
# 22 normals

g Box004
s 2
f 1/1/1 2/2/1 3/3/1
f 1/1/1 3/3/1 4/4/1
s 4
f 5/5/2 6/6/2 7/7/2
f 5/5/2 7/7/2 8/8/2
s 8
f 8/9/3 7/7/3 3/3/3
f 8/9/3 3/3/3 2/10/3
s 32
f 6/6/4 5/11/4 1/12/4
f 6/6/4 1/12/4 4/4/4
s 31
f 7/7/5 6/6/5 4/4/5
f 7/7/5 4/4/5 3/3/5
s 2
f 1/1/1 9/4/1 10/3/1
f 1/1/1 10/3/1 2/2/1
s 4
f 5/5/2 8/8/2 11/7/2
f 5/5/2 11/7/2 12/6/2
s 8
f 8/9/3 2/10/3 10/3/3
f 8/9/3 10/3/3 11/7/3
s 32
f 12/6/4 9/4/4 1/12/4
f 12/6/4 1/12/4 5/11/4
s 31
f 11/7/6 10/3/6 9/4/6
f 11/7/6 9/4/6 12/6/6
s 4
f 13/13/7 14/14/7 15/15/7
f 13/13/7 15/15/7 16/16/7
s 8
f 17/17/4 13/13/4 16/16/4
f 17/17/4 16/16/4 18/18/4
s 16
f 18/19/8 16/16/8 15/15/8
f 18/19/8 15/15/8 19/20/8
s 32
f 19/21/3 15/15/3 14/14/3
f 19/21/3 14/14/3 20/22/3
s 31
f 20/23/9 14/14/9 13/13/9
f 20/23/9 13/13/9 17/24/9
s 4
f 21/13/10 22/16/10 23/15/10
f 21/13/10 23/15/10 24/14/10
s 8
f 17/17/4 18/18/4 22/16/4
f 17/17/4 22/16/4 21/13/4
s 16
f 18/19/8 19/20/8 23/15/8
f 18/19/8 23/15/8 22/16/8
s 32
f 19/21/3 20/22/3 24/14/3
f 19/21/3 24/14/3 23/15/3
s 31
f 20/23/9 17/24/9 21/13/9
f 20/23/9 21/13/9 24/14/9
s 4
f 25/15/11 26/14/11 27/13/11
f 25/15/11 27/13/11 28/16/11
s 8
f 28/16/4 27/13/4 29/17/4
f 28/16/4 29/17/4 30/18/4
s 16
f 25/15/12 28/16/12 30/19/12
f 25/15/12 30/19/12 31/20/12
s 32
f 26/14/3 25/15/3 31/21/3
f 26/14/3 31/21/3 32/22/3
s 31
f 27/13/13 26/14/13 32/23/13
f 27/13/13 32/23/13 29/24/13
s 4
f 33/15/14 34/16/14 35/13/14
f 33/15/14 35/13/14 36/14/14
s 8
f 34/16/4 30/18/4 29/17/4
f 34/16/4 29/17/4 35/13/4
s 16
f 33/15/12 31/20/12 30/19/12
f 33/15/12 30/19/12 34/16/12
s 32
f 36/14/3 32/22/3 31/21/3
f 36/14/3 31/21/3 33/15/3
s 31
f 35/13/13 29/24/13 32/23/13
f 35/13/13 32/23/13 36/14/13
s 2
f 37/25/15 38/26/15 39/27/15
f 37/25/15 39/27/15 40/28/15
s 4
f 41/29/16 42/30/16 43/31/16
f 41/29/16 43/31/16 44/32/16
s 8
f 44/32/4 43/31/4 39/27/4
f 44/32/4 39/27/4 38/26/4
s 16
f 41/33/17 44/32/17 38/26/17
f 41/33/17 38/26/17 37/34/17
s 32
f 42/35/3 41/36/3 37/25/3
f 42/35/3 37/25/3 40/28/3
s 31
f 43/31/18 42/37/18 40/38/18
f 43/31/18 40/38/18 39/27/18
s 2
f 45/25/15 46/26/15 47/27/15
f 45/25/15 47/27/15 48/28/15
s 4
f 49/29/16 50/30/16 51/31/16
f 49/29/16 51/31/16 52/32/16
s 8
f 52/32/4 51/31/4 47/27/4
f 52/32/4 47/27/4 46/26/4
s 16
f 49/33/17 52/32/17 46/26/17
f 49/33/17 46/26/17 45/34/17
s 32
f 50/35/3 49/36/3 45/25/3
f 50/35/3 45/25/3 48/28/3
s 31
f 51/31/18 50/37/18 48/38/18
f 51/31/18 48/38/18 47/27/18
s 4
f 53/39/1 54/40/1 55/41/1
f 53/39/1 55/41/1 56/42/1
s 8
f 56/43/4 55/41/4 57/44/4
f 56/43/4 57/44/4 58/45/4
s 32
f 54/40/3 53/46/3 59/47/3
f 54/40/3 59/47/3 60/48/3
s 31
f 55/41/5 54/40/5 60/48/5
f 55/41/5 60/48/5 57/44/5
s 4
f 53/39/1 56/42/1 61/41/1
f 53/39/1 61/41/1 62/40/1
s 8
f 56/43/4 58/45/4 63/44/4
f 56/43/4 63/44/4 61/41/4
s 32
f 62/40/3 64/48/3 59/47/3
f 62/40/3 59/47/3 53/46/3
s 31
f 61/41/6 63/44/6 64/48/6
f 61/41/6 64/48/6 62/40/6
s 2
f 65/27/19 66/26/19 67/25/19
f 65/27/19 67/25/19 68/28/19
s 4
f 69/31/20 70/30/20 71/29/20
f 69/31/20 71/29/20 72/32/20
s 8
f 65/27/4 69/31/4 72/32/4
f 65/27/4 72/32/4 66/26/4
s 16
f 66/26/21 72/32/21 71/33/21
f 66/26/21 71/33/21 67/34/21
s 32
f 67/25/3 71/36/3 70/35/3
f 67/25/3 70/35/3 68/28/3
s 31
f 68/38/22 70/37/22 69/31/22
f 68/38/22 69/31/22 65/27/22
s 2
f 73/27/19 74/26/19 75/25/19
f 73/27/19 75/25/19 76/28/19
s 4
f 77/31/20 78/30/20 79/29/20
f 77/31/20 79/29/20 80/32/20
s 8
f 73/27/4 77/31/4 80/32/4
f 73/27/4 80/32/4 74/26/4
s 16
f 74/26/21 80/32/21 79/33/21
f 74/26/21 79/33/21 75/34/21
s 32
f 75/25/3 79/36/3 78/35/3
f 75/25/3 78/35/3 76/28/3
s 31
f 76/38/22 78/37/22 77/31/22
f 76/38/22 77/31/22 73/27/22
s 2
f 81/25/19 82/26/19 83/27/19
f 81/25/19 83/27/19 84/28/19
s 4
f 85/29/20 86/30/20 87/31/20
f 85/29/20 87/31/20 88/32/20
s 8
f 88/32/3 87/31/3 83/27/3
f 88/32/3 83/27/3 82/26/3
s 16
f 85/33/21 88/32/21 82/26/21
f 85/33/21 82/26/21 81/34/21
s 32
f 86/35/4 85/36/4 81/25/4
f 86/35/4 81/25/4 84/28/4
s 31
f 87/31/22 86/37/22 84/38/22
f 87/31/22 84/38/22 83/27/22
s 2
f 89/25/19 90/26/19 91/27/19
f 89/25/19 91/27/19 92/28/19
s 4
f 93/29/20 94/30/20 95/31/20
f 93/29/20 95/31/20 96/32/20
s 8
f 96/32/3 95/31/3 91/27/3
f 96/32/3 91/27/3 90/26/3
s 16
f 93/33/21 96/32/21 90/26/21
f 93/33/21 90/26/21 89/34/21
s 32
f 94/35/4 93/36/4 89/25/4
f 94/35/4 89/25/4 92/28/4
s 31
f 95/31/22 94/37/22 92/38/22
f 95/31/22 92/38/22 91/27/22
s 2
f 97/25/19 98/26/19 99/27/19
f 97/25/19 99/27/19 100/28/19
s 4
f 101/29/20 102/30/20 103/31/20
f 101/29/20 103/31/20 104/32/20
s 8
f 104/32/3 103/31/3 99/27/3
f 104/32/3 99/27/3 98/26/3
s 16
f 101/33/21 104/32/21 98/26/21
f 101/33/21 98/26/21 97/34/21
s 32
f 102/35/4 101/36/4 97/25/4
f 102/35/4 97/25/4 100/28/4
s 31
f 103/31/22 102/37/22 100/38/22
f 103/31/22 100/38/22 99/27/22
s 2
f 105/25/19 106/26/19 107/27/19
f 105/25/19 107/27/19 108/28/19
s 4
f 109/29/20 110/30/20 111/31/20
f 109/29/20 111/31/20 112/32/20
s 8
f 112/32/3 111/31/3 107/27/3
f 112/32/3 107/27/3 106/26/3
s 16
f 109/33/21 112/32/21 106/26/21
f 109/33/21 106/26/21 105/34/21
s 32
f 110/35/4 109/36/4 105/25/4
f 110/35/4 105/25/4 108/28/4
s 31
f 111/31/22 110/37/22 108/38/22
f 111/31/22 108/38/22 107/27/22
s 2
f 113/25/15 114/26/15 115/27/15
f 113/25/15 115/27/15 116/28/15
s 4
f 117/29/16 118/30/16 119/31/16
f 117/29/16 119/31/16 120/32/16
s 8
f 120/32/4 119/31/4 115/27/4
f 120/32/4 115/27/4 114/26/4
s 16
f 117/33/17 120/32/17 114/26/17
f 117/33/17 114/26/17 113/34/17
s 32
f 118/35/3 117/36/3 113/25/3
f 118/35/3 113/25/3 116/28/3
s 31
f 119/31/18 118/37/18 116/38/18
f 119/31/18 116/38/18 115/27/18
s 2
f 121/25/15 122/26/15 123/27/15
f 121/25/15 123/27/15 124/28/15
s 4
f 125/29/16 126/30/16 127/31/16
f 125/29/16 127/31/16 128/32/16
s 8
f 128/32/4 127/31/4 123/27/4
f 128/32/4 123/27/4 122/26/4
s 16
f 125/33/17 128/32/17 122/26/17
f 125/33/17 122/26/17 121/34/17
s 32
f 126/35/3 125/36/3 121/25/3
f 126/35/3 121/25/3 124/28/3
s 31
f 127/31/18 126/37/18 124/38/18
f 127/31/18 124/38/18 123/27/18
s 2
f 129/27/19 130/26/19 131/25/19
f 129/27/19 131/25/19 132/28/19
s 4
f 133/31/20 134/30/20 135/29/20
f 133/31/20 135/29/20 136/32/20
s 8
f 129/27/4 133/31/4 136/32/4
f 129/27/4 136/32/4 130/26/4
s 16
f 130/26/21 136/32/21 135/33/21
f 130/26/21 135/33/21 131/34/21
s 32
f 131/25/3 135/36/3 134/35/3
f 131/25/3 134/35/3 132/28/3
s 31
f 132/38/22 134/37/22 133/31/22
f 132/38/22 133/31/22 129/27/22
s 2
f 137/27/19 138/26/19 139/25/19
f 137/27/19 139/25/19 140/28/19
s 4
f 141/31/20 142/30/20 143/29/20
f 141/31/20 143/29/20 144/32/20
s 8
f 137/27/4 141/31/4 144/32/4
f 137/27/4 144/32/4 138/26/4
s 16
f 138/26/21 144/32/21 143/33/21
f 138/26/21 143/33/21 139/34/21
s 32
f 139/25/3 143/36/3 142/35/3
f 139/25/3 142/35/3 140/28/3
s 31
f 140/38/22 142/37/22 141/31/22
f 140/38/22 141/31/22 137/27/22
s 2
f 145/27/19 146/26/19 147/25/19
f 145/27/19 147/25/19 148/28/19
s 4
f 149/31/20 150/30/20 151/29/20
f 149/31/20 151/29/20 152/32/20
s 8
f 145/27/4 149/31/4 152/32/4
f 145/27/4 152/32/4 146/26/4
s 16
f 146/26/21 152/32/21 151/33/21
f 146/26/21 151/33/21 147/34/21
s 32
f 147/25/3 151/36/3 150/35/3
f 147/25/3 150/35/3 148/28/3
s 31
f 148/38/22 150/37/22 149/31/22
f 148/38/22 149/31/22 145/27/22
s 2
f 153/27/19 154/26/19 155/25/19
f 153/27/19 155/25/19 156/28/19
s 4
f 157/31/20 158/30/20 159/29/20
f 157/31/20 159/29/20 160/32/20
s 8
f 153/27/4 157/31/4 160/32/4
f 153/27/4 160/32/4 154/26/4
s 16
f 154/26/21 160/32/21 159/33/21
f 154/26/21 159/33/21 155/34/21
s 32
f 155/25/3 159/36/3 158/35/3
f 155/25/3 158/35/3 156/28/3
s 31
f 156/38/22 158/37/22 157/31/22
f 156/38/22 157/31/22 153/27/22
s 2
f 161/27/15 162/26/15 163/25/15
f 161/27/15 163/25/15 164/28/15
s 4
f 165/31/16 166/30/16 167/29/16
f 165/31/16 167/29/16 168/32/16
s 8
f 161/27/3 165/31/3 168/32/3
f 161/27/3 168/32/3 162/26/3
s 16
f 162/26/17 168/32/17 167/33/17
f 162/26/17 167/33/17 163/34/17
s 32
f 163/25/4 167/36/4 166/35/4
f 163/25/4 166/35/4 164/28/4
s 31
f 164/38/18 166/37/18 165/31/18
f 164/38/18 165/31/18 161/27/18
s 2
f 169/27/15 170/26/15 171/25/15
f 169/27/15 171/25/15 172/28/15
s 4
f 173/31/16 174/30/16 175/29/16
f 173/31/16 175/29/16 176/32/16
s 8
f 169/27/3 173/31/3 176/32/3
f 169/27/3 176/32/3 170/26/3
s 16
f 170/26/17 176/32/17 175/33/17
f 170/26/17 175/33/17 171/34/17
s 32
f 171/25/4 175/36/4 174/35/4
f 171/25/4 174/35/4 172/28/4
s 31
f 172/38/18 174/37/18 173/31/18
f 172/38/18 173/31/18 169/27/18
s 2
f 177/27/15 178/26/15 179/25/15
f 177/27/15 179/25/15 180/28/15
s 4
f 181/31/16 182/30/16 183/29/16
f 181/31/16 183/29/16 184/32/16
s 8
f 177/27/3 181/31/3 184/32/3
f 177/27/3 184/32/3 178/26/3
s 16
f 178/26/17 184/32/17 183/33/17
f 178/26/17 183/33/17 179/34/17
s 32
f 179/25/4 183/36/4 182/35/4
f 179/25/4 182/35/4 180/28/4
s 31
f 180/38/18 182/37/18 181/31/18
f 180/38/18 181/31/18 177/27/18
s 2
f 185/27/15 186/26/15 187/25/15
f 185/27/15 187/25/15 188/28/15
s 4
f 189/31/16 190/30/16 191/29/16
f 189/31/16 191/29/16 192/32/16
s 8
f 185/27/3 189/31/3 192/32/3
f 185/27/3 192/32/3 186/26/3
s 16
f 186/26/17 192/32/17 191/33/17
f 186/26/17 191/33/17 187/34/17
s 32
f 187/25/4 191/36/4 190/35/4
f 187/25/4 190/35/4 188/28/4
s 31
f 188/38/18 190/37/18 189/31/18
f 188/38/18 189/31/18 185/27/18
s 2
f 193/25/15 194/26/15 195/27/15
f 193/25/15 195/27/15 196/28/15
s 4
f 197/29/16 198/30/16 199/31/16
f 197/29/16 199/31/16 200/32/16
s 8
f 200/32/4 199/31/4 195/27/4
f 200/32/4 195/27/4 194/26/4
s 16
f 197/33/17 200/32/17 194/26/17
f 197/33/17 194/26/17 193/34/17
s 32
f 198/35/3 197/36/3 193/25/3
f 198/35/3 193/25/3 196/28/3
s 31
f 199/31/18 198/37/18 196/38/18
f 199/31/18 196/38/18 195/27/18
s 2
f 201/25/15 202/26/15 203/27/15
f 201/25/15 203/27/15 204/28/15
s 4
f 205/29/16 206/30/16 207/31/16
f 205/29/16 207/31/16 208/32/16
s 8
f 208/32/4 207/31/4 203/27/4
f 208/32/4 203/27/4 202/26/4
s 16
f 205/33/17 208/32/17 202/26/17
f 205/33/17 202/26/17 201/34/17
s 32
f 206/35/3 205/36/3 201/25/3
f 206/35/3 201/25/3 204/28/3
s 31
f 207/31/18 206/37/18 204/38/18
f 207/31/18 204/38/18 203/27/18
s 2
f 209/25/15 210/26/15 211/27/15
f 209/25/15 211/27/15 212/28/15
s 4
f 213/29/16 214/30/16 215/31/16
f 213/29/16 215/31/16 216/32/16
s 8
f 216/32/4 215/31/4 211/27/4
f 216/32/4 211/27/4 210/26/4
s 16
f 213/33/17 216/32/17 210/26/17
f 213/33/17 210/26/17 209/34/17
s 32
f 214/35/3 213/36/3 209/25/3
f 214/35/3 209/25/3 212/28/3
s 31
f 215/31/18 214/37/18 212/38/18
f 215/31/18 212/38/18 211/27/18
s 2
f 217/25/15 218/26/15 219/27/15
f 217/25/15 219/27/15 220/28/15
s 4
f 221/29/16 222/30/16 223/31/16
f 221/29/16 223/31/16 224/32/16
s 8
f 224/32/4 223/31/4 219/27/4
f 224/32/4 219/27/4 218/26/4
s 16
f 221/33/17 224/32/17 218/26/17
f 221/33/17 218/26/17 217/34/17
s 32
f 222/35/3 221/36/3 217/25/3
f 222/35/3 217/25/3 220/28/3
s 31
f 223/31/18 222/37/18 220/38/18
f 223/31/18 220/38/18 219/27/18
s 4
f 225/39/1 226/40/1 227/41/1
f 225/39/1 227/41/1 228/42/1
s 8
f 228/43/5 227/41/5 229/44/5
f 228/43/5 229/44/5 230/45/5
s 32
f 226/40/6 225/46/6 231/47/6
f 226/40/6 231/47/6 232/48/6
s 31
f 227/41/3 226/40/3 232/48/3
f 227/41/3 232/48/3 229/44/3
s 4
f 225/39/1 228/42/1 233/41/1
f 225/39/1 233/41/1 234/40/1
s 8
f 228/43/5 230/45/5 235/44/5
f 228/43/5 235/44/5 233/41/5
s 32
f 234/40/6 236/48/6 231/47/6
f 234/40/6 231/47/6 225/46/6
s 31
f 233/41/4 235/44/4 236/48/4
f 233/41/4 236/48/4 234/40/4
s 2
f 237/27/15 238/26/15 239/25/15
f 237/27/15 239/25/15 240/28/15
s 4
f 241/31/16 242/30/16 243/29/16
f 241/31/16 243/29/16 244/32/16
s 8
f 237/27/3 241/31/3 244/32/3
f 237/27/3 244/32/3 238/26/3
s 16
f 238/26/17 244/32/17 243/33/17
f 238/26/17 243/33/17 239/34/17
s 32
f 239/25/4 243/36/4 242/35/4
f 239/25/4 242/35/4 240/28/4
s 31
f 240/38/18 242/37/18 241/31/18
f 240/38/18 241/31/18 237/27/18
s 2
f 245/27/15 246/26/15 247/25/15
f 245/27/15 247/25/15 248/28/15
s 4
f 249/31/16 250/30/16 251/29/16
f 249/31/16 251/29/16 252/32/16
s 8
f 245/27/3 249/31/3 252/32/3
f 245/27/3 252/32/3 246/26/3
s 16
f 246/26/17 252/32/17 251/33/17
f 246/26/17 251/33/17 247/34/17
s 32
f 247/25/4 251/36/4 250/35/4
f 247/25/4 250/35/4 248/28/4
s 31
f 248/38/18 250/37/18 249/31/18
f 248/38/18 249/31/18 245/27/18
# 380 triangles in group

# 380 triangles total

