# Wavefront OBJ exported by MilkShape 3D

mtllib terminal_installer.mtl

v -1.000000 -1.001968 -0.147370
v 1.000000 -1.001968 -0.147370
v -0.777778 -0.779746 -0.147370
v 0.777778 -0.779746 -0.147370
v -0.777778 0.775809 -0.147370
v 0.777778 0.775809 -0.147370
v -1.000000 0.998032 -0.147370
v 1.000000 0.998032 -0.147370
v -1.000000 -1.001968 -0.147370
v 1.000000 -1.001968 -0.147370
v -0.777778 -0.779746 -0.147370
v 0.777778 -0.779746 -0.147370
v -0.777778 0.775809 -0.147370
v 0.777778 0.775809 -0.147370
v -1.000000 -1.001968 0.113669
v 1.000000 -1.001968 0.113669
v -0.777778 -0.779746 0.113669
v 0.777778 -0.779746 0.113669
v -0.777778 0.775809 0.113669
v 0.777778 0.775809 0.113669
v -1.000000 0.998032 -0.147370
v 1.000000 0.998032 -0.147370
v -1.000000 0.998032 0.113669
v 1.000000 0.998032 0.113669
v 0.000000 0.998032 -0.147370
v 0.000000 0.998032 0.113669
v 0.000000 0.943716 -0.016850
v 0.500000 0.998032 -0.147370
v 0.500000 0.998032 0.113669
v -1.000000 1.139209 0.048409
v 1.000000 1.139209 -0.082110
v -0.500000 0.998032 -0.147370
v -0.500000 0.998032 0.113669
v -1.000000 1.139209 -0.082110
v 1.000000 1.139209 0.048409
v 0.000000 0.998032 0.048409
v 0.000000 0.998032 -0.082110
v 0.500000 1.139209 -0.016850
v -0.500000 1.139209 -0.016850
v -0.500000 1.139209 -0.082110
v 0.500000 1.139209 -0.082110
v 0.500000 1.139209 0.048409
v -0.500000 1.139209 0.048409
v -0.839590 1.132224 0.321289
v 0.856509 1.132224 0.321289
v 0.749220 0.989576 0.198249
v -0.750780 0.989576 0.198249
# 47 vertices

vt 0.000000 0.000000
vt 0.055762 0.053662
vt 0.055762 0.429293
vt 0.000000 0.482954
vt 0.197987 0.858600
vt 0.131990 0.858600
vt 0.131990 0.482969
vt 0.197987 0.482969
vt 0.131993 0.965922
vt 0.065996 0.965922
vt 0.065996 0.482968
vt 0.501509 0.482954
vt 0.445747 0.429293
vt 0.445747 0.053662
vt 0.501509 0.000000
vt 0.442792 0.053662
vt 0.498141 0.000000
vt 0.049498 1.000000
vt 0.016499 1.000000
vt 0.000000 0.965909
vt 0.235438 0.845183
vt 0.235438 0.724445
vt 0.197995 0.724444
vt 0.197995 0.845183
vt 0.501509 0.120739
vt 0.501509 0.241477
vt 0.501509 0.362216
vt 0.000000 0.120739
vt 0.000000 0.241477
vt 0.000000 0.362216
vt 0.200015 0.965913
vt 0.197999 0.965913
vt 0.236967 0.629396
vt 0.237082 0.750134
vt 0.253626 0.750134
vt 0.253466 0.629396
vt 0.197993 0.603693
vt 0.235989 0.603693
vt 0.200825 0.482955
vt 0.286562 0.629397
vt 0.286562 0.750136
vt 0.254527 0.629395
vt 0.349413 0.919504
vt 0.436801 0.859323
vt 0.436801 0.617846
vt 0.349414 0.557288
vt 0.308552 0.941078
vt 0.308552 0.531509
# 48 texture coordinates

vn 0.235702 -0.235702 0.942809
vn 0.408248 -0.408248 0.816497
vn -0.408248 -0.408248 0.816497
vn -0.333333 -0.666667 0.666667
vn -0.666667 0.333333 -0.666667
vn -0.333333 0.666667 0.666667
vn -0.707107 -0.707107 0.000000
vn 0.872872 -0.436436 0.218218
vn -0.970142 -0.242536 0.000000
vn 0.666667 -0.666667 -0.333333
vn 0.272166 0.136083 0.952579
vn 0.156174 0.312348 -0.937043
vn -0.392940 0.329751 -0.858407
vn -0.612037 0.740440 0.277776
vn -0.612037 0.562825 -0.555553
vn -0.539589 0.113204 0.834283
vn 0.153751 0.872668 0.463477
vn 0.063598 0.992627 -0.103184
vn 0.918795 0.385521 0.084794
vn -0.103142 0.904137 -0.414606
vn 0.000000 0.867104 0.498127
vn 0.424334 0.178048 -0.887829
vn -0.041331 0.996278 0.075648
vn 0.103142 0.904137 0.414606
vn 0.000000 0.979254 -0.202639
vn -0.128964 0.893184 0.430801
vn -0.103062 0.992270 -0.069132
vn -0.128312 0.913197 -0.386791
vn 0.103062 0.992270 0.069130
vn 0.000000 1.000000 -0.000002
vn -0.323660 0.921497 -0.214677
vn 0.106000 0.929185 -0.354090
vn 0.323660 0.921498 0.214675
vn 0.764764 0.542828 -0.347093
vn 0.510364 0.724510 0.463264
vn 0.000000 0.914185 -0.405297
vn 0.000000 0.653145 -0.757232
# 37 normals

g default
usemtl Material01
s 1
f 10/1/1 12/2/2 11/3/3
f 10/1/1 11/3/3 9/4/4
f 19/5/5 13/6/6 11/7/3
f 19/5/5 11/7/3 17/8/7
f 16/7/8 15/9/9 9/10/4
f 16/7/8 9/10/4 10/11/1
f 18/5/10 12/6/2 14/7/11
f 18/5/10 14/7/11 20/8/12
f 18/8/10 17/5/7 11/6/3
f 18/8/10 11/6/3 12/7/2
f 13/5/6 19/6/5 20/7/12
f 13/5/6 20/7/12 14/8/11
f 16/12/8 18/13/10 17/14/7
f 16/12/8 17/14/7 15/15/9
f 17/16/7 15/17/9 23/1/13
f 17/16/7 23/1/13 19/2/5
f 15/11/9 23/10/13 30/18/14
f 15/11/9 30/18/14 34/19/15
f 15/11/9 34/19/15 21/20/16
f 15/11/9 21/20/16 9/4/4
f 11/3/3 13/13/6 21/12/16
f 11/3/3 21/12/16 9/4/4
f 43/21/17 30/22/14 23/23/13
f 43/21/17 23/23/13 33/24/18
f 10/12/1 22/4/19 14/3/11
f 10/12/1 14/3/11 12/13/2
f 20/13/12 19/14/5 23/15/13
f 20/13/12 23/15/13 33/25/18
f 20/13/12 33/25/18 26/26/20
f 20/13/12 26/26/20 29/27/21
f 20/13/12 29/27/21 24/12/22
f 18/16/10 20/2/12 24/1/22
f 18/16/10 24/1/22 16/17/8
f 14/2/11 22/1/19 28/28/23
f 14/2/11 28/28/23 25/29/24
f 14/2/11 25/29/24 32/30/25
f 14/2/11 32/30/25 21/4/16
f 14/2/11 21/4/16 13/3/6
f 42/21/26 36/31/27 26/32/20
f 42/21/26 26/32/20 29/24/21
f 41/33/28 37/34/29 27/35/30
f 41/33/28 27/35/30 38/36/31
f 37/34/29 40/33/32 39/36/33
f 37/34/29 39/36/33 27/35/30
f 25/8/24 32/37/25 40/38/32
f 25/8/24 40/38/32 37/39/29
f 32/37/25 21/23/16 34/22/15
f 32/37/25 34/22/15 40/38/32
f 22/23/19 28/37/23 41/38/28
f 22/23/19 41/38/28 31/22/34
f 28/37/23 25/8/24 37/39/29
f 28/37/23 37/39/29 41/38/28
f 35/22/35 42/21/26 29/24/21
f 35/22/35 29/24/21 24/23/22
f 38/33/31 27/34/30 36/35/27
f 38/33/31 36/35/27 42/36/26
f 36/31/27 43/21/17 33/24/18
f 36/31/27 33/24/18 26/32/20
f 27/34/30 39/33/33 43/36/17
f 27/34/30 43/36/17 36/35/27
f 40/40/32 34/41/15 30/35/14
f 40/40/32 30/35/14 43/36/17
f 35/42/35 31/40/34 41/41/28
f 35/42/35 41/41/28 42/35/26
f 46/43/36 28/44/23 32/45/25
f 46/43/36 32/45/25 47/46/36
f 46/46/36 47/43/36 44/47/37
f 46/46/36 44/47/37 45/48/37
f 16/4/8 10/11/1 22/10/19
f 16/4/8 22/10/19 31/18/34
f 16/4/8 31/18/34 35/19/35
f 16/4/8 35/19/35 24/20/22
# 72 triangles in group

# 72 triangles total

