# This file uses centimeters as units for non-parametric coordinates.
# UVs by headus UVLayout v2.08.00 2012/05/02 06:40:44

mtllib wind_gen_pillar.mtl
g default
v 0.282843 0.005189 -0.282843
v 0.000000 0.005189 -0.400000
v -0.282843 0.005189 -0.282843
v -0.400000 0.005189 0.000000
v -0.282843 0.005189 0.282843
v 0.000000 0.005189 0.400000
v 0.282843 0.005189 0.282843
v 0.400000 0.005189 0.000000
v 0.282843 1.005189 -0.282843
v 0.000000 1.005189 -0.400000
v -0.282843 1.005189 -0.282843
v -0.400000 1.005189 0.000000
v -0.282843 1.005189 0.282843
v 0.000000 1.005189 0.400000
v 0.282843 1.005189 0.282843
v 0.400000 1.005189 0.000000
v 0.000000 0.005189 0.000000
v 0.000000 1.005189 0.000000
# 36 texture coords
# 50 texture coords
vt 0.313163 0.438163
vt 0.313163 0.438163
vt 0.091724 0.659603
vt 0.000000 0.438163
vt 0.091724 0.216723
vt 0.313163 0.751326
vt 0.313163 0.125000
vt 0.534602 0.659603
vt 0.534602 0.216723
vt 0.626325 0.438163
vt 0.091724 0.216723
vt 0.313163 0.125000
vt 0.534602 0.216723
vt 0.000000 0.438163
vt 0.626325 0.438163
vt 0.091724 0.659603
vt 0.534602 0.659603
vt 0.313163 0.751326
vt 0.956619 0.907930
vt 0.716935 0.907909
vt 0.956688 0.125022
vt 0.717004 0.125000
vt 0.716935 0.910680
vt 0.717004 0.127772
vt 0.956688 0.127793
vt 0.956619 0.910702
vt 0.716935 0.907909
vt 0.717004 0.125000
vt 0.956688 0.125022
vt 0.956619 0.907930
vt 0.956619 0.907930
vt 0.716935 0.907909
vt 0.956688 0.125022
vt 0.717004 0.125000
vt 0.717004 0.125000
vt 0.956688 0.125022
vt 0.716935 0.907909
vt 0.956619 0.907930
vt 0.956688 0.125022
vt 0.956619 0.907930
vt 0.716935 0.907909
vt 0.717004 0.125000
vt 0.717004 0.125000
vt 0.956688 0.125022
vt 0.716935 0.907909
vt 0.956619 0.907930
vt 0.717004 0.125000
vt 0.956688 0.125022
vt 0.716935 0.907909
vt 0.956619 0.907930
vn 0.382683 0.000000 -0.923880
vn 0.382683 0.000000 -0.923880
vn 0.382683 0.000000 -0.923880
vn 0.382683 0.000000 -0.923880
vn -0.382683 0.000000 -0.923880
vn -0.382683 0.000000 -0.923880
vn -0.382683 0.000000 -0.923880
vn -0.382683 0.000000 -0.923880
vn -0.923880 0.000000 -0.382683
vn -0.923880 0.000000 -0.382683
vn -0.923880 0.000000 -0.382683
vn -0.923880 0.000000 -0.382683
vn -0.923880 0.000000 0.382683
vn -0.923880 0.000000 0.382683
vn -0.923880 0.000000 0.382683
vn -0.923880 0.000000 0.382683
vn -0.382683 0.000000 0.923880
vn -0.382683 0.000000 0.923880
vn -0.382683 0.000000 0.923880
vn -0.382683 0.000000 0.923880
vn 0.382683 0.000000 0.923880
vn 0.382683 0.000000 0.923880
vn 0.382683 0.000000 0.923880
vn 0.382683 0.000000 0.923880
vn 0.923880 0.000000 0.382683
vn 0.923880 0.000000 0.382683
vn 0.923880 0.000000 0.382683
vn 0.923880 0.000000 0.382683
vn 0.923880 0.000000 -0.382684
vn 0.923880 0.000000 -0.382684
vn 0.923880 0.000000 -0.382684
vn 0.923880 0.000000 -0.382684
vn 0.000000 -1.000000 0.000000
vn 0.000000 -1.000000 0.000000
vn 0.000000 -1.000000 0.000000
vn 0.000000 -1.000000 0.000000
vn 0.000000 -1.000000 0.000000
vn 0.000000 -1.000000 0.000000
vn 0.000000 -1.000000 0.000000
vn 0.000000 -1.000000 0.000000
vn 0.000000 -1.000000 0.000000
vn 0.000000 1.000000 0.000000
vn 0.000000 1.000000 0.000000
vn 0.000000 1.000000 0.000000
vn 0.000000 1.000000 0.000000
vn 0.000000 1.000000 0.000000
vn 0.000000 1.000000 0.000000
vn 0.000000 1.000000 0.000000
vn 0.000000 1.000000 0.000000
vn 0.000000 1.000000 0.000000
s 1
g pCylinder2
usemtl initialShadingGroup
f 1/35/1 2/36/2 9/37/3
f 9/37/3 2/36/2 10/38/4
s 2
f 2/31/5 3/32/6 10/33/7
f 10/33/7 3/32/6 11/34/8
s 3
f 3/30/9 4/27/10 11/29/11
f 11/29/11 4/27/10 12/28/12
s 4
f 4/26/13 5/23/14 12/25/15
f 12/25/15 5/23/14 13/24/16
s 5
f 5/19/17 6/20/18 13/21/19
f 13/21/19 6/20/18 14/22/20
s 6
f 6/43/21 7/44/22 14/45/23
f 14/45/23 7/44/22 15/46/24
s 7
f 7/47/25 8/48/26 15/49/27
f 15/49/27 8/48/26 16/50/28
s 8
f 8/42/29 1/39/30 16/41/31
f 16/41/31 1/39/30 9/40/32
s 9
f 2/7/33 1/9/34 17/1/35
f 3/5/36 2/7/33 17/1/35
f 4/4/37 3/5/36 17/1/35
f 5/3/38 4/4/37 17/1/35
f 6/6/39 5/3/38 17/1/35
f 7/8/40 6/6/39 17/1/35
f 8/10/41 7/8/40 17/1/35
f 1/9/34 8/10/41 17/1/35
s 10
f 9/11/42 10/12/43 18/2/44
f 10/12/43 11/13/45 18/2/44
f 11/13/45 12/15/46 18/2/44
f 12/15/46 13/17/47 18/2/44
f 13/17/47 14/18/48 18/2/44
f 14/18/48 15/16/49 18/2/44
f 15/16/49 16/14/50 18/2/44
f 16/14/50 9/11/42 18/2/44
