# Wavefront OBJ exported by MilkShape 3D

v 0.190446 0.222197 0.005043
v -0.021686 0.310065 0.005043
v -0.233818 0.222197 0.005043
v -0.321686 0.010064 0.005043
v -0.233818 -0.202068 0.005043
v -0.021686 -0.289935 0.005043
v 0.190446 -0.202068 0.005043
v 0.278314 0.010064 0.005043
v 0.180340 0.212090 0.442542
v -0.021686 0.295773 0.442542
v -0.223713 0.212090 0.442542
v -0.307395 0.010064 0.442542
v -0.223713 -0.191963 0.442542
v -0.021686 -0.275646 0.442542
v 0.180340 -0.191963 0.442542
v 0.264022 0.010064 0.442542
v 0.076852 0.108603 0.621505
v -0.021686 0.149419 0.621505
v -0.120225 0.108603 0.621505
v -0.161041 0.010064 0.621505
v -0.120225 -0.088475 0.621505
v -0.021686 -0.129291 0.621505
v 0.076852 -0.088475 0.621505
v 0.117668 0.010064 0.621505
v -0.021686 0.010064 0.005043
v -0.021686 0.010064 0.621505
v -0.201303 0.195498 0.168637
v -0.017577 0.195498 0.119408
v -0.186461 0.195498 0.224029
v -0.002735 0.195498 0.174799
v -0.154347 7.195498 0.215424
v 0.126933 7.195498 0.140055
v -0.169189 7.195498 0.160033
v 0.112090 7.195498 0.084664
v -0.290512 1.945428 0.251909
v -0.305354 1.945428 0.196518
v 0.248116 1.945428 0.048216
v 0.262958 1.945428 0.103607
v -0.003915 7.195498 0.223077
v -0.042738 7.195498 0.078189
v -0.044935 1.945428 0.078777
v -0.122866 0.195498 0.099659
v -0.084043 0.195498 0.244548
v -0.006112 1.945428 0.223666
v -0.223235 0.852271 0.233882
v -0.238077 0.852271 0.178491
v -0.043884 0.852271 0.078495
v 0.180838 0.852271 0.066243
v 0.195680 0.852271 0.121634
v -0.005061 0.852271 0.223384
v -0.211746 0.644232 0.230804
v -0.226588 0.644232 0.175413
v -0.108629 0.644232 0.095844
v 0.037438 0.644232 0.104667
v 0.052280 0.644232 0.160058
v -0.069806 0.644232 0.240733
v -0.109904 -0.220706 0.168637
v -0.201767 -0.061595 0.119408
v -0.117325 -0.207855 0.224029
v -0.209188 -0.048742 0.174799
v -6.195559 -3.680043 0.215424
v -6.336199 -3.436446 0.140055
v -6.188139 -3.692895 0.160033
v -6.328778 -3.449300 0.084664
v -1.580783 -1.172929 0.251909
v -1.573362 -1.185785 0.196518
v -1.850097 -0.706464 0.048216
v -1.857518 -0.693610 0.103607
v -6.270776 -3.549764 0.223077
v -6.251364 -3.583385 0.078189
v -1.703571 -0.960254 0.078777
v -0.149122 -0.152778 0.099659
v -0.168534 -0.119157 0.244548
v -1.722983 -0.926631 0.223666
v -0.667721 -0.568088 0.233882
v -0.660300 -0.580941 0.178491
v -0.757397 -0.412765 0.078495
v -0.869758 -0.218150 0.066243
v -0.877179 -0.205297 0.121634
v -0.776808 -0.379144 0.223384
v -0.493299 -0.454118 0.230804
v -0.485878 -0.466974 0.175413
v -0.544857 -0.364816 0.095844
v -0.617891 -0.238319 0.104667
v -0.625312 -0.225465 0.160058
v -0.564269 -0.331195 0.240733
v 0.188319 0.139355 0.168637
v 0.096456 -0.019754 0.119408
v 0.180898 0.126502 0.224029
v 0.089035 -0.032609 0.174799
v 6.227020 -3.401307 0.215424
v 6.086380 -3.644904 0.140055
v 6.234440 -3.388454 0.160033
v 6.093801 -3.632049 0.084664
v 1.748408 -0.658351 0.251909
v 1.755829 -0.645498 0.196518
v 1.479094 -1.124816 0.048216
v 1.471673 -1.137670 0.103607
v 6.151804 -3.531585 0.223077
v 6.171215 -3.497964 0.078189
v 1.625619 -0.871026 0.078777
v 0.149101 0.071429 0.099659
v 0.129690 0.037806 0.244548
v 1.606208 -0.904649 0.223666
v 0.768069 -0.170038 0.233882
v 0.775490 -0.157184 0.178491
v 0.678393 -0.325361 0.078495
v 0.566032 -0.519975 0.066243
v 0.558611 -0.532829 0.121634
v 0.658982 -0.358981 0.223384
v 0.582157 -0.075967 0.230804
v 0.589578 -0.063113 0.175413
v 0.530599 -0.165269 0.095844
v 0.457565 -0.291766 0.104667
v 0.450144 -0.304620 0.160058
v 0.511187 -0.198890 0.240733
# 116 vertices

vt 0.559244 0.414296
vt 0.590020 0.416410
vt 0.555956 0.473007
vt 0.585255 0.475019
vt 0.620734 0.419298
vt 0.614499 0.477768
vt 0.374338 0.418012
vt 0.405077 0.415441
vt 0.379968 0.476541
vt 0.409236 0.474095
vt 0.435876 0.413645
vt 0.438551 0.472386
vt 0.466713 0.412631
vt 0.467897 0.471420
vt 0.497570 0.412402
vt 0.497257 0.471203
vt 0.528420 0.412958
vt 0.526616 0.471733
vt 0.543780 0.249628
vt 0.553836 0.277238
vt 0.518050 0.267019
vt 0.522949 0.280473
vt 0.549720 0.306329
vt 0.520941 0.294657
vt 0.437769 0.306865
vt 0.433394 0.277815
vt 0.466442 0.294938
vt 0.464307 0.280772
vt 0.443194 0.250119
vt 0.469081 0.267272
vt 0.464879 0.230290
vt 0.479642 0.257609
vt 0.493353 0.223007
vt 0.493503 0.254060
vt 0.521900 0.230003
vt 0.507398 0.257463
vt 0.372015 0.630178
vt 0.400511 0.641981
vt 0.372015 0.670477
vt 0.343519 0.641981
vt 0.331715 0.670477
vt 0.343519 0.698974
vt 0.372015 0.710777
vt 0.400511 0.698974
vt 0.412314 0.670477
vt 0.657953 0.679982
vt 0.644716 0.685464
vt 0.644716 0.666745
vt 0.631479 0.679982
vt 0.625995 0.666745
vt 0.631479 0.653508
vt 0.644716 0.648025
vt 0.657953 0.653508
vt 0.663436 0.666745
vt 0.094701 0.024580
vt 0.083449 0.017566
vt 0.101006 0.022165
vt 0.107906 0.015281
vt 0.117173 0.081931
vt 0.098001 0.083770
vt 0.081729 0.967561
vt 0.097570 0.977858
vt 0.076754 0.969691
vt 0.065716 0.976814
vt 0.090051 0.084605
vt 0.070802 0.082018
vt 0.925253 0.018020
vt 0.932552 0.078813
vt 0.918891 0.016320
vt 0.920621 0.079125
vt 0.087168 0.263553
vt 0.093921 0.262504
vt 0.049532 0.263878
vt 0.925856 0.262328
vt 0.933046 0.262266
vt 0.912113 0.968140
vt 0.916965 0.965840
vt 0.131620 0.263525
vt 0.900917 0.975171
vt 0.933482 0.976030
vt 0.972282 0.261332
vt 0.935993 0.009410
vt 0.952661 0.071859
vt 0.910696 0.009099
vt 0.900146 0.073552
vt 0.886509 0.262047
vt 0.088483 0.114637
vt 0.097785 0.113597
vt 0.059046 0.112590
vt 0.956554 0.104780
vt 0.930277 0.114387
vt 0.925313 0.114065
vt 0.898412 0.105993
vt 0.127312 0.112571
vt 0.091803 0.024486
vt 0.080508 0.017540
vt 0.098093 0.022033
vt 0.104950 0.015105
vt 0.114630 0.081697
vt 0.095469 0.083655
vt 0.084634 0.967528
vt 0.100540 0.977727
vt 0.079675 0.969689
vt 0.068679 0.976880
vt 0.087525 0.084539
vt 0.068259 0.082072
vt 0.928693 0.020646
vt 0.935911 0.081450
vt 0.922332 0.018937
vt 0.923981 0.081746
vt 0.085746 0.263501
vt 0.092493 0.262411
vt 0.048111 0.264056
vt 0.929012 0.264952
vt 0.936208 0.264896
vt 0.914583 0.970748
vt 0.919440 0.968452
vt 0.130198 0.263199
vt 0.903378 0.977767
vt 0.935942 0.978662
vt 0.975462 0.264003
vt 0.939444 0.012050
vt 0.956029 0.074521
vt 0.914147 0.011708
vt 0.903515 0.076149
vt 0.889664 0.264628
vt 0.086143 0.114578
vt 0.095438 0.113483
vt 0.056692 0.112714
vt 0.959882 0.107442
vt 0.933595 0.117020
vt 0.928632 0.116691
vt 0.901741 0.108589
vt 0.124957 0.112273
vt 0.092598 0.025563
vt 0.081345 0.018550
vt 0.098901 0.023148
vt 0.105802 0.016263
vt 0.115077 0.082910
vt 0.095905 0.084752
vt 0.079777 0.968546
vt 0.095620 0.978839
vt 0.074803 0.970676
vt 0.063765 0.977800
vt 0.087957 0.085588
vt 0.923404 0.018320
vt 0.931155 0.079060
vt 0.917030 0.016669
vt 0.919226 0.079459
vt 0.085101 0.264537
vt 0.091854 0.263487
vt 0.917349 0.968510
vt 0.922163 0.966141
vt 0.129555 0.264501
vt 0.906191 0.975631
vt 0.938771 0.976258
vt 0.934078 0.009631
vt 0.951213 0.071954
vt 0.908780 0.009510
vt 0.898711 0.074040
vt 0.086392 0.115620
vt 0.095695 0.114579
vt 0.955351 0.104845
vt 0.929146 0.114652
vt 0.924180 0.114364
vt 0.897219 0.106492
vt 0.125223 0.113548
# 167 texture coordinates

vn 0.382509 0.923459 0.030166
vn 0.374273 0.903575 0.208501
vn 0.375672 0.906954 0.190540
vn -0.382509 0.923459 0.030166
vn -0.374273 0.903575 0.208501
vn -0.375672 0.906954 0.190540
vn -0.923459 0.382509 0.030166
vn -0.903575 0.374273 0.208501
vn -0.906954 0.375672 0.190540
vn -0.923459 -0.382509 0.030166
vn -0.903574 -0.374273 0.208502
vn -0.906954 -0.375672 0.190540
vn -0.382509 -0.923459 0.030166
vn -0.374273 -0.903575 0.208501
vn -0.375672 -0.906954 0.190540
vn 0.382509 -0.923459 0.030166
vn 0.374273 -0.903574 0.208502
vn 0.375672 -0.906954 0.190540
vn 0.923459 -0.382509 0.030166
vn 0.903575 -0.374273 0.208501
vn 0.906953 -0.375673 0.190540
vn 0.923459 0.382509 0.030166
vn 0.903575 0.374273 0.208501
vn 0.906953 0.375673 0.190540
vn 0.305333 0.737140 0.602823
vn -0.305333 0.737140 0.602823
vn -0.737140 0.305333 0.602824
vn -0.737140 -0.305333 0.602823
vn -0.305333 -0.737140 0.602823
vn 0.305333 -0.737140 0.602823
vn 0.737140 -0.305333 0.602823
vn 0.737140 0.305333 0.602823
vn -0.000000 0.000000 -1.000000
vn 0.000000 0.000000 1.000000
vn 0.000000 -1.000000 0.000000
vn 0.249964 0.000301 0.968255
vn 0.243821 -0.023442 0.969537
vn -0.165799 0.006393 0.986139
vn -0.069769 -0.018865 0.997385
vn -0.000001 1.000000 -0.000005
vn -0.559114 -0.018865 -0.828876
vn -0.273613 -0.023442 -0.961554
vn -0.636656 0.006393 -0.771122
vn -0.267652 0.000301 -0.963516
vn 0.958238 -0.125914 -0.256759
vn 0.921888 -0.298503 -0.247019
vn -0.964307 -0.057870 0.258385
vn -0.965579 0.026841 0.258721
vn -0.965865 0.011242 0.258803
vn -0.258738 0.000000 -0.965948
vn -0.258872 0.002002 -0.965910
vn -0.535467 0.000398 -0.844556
vn -0.411970 0.001872 -0.911196
vn 0.965865 0.011220 -0.258803
vn 0.965577 0.026814 -0.258731
vn 0.098821 0.001872 0.995103
vn 0.258766 0.002002 0.965938
vn -0.041450 0.000398 0.999141
vn 0.258900 -0.000000 0.965904
vn 0.032386 0.000152 -0.999475
vn -0.103723 0.001812 -0.994605
vn 0.154277 -0.020569 -0.987814
vn 0.030865 -0.080042 -0.996314
vn 0.627514 -0.020569 0.778333
vn 0.524887 -0.080042 0.847400
vn 0.527785 0.000152 0.849378
vn 0.407475 0.001812 0.913215
vn -0.964035 -0.062547 0.258312
vn -0.453831 0.003601 -0.891081
vn -0.252173 -0.007380 -0.967654
vn -0.063499 -0.015912 -0.997855
vn 0.952635 -0.165316 -0.255258
vn 0.265439 -0.007380 0.964100
vn 0.443936 -0.015912 0.895917
vn 0.052511 0.003601 0.998614
vn 0.866019 0.500012 0.000019
vn -0.125242 0.216325 0.968255
vn -0.101609 0.222877 0.969537
vn 0.077363 -0.146782 0.986139
vn 0.051221 -0.050989 0.997385
vn -0.866025 -0.500001 -0.000005
vn 0.295894 -0.474774 -0.828876
vn 0.157108 -0.225235 -0.961554
vn 0.312792 -0.554556 -0.771122
vn 0.133566 -0.231944 -0.963516
vn -0.370074 0.892816 -0.256759
vn -0.202432 0.947630 -0.247019
vn 0.532271 -0.806179 0.258385
vn 0.459544 -0.849637 0.258721
vn 0.473196 -0.842085 0.258803
vn 0.129369 -0.224074 -0.965948
vn 0.127702 -0.225190 -0.965910
vn 0.267389 -0.463927 -0.844556
vn 0.204364 -0.357712 -0.911196
vn -0.492649 0.830854 -0.258803
vn -0.506010 0.822808 -0.258731
vn -0.051032 0.084646 0.995103
vn -0.131116 0.223097 0.965938
vn 0.020380 -0.036096 0.999141
vn -0.129450 0.224214 0.965904
vn -0.016325 0.027971 -0.999475
vn 0.050292 -0.090733 -0.994605
vn -0.059325 0.143892 -0.987814
vn 0.053886 0.066751 -0.996314
vn -0.295944 0.553728 0.778333
vn -0.193125 0.494587 0.847400
vn -0.264024 0.456999 0.849378
vn -0.205307 0.351978 0.913215
vn 0.536184 -0.803605 0.258312
vn 0.223796 -0.394830 -0.891081
vn 0.132478 -0.214698 -0.967654
vn 0.045530 -0.047035 -0.997855
vn -0.333150 0.907664 -0.255258
vn -0.126328 0.233567 0.964100
vn -0.208187 0.392416 0.895917
vn -0.029375 0.043675 0.998614
vn -0.866020 0.500009 -0.000002
vn -0.124721 -0.216625 0.968255
vn -0.142212 -0.199434 0.969537
vn 0.088436 0.140390 0.986139
vn 0.018547 0.069854 0.997385
vn 0.866026 -0.499999 -0.000005
vn 0.263220 0.493639 -0.828876
vn 0.116505 0.248677 -0.961554
vn 0.323864 0.548164 -0.771122
vn 0.134087 0.231643 -0.963516
vn -0.588164 -0.766901 -0.256759
vn -0.719455 -0.649127 -0.247019
vn 0.432036 0.864050 0.258385
vn 0.506035 0.822795 0.258721
vn 0.492669 0.830842 0.258803
vn 0.129369 0.224074 -0.965948
vn 0.131169 0.223188 -0.965910
vn 0.268079 0.463529 -0.844556
vn 0.207606 0.355840 -0.911196
vn -0.473216 -0.842074 -0.258803
vn -0.459567 -0.849621 -0.258731
vn -0.047790 -0.086518 0.995103
vn -0.127649 -0.225098 0.965938
vn 0.021070 0.035697 0.999141
vn -0.129450 -0.224214 0.965904
vn -0.016061 -0.028123 -0.999475
vn 0.053431 0.088921 -0.994605
vn -0.094952 -0.123323 -0.987814
vn -0.084751 0.013291 -0.996314
vn -0.331570 -0.533159 0.778333
vn -0.331762 -0.414544 0.847400
vn -0.263761 -0.457151 0.849378
vn -0.202168 -0.353790 0.913215
vn 0.427850 0.866152 0.258312
vn 0.230034 0.391228 -0.891081
vn 0.119695 0.222078 -0.967654
vn 0.017969 0.062948 -0.997855
vn -0.619486 -0.742348 -0.255258
vn -0.139111 -0.226186 0.964100
vn -0.235748 -0.376504 0.895917
vn -0.023137 -0.047277 0.998614
# 157 normals

g default
# 0 triangles in group

g initialShadingGroup
s 1
f 1/1/1 2/2/1 9/3/2
f 9/3/2 2/2/1 10/4/3
f 2/2/4 3/5/4 10/4/5
f 10/4/5 3/5/4 11/6/6
f 3/7/7 4/8/7 11/9/8
f 11/9/8 4/8/7 12/10/9
f 4/8/10 5/11/10 12/10/11
f 12/10/11 5/11/10 13/12/12
f 5/11/13 6/13/13 13/12/14
f 13/12/14 6/13/13 14/14/15
f 6/13/16 7/15/16 14/14/17
f 14/14/17 7/15/16 15/16/18
f 7/15/19 8/17/19 15/16/20
f 15/16/20 8/17/19 16/18/21
f 8/17/22 1/1/22 16/18/23
f 16/18/23 1/1/22 9/3/24
f 9/19/2 10/20/3 17/21/25
f 17/21/25 10/20/3 18/22/25
f 10/20/5 11/23/6 18/22/26
f 18/22/26 11/23/6 19/24/26
f 11/25/8 12/26/9 19/27/27
f 19/27/27 12/26/9 20/28/27
f 12/26/11 13/29/12 20/28/28
f 20/28/28 13/29/12 21/30/28
f 13/29/14 14/31/15 21/30/29
f 21/30/29 14/31/15 22/32/29
f 14/31/17 15/33/18 22/32/30
f 22/32/30 15/33/18 23/34/30
f 15/33/20 16/35/21 23/34/31
f 23/34/31 16/35/21 24/36/31
f 16/35/23 9/19/24 24/36/32
f 24/36/32 9/19/24 17/21/32
f 2/37/33 1/38/33 25/39/33
f 3/40/33 2/37/33 25/39/33
f 4/41/33 3/40/33 25/39/33
f 5/42/33 4/41/33 25/39/33
f 6/43/33 5/42/33 25/39/33
f 7/44/33 6/43/33 25/39/33
f 8/45/33 7/44/33 25/39/33
f 1/38/33 8/45/33 25/39/33
f 17/46/34 18/47/34 26/48/34
f 18/47/34 19/49/34 26/48/34
f 19/49/34 20/50/34 26/48/34
f 20/50/34 21/51/34 26/48/34
f 21/51/34 22/52/34 26/48/34
f 22/52/34 23/53/34 26/48/34
f 23/53/34 24/54/34 26/48/34
f 24/54/34 17/46/34 26/48/34
f 27/55/35 42/56/35 29/57/35
f 29/57/35 42/56/35 43/58/35
f 43/58/36 56/59/37 29/57/38
f 29/57/38 56/59/37 51/60/39
f 31/61/40 39/62/40 33/63/40
f 33/63/40 39/62/40 40/64/40
f 52/65/41 53/66/42 27/55/43
f 27/55/43 53/66/42 42/56/44
f 28/67/45 54/68/46 30/69/45
f 30/69/45 54/68/46 55/70/46
f 52/65/47 27/55/47 51/60/47
f 51/60/47 27/55/47 29/57/47
f 33/63/48 36/71/49 31/61/48
f 31/61/48 36/71/49 35/72/49
f 40/64/50 41/73/51 33/63/52
f 33/63/52 41/73/51 36/71/53
f 38/74/54 37/75/54 32/76/55
f 32/76/55 37/75/54 34/77/55
f 35/72/56 44/78/57 31/61/58
f 31/61/58 44/78/57 39/62/59
f 39/79/40 32/76/40 40/80/40
f 40/80/40 32/76/40 34/77/40
f 40/80/50 34/77/60 41/81/51
f 41/81/51 34/77/60 37/75/61
f 42/82/44 53/83/42 28/67/62
f 28/67/62 53/83/42 54/68/63
f 43/84/35 42/82/35 30/69/35
f 30/69/35 42/82/35 28/67/35
f 43/84/36 30/69/64 56/85/37
f 56/85/37 30/69/64 55/70/65
f 39/79/59 44/86/57 32/76/66
f 32/76/66 44/86/57 38/74/67
f 36/71/49 46/87/68 35/72/49
f 35/72/49 46/87/68 45/88/68
f 36/71/53 41/73/51 46/87/69
f 46/87/69 41/73/51 47/89/70
f 47/90/70 41/81/51 48/91/71
f 48/91/71 41/81/51 37/75/61
f 49/92/72 48/91/72 38/74/54
f 38/74/54 48/91/72 37/75/54
f 50/93/73 49/92/74 44/86/57
f 44/86/57 49/92/74 38/74/67
f 50/94/73 44/78/57 45/88/75
f 45/88/75 44/78/57 35/72/56
f 46/87/68 52/65/47 45/88/68
f 45/88/68 52/65/47 51/60/47
f 47/89/70 53/66/42 46/87/69
f 46/87/69 53/66/42 52/65/41
f 53/83/42 47/90/70 54/68/63
f 54/68/63 47/90/70 48/91/71
f 55/70/46 54/68/46 49/92/72
f 49/92/72 54/68/46 48/91/72
f 56/85/37 55/70/65 50/93/73
f 50/93/73 55/70/65 49/92/74
f 51/60/39 56/59/37 45/88/75
f 45/88/75 56/59/37 50/94/73
f 57/95/76 72/96/76 59/97/76
f 59/97/76 72/96/76 73/98/76
f 73/98/77 86/99/78 59/97/79
f 59/97/79 86/99/78 81/100/80
f 61/101/81 69/102/81 63/103/81
f 63/103/81 69/102/81 70/104/81
f 82/105/82 83/106/83 57/95/84
f 57/95/84 83/106/83 72/96/85
f 58/107/86 84/108/87 60/109/86
f 60/109/86 84/108/87 85/110/87
f 82/105/88 57/95/88 81/100/88
f 81/100/88 57/95/88 59/97/88
f 63/103/89 66/111/90 61/101/89
f 61/101/89 66/111/90 65/112/90
f 70/104/91 71/113/92 63/103/93
f 63/103/93 71/113/92 66/111/94
f 68/114/95 67/115/95 62/116/96
f 62/116/96 67/115/95 64/117/96
f 65/112/97 74/118/98 61/101/99
f 61/101/99 74/118/98 69/102/100
f 69/119/81 62/116/81 70/120/81
f 70/120/81 62/116/81 64/117/81
f 70/120/91 64/117/101 71/121/92
f 71/121/92 64/117/101 67/115/102
f 72/122/85 83/123/83 58/107/103
f 58/107/103 83/123/83 84/108/104
f 73/124/76 72/122/76 60/109/76
f 60/109/76 72/122/76 58/107/76
f 73/124/77 60/109/105 86/125/78
f 86/125/78 60/109/105 85/110/106
f 69/119/100 74/126/98 62/116/107
f 62/116/107 74/126/98 68/114/108
f 66/111/90 76/127/109 65/112/90
f 65/112/90 76/127/109 75/128/109
f 66/111/94 71/113/92 76/127/110
f 76/127/110 71/113/92 77/129/111
f 77/130/111 71/121/92 78/131/112
f 78/131/112 71/121/92 67/115/102
f 79/132/113 78/131/113 68/114/95
f 68/114/95 78/131/113 67/115/95
f 80/133/114 79/132/115 74/126/98
f 74/126/98 79/132/115 68/114/108
f 80/134/114 74/118/98 75/128/116
f 75/128/116 74/118/98 65/112/97
f 76/127/109 82/105/88 75/128/109
f 75/128/109 82/105/88 81/100/88
f 77/129/111 83/106/83 76/127/110
f 76/127/110 83/106/83 82/105/82
f 83/123/83 77/130/111 84/108/104
f 84/108/104 77/130/111 78/131/112
f 85/110/87 84/108/87 79/132/113
f 79/132/113 84/108/87 78/131/113
f 86/125/78 85/110/106 80/133/114
f 80/133/114 85/110/106 79/132/115
f 81/100/80 86/99/78 75/128/116
f 75/128/116 86/99/78 80/134/114
f 87/135/117 102/136/117 89/137/117
f 89/137/117 102/136/117 103/138/117
f 103/138/118 116/139/119 89/137/120
f 89/137/120 116/139/119 111/140/121
f 91/141/122 99/142/122 93/143/122
f 93/143/122 99/142/122 100/144/122
f 112/145/123 113/106/124 87/135/125
f 87/135/125 113/106/124 102/136/126
f 88/146/127 114/147/128 90/148/127
f 90/148/127 114/147/128 115/149/128
f 112/145/129 87/135/129 111/140/129
f 111/140/129 87/135/129 89/137/129
f 93/143/130 96/150/131 91/141/130
f 91/141/130 96/150/131 95/151/131
f 100/144/132 101/113/133 93/143/134
f 93/143/134 101/113/133 96/150/135
f 98/74/136 97/75/136 92/152/137
f 92/152/137 97/75/136 94/153/137
f 95/151/138 104/154/139 91/141/140
f 91/141/140 104/154/139 99/142/141
f 99/155/122 92/152/122 100/156/122
f 100/156/122 92/152/122 94/153/122
f 100/156/132 94/153/142 101/81/133
f 101/81/133 94/153/142 97/75/143
f 102/157/126 113/158/124 88/146/144
f 88/146/144 113/158/124 114/147/145
f 103/159/117 102/157/117 90/148/117
f 90/148/117 102/157/117 88/146/117
f 103/159/118 90/148/146 116/160/119
f 116/160/119 90/148/146 115/149/147
f 99/155/141 104/86/139 92/152/148
f 92/152/148 104/86/139 98/74/149
f 96/150/131 106/161/150 95/151/131
f 95/151/131 106/161/150 105/162/150
f 96/150/135 101/113/133 106/161/151
f 106/161/151 101/113/133 107/129/152
f 107/163/152 101/81/133 108/164/153
f 108/164/153 101/81/133 97/75/143
f 109/165/154 108/164/154 98/74/136
f 98/74/136 108/164/154 97/75/136
f 110/166/155 109/165/156 104/86/139
f 104/86/139 109/165/156 98/74/149
f 110/167/155 104/154/139 105/162/157
f 105/162/157 104/154/139 95/151/138
f 106/161/150 112/145/129 105/162/150
f 105/162/150 112/145/129 111/140/129
f 107/129/152 113/106/124 106/161/151
f 106/161/151 113/106/124 112/145/123
f 113/158/124 107/163/152 114/147/145
f 114/147/145 107/163/152 108/164/153
f 115/149/128 114/147/128 109/165/154
f 109/165/154 114/147/128 108/164/154
f 116/160/119 115/149/147 110/166/155
f 110/166/155 115/149/147 109/165/156
f 111/140/121 116/139/119 105/162/157
f 105/162/157 116/139/119 110/167/155
# 216 triangles in group

# 216 triangles total

