# This file uses centimeters as units for non-parametric coordinates.
# UVs by headus UVLayout v2.08.00 2012/05/02 06:40:44

mtllib windgen_main.mtl
g default
v 0.282843 0.774361 0.732924
v 0.000000 0.891518 0.732924
v -0.282843 0.774361 0.732924
v -0.400000 0.491518 0.732924
v -0.282843 0.208675 0.732924
v 0.000000 0.091518 0.732924
v 0.282843 0.208675 0.732924
v 0.400000 0.491518 0.732924
v 0.282843 0.774361 0.832924
v 0.000000 0.891518 0.832924
v -0.282843 0.774361 0.832924
v -0.400000 0.491518 0.832924
v -0.282843 0.208675 0.832924
v 0.000000 0.091518 0.832924
v 0.282843 0.208675 0.832924
v 0.400000 0.491518 0.832924
v 0.000000 0.491518 0.732924
v 0.000000 0.491518 0.832924
v -0.500000 0.004177 -0.674932
v 0.500000 0.004177 -0.674932
v -0.500000 0.004177 0.754164
v 0.500000 0.004177 0.754164
v -0.500000 1.004177 0.754164
v 0.500000 1.004177 0.754164
v -0.500000 1.004177 -0.674932
v 0.500000 1.004177 -0.674932
v -0.238485 0.265694 -1.491752
v 0.238485 0.265694 -1.491752
v -0.440202 0.063976 -0.562645
v 0.440202 0.063976 -0.562645
v -0.440202 0.944380 -0.562645
v 0.440202 0.944380 -0.562645
v -0.238485 0.742662 -1.491752
v 0.238485 0.742662 -1.491752
# 98 texture coords
# 98 texture coords
# 98 texture coords
vt 0.870464 0.191348
vt 0.870464 0.191348
vt 0.216482 0.133534
vt 0.315100 0.133534
vt 0.216482 0.165747
vt 0.315100 0.165747
vt 0.216482 0.133534
vt 0.315100 0.133534
vt 0.216482 0.165747
vt 0.315100 0.165747
vt 0.216482 0.133534
vt 0.315100 0.133534
vt 0.216482 0.165747
vt 0.315100 0.165747
vt 0.216482 0.133534
vt 0.315100 0.133534
vt 0.216482 0.165747
vt 0.315100 0.165747
vt 0.216482 0.133534
vt 0.315100 0.133534
vt 0.216482 0.165747
vt 0.315100 0.165747
vt 0.216482 0.133534
vt 0.315100 0.133534
vt 0.216482 0.165747
vt 0.315100 0.165747
vt 0.216482 0.133534
vt 0.315100 0.133534
vt 0.216482 0.165747
vt 0.315100 0.165747
vt 0.216482 0.133534
vt 0.315100 0.133534
vt 0.216482 0.165747
vt 0.315100 0.165747
vt 0.870464 0.062500
vt 0.961573 0.100239
vt 0.999310 0.191348
vt 0.779356 0.100239
vt 0.961573 0.282456
vt 0.741617 0.191348
vt 0.870464 0.320194
vt 0.779356 0.282456
vt 0.961573 0.282456
vt 0.870464 0.320194
vt 0.779356 0.282456
vt 0.999310 0.191348
vt 0.741617 0.191348
vt 0.961573 0.100239
vt 0.779356 0.100239
vt 0.870464 0.062500
vt 0.663953 0.878041
vt 0.341834 0.878023
vt 0.663981 0.417703
vt 0.341863 0.417683
vt 0.003375 0.630792
vt 0.325495 0.630792
vt 0.003375 0.952911
vt 0.325495 0.952911
vt 0.663954 0.878023
vt 0.341834 0.878023
vt 0.663954 0.417683
vt 0.341834 0.417683
vt 0.003375 0.630792
vt 0.325495 0.630792
vt 0.003375 0.952911
vt 0.325495 0.952911
vt 0.670753 0.417683
vt 0.992873 0.417683
vt 0.670753 0.878023
vt 0.992873 0.878023
vt 0.670753 0.417683
vt 0.992873 0.417683
vt 0.670753 0.878023
vt 0.992873 0.878023
vt 0.406809 0.062500
vt 0.560450 0.062500
vt 0.341834 0.368755
vt 0.625428 0.368755
vt 0.003375 0.275608
vt 0.286969 0.275608
vt 0.003375 0.559203
vt 0.286969 0.559203
vt 0.625428 0.368755
vt 0.341834 0.368755
vt 0.560450 0.062500
vt 0.406809 0.062500
vt 0.003375 0.062500
vt 0.157014 0.062500
vt 0.003375 0.216141
vt 0.157014 0.216141
vt 0.406809 0.062500
vt 0.560450 0.062500
vt 0.341834 0.368755
vt 0.625428 0.368755
vt 0.406809 0.062500
vt 0.560450 0.062500
vt 0.341834 0.368755
vt 0.625428 0.368755
vn 0.382683 0.923880 0.000000
vn 0.382683 0.923880 0.000000
vn 0.382683 0.923880 0.000000
vn 0.382683 0.923880 0.000000
vn 0.382683 0.923880 0.000000
vn 0.382683 0.923880 0.000000
vn -0.382683 0.923880 0.000000
vn -0.382683 0.923880 0.000000
vn -0.382683 0.923880 0.000000
vn -0.382683 0.923880 0.000000
vn -0.382683 0.923880 0.000000
vn -0.382683 0.923880 0.000000
vn -0.923880 0.382683 0.000000
vn -0.923880 0.382683 0.000000
vn -0.923880 0.382683 0.000000
vn -0.923880 0.382683 0.000000
vn -0.923880 0.382683 0.000000
vn -0.923880 0.382683 0.000000
vn -0.923880 -0.382683 0.000000
vn -0.923880 -0.382683 0.000000
vn -0.923880 -0.382683 0.000000
vn -0.923880 -0.382683 0.000000
vn -0.923880 -0.382683 0.000000
vn -0.923880 -0.382683 0.000000
vn -0.382683 -0.923880 0.000000
vn -0.382683 -0.923880 0.000000
vn -0.382683 -0.923880 0.000000
vn -0.382683 -0.923880 0.000000
vn -0.382683 -0.923880 0.000000
vn -0.382683 -0.923880 0.000000
vn 0.382683 -0.923880 0.000000
vn 0.382683 -0.923880 0.000000
vn 0.382683 -0.923880 0.000000
vn 0.382683 -0.923880 0.000000
vn 0.382683 -0.923880 0.000000
vn 0.382683 -0.923880 0.000000
vn 0.923880 -0.382683 0.000000
vn 0.923880 -0.382683 0.000000
vn 0.923880 -0.382683 0.000000
vn 0.923880 -0.382683 0.000000
vn 0.923880 -0.382683 0.000000
vn 0.923880 -0.382683 0.000000
vn 0.923879 0.382684 0.000000
vn 0.923879 0.382684 0.000000
vn 0.923879 0.382684 0.000000
vn 0.923879 0.382684 0.000000
vn 0.923879 0.382684 0.000000
vn 0.923879 0.382684 0.000000
vn 0.000000 0.000000 -1.000000
vn 0.000000 0.000000 -1.000000
vn 0.000000 0.000000 -1.000000
vn 0.000000 0.000000 -1.000000
vn 0.000000 0.000000 -1.000000
vn 0.000000 0.000000 -1.000000
vn 0.000000 0.000000 -1.000000
vn 0.000000 0.000000 -1.000000
vn 0.000000 0.000000 -1.000000
vn 0.000000 0.000000 -1.000000
vn 0.000000 0.000000 -1.000000
vn 0.000000 0.000000 -1.000000
vn 0.000000 0.000000 -1.000000
vn 0.000000 0.000000 -1.000000
vn 0.000000 0.000000 -1.000000
vn 0.000000 0.000000 -1.000000
vn 0.000000 0.000000 -1.000000
vn 0.000000 0.000000 -1.000000
vn 0.000000 0.000000 -1.000000
vn 0.000000 0.000000 -1.000000
vn 0.000000 0.000000 -1.000000
vn 0.000000 0.000000 -1.000000
vn 0.000000 0.000000 -1.000000
vn 0.000000 0.000000 -1.000000
vn 0.000000 0.000000 1.000000
vn 0.000000 0.000000 1.000000
vn 0.000000 0.000000 1.000000
vn 0.000000 0.000000 1.000000
vn 0.000000 0.000000 1.000000
vn 0.000000 0.000000 1.000000
vn 0.000000 0.000000 1.000000
vn 0.000000 0.000000 1.000000
vn 0.000000 0.000000 1.000000
vn 0.000000 0.000000 1.000000
vn 0.000000 0.000000 1.000000
vn 0.000000 0.000000 1.000000
vn 0.000000 0.000000 1.000000
vn 0.000000 0.000000 1.000000
vn 0.000000 0.000000 1.000000
vn 0.000000 0.000000 1.000000
vn 0.000000 0.000000 1.000000
vn 0.000000 0.000000 1.000000
vn 0.000000 0.000000 1.000000
vn 0.000000 0.000000 1.000000
vn 0.000000 0.000000 1.000000
vn 0.000000 0.000000 1.000000
vn 0.000000 0.000000 1.000000
vn 0.000000 0.000000 1.000000
s off
g windgen_main:pCylinder3
usemtl initialShadingGroup
f 1/3/1 2/4/2 9/5/3
f 9/5/4 2/4/5 10/6/6
f 2/7/7 3/8/8 10/9/9
f 10/9/10 3/8/11 11/10/12
f 3/11/13 4/12/14 11/13/15
f 11/13/16 4/12/17 12/14/18
f 4/15/19 5/16/20 12/17/21
f 12/17/22 5/16/23 13/18/24
f 5/19/25 6/20/26 13/21/27
f 13/21/28 6/20/29 14/22/30
f 6/23/31 7/24/32 14/25/33
f 14/25/34 7/24/35 15/26/36
f 7/27/37 8/28/38 15/29/39
f 15/29/40 8/28/41 16/30/42
f 8/31/43 1/32/44 16/33/45
f 16/33/46 1/32/47 9/34/48
f 2/35/49 1/36/50 17/1/51
f 3/38/52 2/35/53 17/1/54
f 4/40/55 3/38/56 17/1/57
f 5/42/58 4/40/59 17/1/60
f 6/41/61 5/42/62 17/1/63
f 7/39/64 6/41/65 17/1/66
f 8/37/67 7/39/68 17/1/69
f 1/36/70 8/37/71 17/1/72
f 9/43/73 10/44/74 18/2/75
f 10/44/76 11/45/77 18/2/78
f 11/45/79 12/47/80 18/2/81
f 12/47/82 13/49/83 18/2/84
f 13/49/85 14/50/86 18/2/87
f 14/50/88 15/48/89 18/2/90
f 15/48/91 16/46/92 18/2/93
f 16/46/94 9/43/95 18/2/96
g default
v -0.500000 0.004177 -0.674932
v 0.500000 0.004177 -0.674932
v -0.500000 0.004177 0.754164
v 0.500000 0.004177 0.754164
v -0.500000 1.004177 0.754164
v 0.500000 1.004177 0.754164
v -0.500000 1.004177 -0.674932
v 0.500000 1.004177 -0.674932
vn 0.000000 -1.000000 0.000000
vn 0.000000 -1.000000 0.000000
vn 0.000000 -1.000000 0.000000
vn 0.000000 -1.000000 0.000000
vn 0.000000 -1.000000 0.000000
vn 0.000000 -1.000000 0.000000
vn 0.000000 0.000000 1.000000
vn 0.000000 0.000000 1.000000
vn 0.000000 0.000000 1.000000
vn 0.000000 0.000000 1.000000
vn 0.000000 0.000000 1.000000
vn 0.000000 0.000000 1.000000
vn 0.000000 1.000000 0.000000
vn 0.000000 1.000000 0.000000
vn 0.000000 1.000000 0.000000
vn 0.000000 1.000000 0.000000
vn 0.000000 1.000000 0.000000
vn 0.000000 1.000000 0.000000
vn 0.000000 0.000000 -1.000000
vn 0.000000 0.000000 -1.000000
vn 0.000000 0.000000 -1.000000
vn 0.000000 0.000000 -1.000000
vn 0.000000 0.000000 -1.000000
vn 0.000000 0.000000 -1.000000
vn 1.000000 0.000000 0.000000
vn 1.000000 0.000000 0.000000
vn 1.000000 0.000000 0.000000
vn 1.000000 0.000000 0.000000
vn 1.000000 0.000000 0.000000
vn 1.000000 0.000000 0.000000
vn -1.000000 0.000000 0.000000
vn -1.000000 0.000000 0.000000
vn -1.000000 0.000000 0.000000
vn -1.000000 0.000000 0.000000
vn -1.000000 0.000000 0.000000
vn -1.000000 0.000000 0.000000
s off
g windgen_main:pCube17
usemtl initialShadingGroup
f 35/51/97 36/52/98 37/53/99
f 37/53/100 36/52/101 38/54/102
f 37/55/103 38/56/104 39/57/105
f 39/57/106 38/56/107 40/58/108
f 39/59/109 40/60/110 41/61/111
f 41/61/112 40/60/113 42/62/114
f 41/63/115 42/64/116 35/65/117
f 35/65/118 42/64/119 36/66/120
f 36/67/121 42/68/122 38/69/123
f 38/69/124 42/68/125 40/70/126
f 41/71/127 35/72/128 39/73/129
f 39/73/130 35/72/131 37/74/132
g default
v -0.238485 0.265694 -1.491752
v 0.238485 0.265694 -1.491752
v -0.440202 0.063976 -0.562645
v 0.440202 0.063976 -0.562645
v -0.440202 0.944380 -0.562645
v 0.440202 0.944380 -0.562645
v -0.238485 0.742662 -1.491752
v 0.238485 0.742662 -1.491752
vn 0.000000 -0.977234 -0.212167
vn 0.000000 -0.977234 -0.212167
vn 0.000000 -0.977234 -0.212167
vn 0.000000 -0.977234 -0.212167
vn 0.000000 -0.977234 -0.212167
vn 0.000000 -0.977234 -0.212167
vn 0.000000 0.000000 1.000000
vn 0.000000 0.000000 1.000000
vn 0.000000 0.000000 1.000000
vn 0.000000 0.000000 1.000000
vn 0.000000 0.000000 1.000000
vn 0.000000 0.000000 1.000000
vn 0.000000 0.977234 -0.212166
vn 0.000000 0.977234 -0.212166
vn 0.000000 0.977234 -0.212166
vn 0.000000 0.977234 -0.212166
vn 0.000000 0.977234 -0.212166
vn 0.000000 0.977234 -0.212166
vn 0.000000 0.000000 -1.000000
vn 0.000000 0.000000 -1.000000
vn 0.000000 0.000000 -1.000000
vn 0.000000 0.000000 -1.000000
vn 0.000000 0.000000 -1.000000
vn 0.000000 0.000000 -1.000000
vn 0.977234 0.000000 -0.212166
vn 0.977234 0.000000 -0.212166
vn 0.977234 0.000000 -0.212166
vn 0.977234 0.000000 -0.212166
vn 0.977234 0.000000 -0.212166
vn 0.977234 0.000000 -0.212166
vn -0.977234 0.000000 -0.212166
vn -0.977234 0.000000 -0.212166
vn -0.977234 0.000000 -0.212166
vn -0.977234 0.000000 -0.212166
vn -0.977234 0.000000 -0.212166
vn -0.977234 0.000000 -0.212166
s off
g windgen_main:pCube18
usemtl initialShadingGroup
f 43/75/133 44/76/134 45/77/135
f 45/77/136 44/76/137 46/78/138
f 45/79/139 46/80/140 47/81/141
f 47/81/142 46/80/143 48/82/144
f 47/83/145 48/84/146 49/85/147
f 49/85/148 48/84/149 50/86/150
f 49/87/151 50/88/152 43/89/153
f 43/89/154 50/88/155 44/90/156
f 44/91/157 50/92/158 46/93/159
f 46/93/160 50/92/161 48/94/162
f 49/95/163 43/96/164 47/97/165
f 47/97/166 43/96/167 45/98/168
