# This file uses centimeters as units for non-parametric coordinates.

mtllib wind_gen_pillar.mtl
g default
v 0.282843 0.023774 -0.282843
v 0.000000 0.023774 -0.400000
v -0.282843 0.023774 -0.282843
v -0.400000 0.023774 0.000000
v -0.282843 0.023774 0.282843
v 0.000000 0.023774 0.400000
v 0.282843 0.023774 0.282843
v 0.400000 0.023774 0.000000
v 0.282843 18.023773 -0.282843
v 0.000000 18.023773 -0.400000
v -0.282843 18.023773 -0.282843
v -0.400000 18.023773 0.000000
v -0.282843 18.023773 0.282843
v 0.000000 18.023773 0.400000
v 0.282843 18.023773 0.282843
v 0.400000 18.023773 0.000000
v 0.000000 0.023774 0.000000
v 0.000000 18.023773 0.000000
vt 0.004608 0.529308
vt 0.004668 0.512549
vt 0.991569 0.532943
vt 0.991631 0.516107
vt 0.004729 0.495814
vt 0.991690 0.499296
vt 0.004238 0.630137
vt 0.004296 0.613353
vt 0.991201 0.633549
vt 0.991260 0.616797
vt 0.004357 0.596512
vt 0.991319 0.600046
vt 0.004419 0.579679
vt 0.991381 0.583309
vt 0.004481 0.562866
vt 0.991445 0.566550
vt 0.004546 0.546086
vt 0.991508 0.549754
vt 0.488785 0.365083
vt 0.504293 0.371508
vt 0.488785 0.387015
vt 0.473276 0.371508
vt 0.466851 0.387015
vt 0.473276 0.402524
vt 0.488785 0.408948
vt 0.504293 0.402524
vt 0.510718 0.387015
vt 0.473263 0.371499
vt 0.488772 0.365074
vt 0.488772 0.387006
vt 0.504281 0.371499
vt 0.510704 0.387006
vt 0.504281 0.402515
vt 0.488772 0.408939
vt 0.473263 0.402515
vt 0.466839 0.387006
vn 0.382683 0.000000 -0.923880
vn 0.382683 0.000000 -0.923880
vn 0.382683 0.000000 -0.923880
vn 0.382683 0.000000 -0.923880
vn 0.382683 0.000000 -0.923880
vn 0.382683 0.000000 -0.923880
vn -0.382683 0.000000 -0.923880
vn -0.382683 0.000000 -0.923880
vn -0.382683 0.000000 -0.923880
vn -0.382683 0.000000 -0.923880
vn -0.382683 0.000000 -0.923880
vn -0.382683 0.000000 -0.923880
vn -0.923880 0.000000 -0.382683
vn -0.923880 0.000000 -0.382683
vn -0.923880 0.000000 -0.382683
vn -0.923880 0.000000 -0.382683
vn -0.923880 0.000000 -0.382683
vn -0.923880 0.000000 -0.382683
vn -0.923880 0.000000 0.382683
vn -0.923880 0.000000 0.382683
vn -0.923880 0.000000 0.382683
vn -0.923880 0.000000 0.382683
vn -0.923880 0.000000 0.382683
vn -0.923880 0.000000 0.382683
vn -0.382683 0.000000 0.923880
vn -0.382684 0.000000 0.923879
vn -0.382684 0.000000 0.923879
vn -0.382684 0.000000 0.923879
vn -0.382684 0.000000 0.923879
vn -0.382683 0.000000 0.923880
vn 0.382683 0.000000 0.923880
vn 0.382683 0.000000 0.923880
vn 0.382684 0.000000 0.923879
vn 0.382684 0.000000 0.923879
vn 0.382683 0.000000 0.923880
vn 0.382683 0.000000 0.923880
vn 0.923880 0.000000 0.382683
vn 0.923880 0.000000 0.382683
vn 0.923880 0.000000 0.382683
vn 0.923880 0.000000 0.382683
vn 0.923880 0.000000 0.382683
vn 0.923880 0.000000 0.382683
vn 0.923879 0.000000 -0.382684
vn 0.923879 0.000000 -0.382684
vn 0.923879 0.000000 -0.382684
vn 0.923879 0.000000 -0.382684
vn 0.923879 0.000000 -0.382684
vn 0.923879 0.000000 -0.382684
vn 0.000000 -1.000000 0.000000
vn 0.000000 -1.000000 0.000000
vn 0.000000 -1.000000 0.000001
vn 0.000000 -1.000000 0.000000
vn 0.000000 -1.000000 0.000000
vn 0.000000 -1.000000 0.000001
vn 0.000000 -1.000000 0.000000
vn 0.000000 -1.000000 0.000000
vn 0.000000 -1.000000 0.000001
vn 0.000000 -1.000000 0.000000
vn 0.000000 -1.000000 0.000000
vn 0.000000 -1.000000 0.000001
vn 0.000000 -1.000000 0.000000
vn 0.000000 -1.000000 0.000000
vn 0.000000 -1.000000 0.000001
vn 0.000000 -1.000000 0.000002
vn 0.000000 -1.000000 0.000000
vn 0.000000 -1.000000 0.000001
vn 0.000000 -1.000000 0.000002
vn 0.000000 -1.000000 0.000002
vn 0.000000 -1.000000 0.000001
vn 0.000000 -1.000000 0.000000
vn 0.000000 -1.000000 0.000002
vn 0.000000 -1.000000 0.000001
vn 0.000000 1.000000 -0.000002
vn 0.000000 1.000000 0.000000
vn 0.000000 1.000000 0.000000
vn 0.000000 1.000000 0.000000
vn 0.000000 1.000000 0.000000
vn 0.000000 1.000000 0.000000
vn 0.000000 1.000000 0.000000
vn 0.000000 1.000000 0.000000
vn 0.000000 1.000000 0.000000
vn 0.000000 1.000000 0.000000
vn 0.000000 1.000000 0.000000
vn 0.000000 1.000000 0.000000
vn 0.000000 1.000000 0.000000
vn 0.000000 1.000000 0.000000
vn 0.000000 1.000000 0.000000
vn 0.000000 1.000000 0.000000
vn 0.000000 1.000000 0.000002
vn 0.000000 1.000000 0.000000
vn 0.000000 1.000000 0.000002
vn 0.000000 1.000000 0.000000
vn 0.000000 1.000000 0.000000
vn 0.000000 1.000000 0.000000
vn 0.000000 1.000000 -0.000002
vn 0.000000 1.000000 0.000000
s off
g pCylinder2
usemtl initialShadingGroup1
f 1/1/1 2/2/2 9/3/3
f 9/3/4 2/2/5 10/4/6
f 2/2/7 3/5/8 10/4/9
f 10/4/10 3/5/11 11/6/12
f 3/7/13 4/8/14 11/9/15
f 11/9/16 4/8/17 12/10/18
f 4/8/19 5/11/20 12/10/21
f 12/10/22 5/11/23 13/12/24
f 5/11/25 6/13/26 13/12/27
f 13/12/28 6/13/29 14/14/30
f 6/13/31 7/15/32 14/14/33
f 14/14/34 7/15/35 15/16/36
f 7/15/37 8/17/38 15/16/39
f 15/16/40 8/17/41 16/18/42
f 8/17/43 1/1/44 16/18/45
f 16/18/46 1/1/47 9/3/48
f 2/19/49 1/20/50 17/21/51
f 3/22/52 2/19/53 17/21/54
f 4/23/55 3/22/56 17/21/57
f 5/24/58 4/23/59 17/21/60
f 6/25/61 5/24/62 17/21/63
f 7/26/64 6/25/65 17/21/66
f 8/27/67 7/26/68 17/21/69
f 1/20/70 8/27/71 17/21/72
f 9/28/73 10/29/74 18/30/75
f 10/29/76 11/31/77 18/30/78
f 11/31/79 12/32/80 18/30/81
f 12/32/82 13/33/83 18/30/84
f 13/33/85 14/34/86 18/30/87
f 14/34/88 15/35/89 18/30/90
f 15/35/91 16/36/92 18/30/93
f 16/36/94 9/28/95 18/30/96
