# Wavefront OBJ exported by MilkShape 3D

v 0.282843 0.774361 0.732924
v 0.000000 0.891518 0.732924
v -0.282843 0.774361 0.732924
v -0.400000 0.491518 0.732924
v -0.282843 0.208675 0.732924
v 0.000000 0.091518 0.732924
v 0.282843 0.208675 0.732924
v 0.400000 0.491518 0.732924
v 0.282843 0.774361 0.832924
v 0.000000 0.891518 0.832924
v -0.282843 0.774361 0.832924
v -0.400000 0.491518 0.832924
v -0.282843 0.208675 0.832924
v 0.000000 0.091518 0.832924
v 0.282843 0.208675 0.832924
v 0.400000 0.491518 0.832924
v 0.000000 0.491518 0.732924
v 0.000000 0.491518 0.832924
v -0.500000 0.004177 -0.674932
v 0.500000 0.004177 -0.674932
v -0.500000 0.004177 0.754164
v 0.500000 0.004177 0.754164
v -0.500000 1.004177 0.754164
v 0.500000 1.004177 0.754164
v -0.500000 1.004177 -0.674932
v 0.500000 1.004177 -0.674932
v -0.238485 0.265694 -1.491752
v 0.238485 0.265694 -1.491752
v -0.440202 0.063976 -0.562645
v 0.440202 0.063976 -0.562645
v -0.440202 0.944380 -0.562645
v 0.440202 0.944380 -0.562645
v -0.238485 0.742662 -1.491752
v 0.238485 0.742662 -1.491752
v -0.500000 0.004177 -0.674932
v 0.500000 0.004177 -0.674932
v -0.500000 0.004177 0.754164
v 0.500000 0.004177 0.754164
v -0.500000 1.004177 0.754164
v 0.500000 1.004177 0.754164
v -0.500000 1.004177 -0.674932
v 0.500000 1.004177 -0.674932
v -0.238485 0.265694 -1.491752
v 0.238485 0.265694 -1.491752
v -0.440202 0.063976 -0.562645
v 0.440202 0.063976 -0.562645
v -0.440202 0.944380 -0.562645
v 0.440202 0.944380 -0.562645
v -0.238485 0.742662 -1.491752
v 0.238485 0.742662 -1.491752
# 50 vertices

vt 0.216482 0.133534
vt 0.315100 0.133534
vt 0.216482 0.165747
vt 0.315100 0.165747
vt 0.870464 0.062500
vt 0.961573 0.100239
vt 0.870464 0.191348
vt 0.779356 0.100239
vt 0.741617 0.191348
vt 0.779356 0.282456
vt 0.870464 0.320194
vt 0.961573 0.282456
vt 0.999310 0.191348
vt 0.663953 0.878041
vt 0.341834 0.878023
vt 0.663981 0.417703
vt 0.341863 0.417683
vt 0.003375 0.630792
vt 0.325495 0.630792
vt 0.003375 0.952911
vt 0.325495 0.952911
vt 0.670753 0.417683
vt 0.992873 0.417683
vt 0.670753 0.878023
vt 0.992873 0.878023
vt 0.406809 0.062500
vt 0.560450 0.062500
vt 0.341834 0.368755
vt 0.625428 0.368755
vt 0.003375 0.275608
vt 0.286969 0.275608
vt 0.003375 0.559203
vt 0.286969 0.559203
vt 0.003375 0.062500
vt 0.157014 0.062500
vt 0.003375 0.216141
vt 0.157014 0.216141
# 37 texture coordinates

vn 0.382683 0.923880 0.000000
vn -0.382683 0.923880 0.000000
vn -0.923880 0.382683 0.000000
vn -0.923880 -0.382683 0.000000
vn -0.382683 -0.923880 0.000000
vn 0.382683 -0.923880 0.000000
vn 0.923880 -0.382683 0.000000
vn 0.923879 0.382684 0.000000
vn 0.000000 0.000000 -1.000000
vn 0.000000 0.000000 1.000000
vn 0.000000 -1.000000 0.000000
vn 0.000000 1.000000 0.000000
vn 1.000000 0.000000 0.000000
vn -1.000000 0.000000 0.000000
vn 0.000000 -0.977234 -0.212167
vn 0.000000 0.977234 -0.212166
vn 0.977234 0.000000 -0.212166
vn -0.977234 0.000000 -0.212166
# 18 normals

g default
# 0 triangles in group

g windgen_main_pCylinder3
s 1
f 1/1/1 2/2/1 9/3/1
f 9/3/1 2/2/1 10/4/1
f 2/1/2 3/2/2 10/3/2
f 10/3/2 3/2/2 11/4/2
f 3/1/3 4/2/3 11/3/3
f 11/3/3 4/2/3 12/4/3
f 4/1/4 5/2/4 12/3/4
f 12/3/4 5/2/4 13/4/4
f 5/1/5 6/2/5 13/3/5
f 13/3/5 6/2/5 14/4/5
f 6/1/6 7/2/6 14/3/6
f 14/3/6 7/2/6 15/4/6
f 7/1/7 8/2/7 15/3/7
f 15/3/7 8/2/7 16/4/7
f 8/1/8 1/2/8 16/3/8
f 16/3/8 1/2/8 9/4/8
f 2/5/9 1/6/9 17/7/9
f 3/8/9 2/5/9 17/7/9
f 4/9/9 3/8/9 17/7/9
f 5/10/9 4/9/9 17/7/9
f 6/11/9 5/10/9 17/7/9
f 7/12/9 6/11/9 17/7/9
f 8/13/9 7/12/9 17/7/9
f 1/6/9 8/13/9 17/7/9
f 9/12/10 10/11/10 18/7/10
f 10/11/10 11/10/10 18/7/10
f 11/10/10 12/9/10 18/7/10
f 12/9/10 13/8/10 18/7/10
f 13/8/10 14/5/10 18/7/10
f 14/5/10 15/6/10 18/7/10
f 15/6/10 16/13/10 18/7/10
f 16/13/10 9/12/10 18/7/10
# 32 triangles in group

g windgen_main_pCube17
f 35/14/11 36/15/11 37/16/11
f 37/16/11 36/15/11 38/17/11
f 37/18/10 38/19/10 39/20/10
f 39/20/10 38/19/10 40/21/10
f 39/14/12 40/15/12 41/16/12
f 41/16/12 40/15/12 42/17/12
f 41/18/9 42/19/9 35/20/9
f 35/20/9 42/19/9 36/21/9
f 36/22/13 42/23/13 38/24/13
f 38/24/13 42/23/13 40/25/13
f 41/22/14 35/23/14 39/24/14
f 39/24/14 35/23/14 37/25/14
# 12 triangles in group

g windgen_main_pCube18
f 43/26/15 44/27/15 45/28/15
f 45/28/15 44/27/15 46/29/15
f 45/30/10 46/31/10 47/32/10
f 47/32/10 46/31/10 48/33/10
f 47/29/16 48/28/16 49/27/16
f 49/27/16 48/28/16 50/26/16
f 49/34/9 50/35/9 43/36/9
f 43/36/9 50/35/9 44/37/9
f 44/26/17 50/27/17 46/28/17
f 46/28/17 50/27/17 48/29/17
f 49/26/18 43/27/18 47/28/18
f 47/28/18 43/27/18 45/29/18
# 12 triangles in group

# 56 triangles total

