# Wavefront OBJ exported by MilkShape 3D
# UVs by headus UVLayout v2.08.00 2012/05/02 06:40:44

v 0.282843 0.774361 0.732924
v 0.000000 0.891518 0.732924
v -0.282843 0.774361 0.732924
v -0.400000 0.491518 0.732924
v -0.282843 0.208675 0.732924
v 0.000000 0.091518 0.732924
v 0.282843 0.208675 0.732924
v 0.400000 0.491518 0.732924
v 0.282843 0.774361 0.832924
v 0.000000 0.891518 0.832924
v -0.282843 0.774361 0.832924
v -0.400000 0.491518 0.832924
v -0.282843 0.208675 0.832924
v 0.000000 0.091518 0.832924
v 0.282843 0.208675 0.832924
v 0.400000 0.491518 0.832924
v 0.000000 0.491518 0.732924
v 0.000000 0.491518 0.832924
v -0.500000 0.004177 -0.674932
v 0.500000 0.004177 -0.674932
v -0.500000 0.004177 0.754164
v 0.500000 0.004177 0.754164
v -0.500000 1.004177 0.754164
v 0.500000 1.004177 0.754164
v -0.500000 1.004177 -0.674932
v 0.500000 1.004177 -0.674932
v -0.238485 0.265694 -1.491752
v 0.238485 0.265694 -1.491752
v -0.440202 0.063976 -0.562645
v 0.440202 0.063976 -0.562645
v -0.440202 0.944380 -0.562645
v 0.440202 0.944380 -0.562645
v -0.238485 0.742662 -1.491752
v 0.238485 0.742662 -1.491752
# 34 vertices

# 98 texture coords
vt 0.870465 0.191348
vt 0.870465 0.191348
vt 0.184892 0.062500
vt 0.184892 0.216141
vt 0.031250 0.216141
vt 0.031250 0.062500
vt 0.353370 0.630793
vt 0.353370 0.952913
vt 0.031250 0.952913
vt 0.031250 0.630793
vt 0.031250 0.630793
vt 0.353370 0.630793
vt 0.031250 0.952913
vt 0.353370 0.952913
vt 0.708553 0.878023
vt 0.386433 0.878023
vt 0.708553 0.417683
vt 0.386433 0.417683
vt 0.708553 0.417683
vt 0.708553 0.878023
vt 0.386433 0.878023
vt 0.386433 0.417683
vt 0.386433 0.878023
vt 0.386463 0.417683
vt 0.708582 0.417703
vt 0.708552 0.878043
vt 0.386433 0.417683
vt 0.708553 0.417683
vt 0.386433 0.878023
vt 0.708553 0.878023
vt 0.031250 0.275609
vt 0.314845 0.275609
vt 0.031250 0.559204
vt 0.314845 0.559204
vt 0.451410 0.062500
vt 0.605051 0.062500
vt 0.386433 0.368755
vt 0.670028 0.368755
vt 0.451410 0.062500
vt 0.605051 0.062500
vt 0.386433 0.368755
vt 0.670028 0.368755
vt 0.451410 0.062500
vt 0.605051 0.062500
vt 0.386433 0.368755
vt 0.670028 0.368755
vt 0.670028 0.368755
vt 0.386433 0.368755
vt 0.605051 0.062500
vt 0.451410 0.062500
vt 0.779356 0.100239
vt 0.870465 0.062500
vt 0.961573 0.100239
vt 0.741617 0.191348
vt 0.999312 0.191348
vt 0.779356 0.282456
vt 0.961573 0.282456
vt 0.870465 0.320195
vt 0.870465 0.320195
vt 0.779356 0.282456
vt 0.741617 0.191348
vt 0.961573 0.282456
vt 0.779356 0.100239
vt 0.999312 0.191348
vt 0.870465 0.062500
vt 0.961573 0.100239
vt 0.342975 0.133537
vt 0.342975 0.165747
vt 0.244360 0.165747
vt 0.244360 0.133537
vt 0.244360 0.133537
vt 0.342975 0.133537
vt 0.244360 0.165747
vt 0.342975 0.165747
vt 0.342975 0.133537
vt 0.342975 0.165747
vt 0.244360 0.165747
vt 0.244360 0.133537
vt 0.244360 0.133537
vt 0.342975 0.133537
vt 0.244360 0.165747
vt 0.342975 0.165747
vt 0.244360 0.133537
vt 0.342975 0.133537
vt 0.244360 0.165747
vt 0.342975 0.165747
vt 0.342975 0.133537
vt 0.342975 0.165747
vt 0.244360 0.165747
vt 0.244360 0.133537
vt 0.244360 0.133537
vt 0.342975 0.133537
vt 0.244360 0.165747
vt 0.342975 0.165747
vt 0.244360 0.133537
vt 0.342975 0.133537
vt 0.244360 0.165747
vt 0.342975 0.165747
# 55 texture coordinates

vn 0.382683 0.923880 0.000000
vn -0.382683 0.923880 0.000000
vn -0.923880 0.382683 0.000000
vn -0.923880 -0.382683 0.000000
vn -0.382683 -0.923880 0.000000
vn 0.382683 -0.923880 0.000000
vn 0.923880 -0.382683 0.000000
vn 0.923879 0.382684 0.000000
vn 0.000000 0.000000 -1.000000
vn 0.000000 0.000000 1.000000
vn 0.000000 -1.000000 0.000000
vn 0.000000 1.000000 0.000000
vn 1.000000 0.000000 0.000000
vn -1.000000 0.000000 0.000000
vn 0.000000 -0.977234 -0.212167
vn 0.000000 0.977234 -0.212166
vn 0.977234 0.000000 -0.212166
vn -0.977234 0.000000 -0.212166
# 18 normals

g default
# 0 triangles in group

g pCylinder3
s 1
f 1/79/1 2/80/1 9/81/1
f 9/81/1 2/80/1 10/82/1
f 2/83/2 3/84/2 10/85/2
f 10/85/2 3/84/2 11/86/2
f 3/78/3 4/75/3 11/77/3
f 11/77/3 4/75/3 12/76/3
f 4/71/4 5/72/4 12/73/4
f 12/73/4 5/72/4 13/74/4
f 5/70/5 6/67/5 13/69/5
f 13/69/5 6/67/5 14/68/5
f 6/91/6 7/92/6 14/93/6
f 14/93/6 7/92/6 15/94/6
f 7/95/7 8/96/7 15/97/7
f 15/97/7 8/96/7 16/98/7
f 8/90/8 1/87/8 16/89/8
f 16/89/8 1/87/8 9/88/8
f 2/65/9 1/66/9 17/1/9
f 3/63/9 2/65/9 17/1/9
f 4/61/9 3/63/9 17/1/9
f 5/60/9 4/61/9 17/1/9
f 6/59/9 5/60/9 17/1/9
f 7/62/9 6/59/9 17/1/9
f 8/64/9 7/62/9 17/1/9
f 1/66/9 8/64/9 17/1/9
f 9/57/10 10/58/10 18/2/10
f 10/58/10 11/56/10 18/2/10
f 11/56/10 12/54/10 18/2/10
f 12/54/10 13/51/10 18/2/10
f 13/51/10 14/52/10 18/2/10
f 14/52/10 15/53/10 18/2/10
f 15/53/10 16/55/10 18/2/10
f 16/55/10 9/57/10 18/2/10
# 32 triangles in group

g pCube17
f 19/26/11 20/23/11 21/25/11
f 21/25/11 20/23/11 22/24/11
f 21/11/10 22/12/10 23/13/10
f 23/13/10 22/12/10 24/14/10
f 23/15/12 24/16/12 25/17/12
f 25/17/12 24/16/12 26/18/12
f 25/10/9 26/7/9 19/9/9
f 19/9/9 26/7/9 20/8/9
f 20/22/13 26/19/13 22/21/13
f 22/21/13 26/19/13 24/20/13
f 25/27/14 19/28/14 23/29/14
f 23/29/14 19/28/14 21/30/14
# 12 triangles in group

g pCube18
f 27/43/15 28/44/15 29/45/15
f 29/45/15 28/44/15 30/46/15
f 29/31/10 30/32/10 31/33/10
f 31/33/10 30/32/10 32/34/10
f 31/47/16 32/48/16 33/49/16
f 33/49/16 32/48/16 34/50/16
f 33/6/9 34/3/9 27/5/9
f 27/5/9 34/3/9 28/4/9
f 28/39/17 34/40/17 30/41/17
f 30/41/17 34/40/17 32/42/17
f 33/35/18 27/36/18 31/37/18
f 31/37/18 27/36/18 29/38/18
# 12 triangles in group

# 56 triangles total

