# Wavefront OBJ exported by MilkShape 3D
# UVs by headus UVLayout v2.08.00 2012/05/02 06:40:44

v 0.190446 0.222197 0.005043
v -0.021686 0.310065 0.005043
v -0.233818 0.222197 0.005043
v -0.321686 0.010064 0.005043
v -0.233818 -0.202068 0.005043
v -0.021686 -0.289935 0.005043
v 0.190446 -0.202068 0.005043
v 0.278314 0.010064 0.005043
v 0.180340 0.212090 0.442542
v -0.021686 0.295773 0.442542
v -0.223713 0.212090 0.442542
v -0.307395 0.010064 0.442542
v -0.223713 -0.191963 0.442542
v -0.021686 -0.275646 0.442542
v 0.180340 -0.191963 0.442542
v 0.264022 0.010064 0.442542
v 0.076852 0.108603 0.621505
v -0.021686 0.149419 0.621505
v -0.120225 0.108603 0.621505
v -0.161041 0.010064 0.621505
v -0.120225 -0.088475 0.621505
v -0.021686 -0.129291 0.621505
v 0.076852 -0.088475 0.621505
v 0.117668 0.010064 0.621505
v -0.021686 0.010064 0.005043
v -0.021686 0.010064 0.621505
v -0.201303 0.195498 0.168637
v -0.017577 0.195498 0.119408
v -0.186461 0.195498 0.224029
v -0.002735 0.195498 0.174799
v -0.154347 7.195498 0.215424
v 0.126933 7.195498 0.140055
v -0.169189 7.195498 0.160033
v 0.112090 7.195498 0.084664
v -0.290512 1.945428 0.251909
v -0.305354 1.945428 0.196518
v 0.248116 1.945428 0.048216
v 0.262958 1.945428 0.103607
v -0.003915 7.195498 0.223077
v -0.042738 7.195498 0.078189
v -0.044935 1.945428 0.078777
v -0.122866 0.195498 0.099659
v -0.084043 0.195498 0.244548
v -0.006112 1.945428 0.223666
v -0.223235 0.852271 0.233882
v -0.238077 0.852271 0.178491
v -0.043884 0.852271 0.078495
v 0.180838 0.852271 0.066243
v 0.195680 0.852271 0.121634
v -0.005061 0.852271 0.223384
v -0.211746 0.644232 0.230804
v -0.226588 0.644232 0.175413
v -0.108629 0.644232 0.095844
v 0.037438 0.644232 0.104667
v 0.052280 0.644232 0.160058
v -0.069806 0.644232 0.240733
v -0.109904 -0.220706 0.168637
v -0.201767 -0.061595 0.119408
v -0.117325 -0.207855 0.224029
v -0.209188 -0.048742 0.174799
v -6.195559 -3.680043 0.215424
v -6.336199 -3.436446 0.140055
v -6.188139 -3.692895 0.160033
v -6.328778 -3.449300 0.084664
v -1.580783 -1.172929 0.251909
v -1.573362 -1.185785 0.196518
v -1.850097 -0.706464 0.048216
v -1.857518 -0.693610 0.103607
v -6.270776 -3.549764 0.223077
v -6.251364 -3.583385 0.078189
v -1.703571 -0.960254 0.078777
v -0.149122 -0.152778 0.099659
v -0.168534 -0.119157 0.244548
v -1.722983 -0.926631 0.223666
v -0.667721 -0.568088 0.233882
v -0.660300 -0.580941 0.178491
v -0.757397 -0.412765 0.078495
v -0.869758 -0.218150 0.066243
v -0.877179 -0.205297 0.121634
v -0.776808 -0.379144 0.223384
v -0.493299 -0.454118 0.230804
v -0.485878 -0.466974 0.175413
v -0.544857 -0.364816 0.095844
v -0.617891 -0.238319 0.104667
v -0.625312 -0.225465 0.160058
v -0.564269 -0.331195 0.240733
v 0.188319 0.139355 0.168637
v 0.096456 -0.019754 0.119408
v 0.180898 0.126502 0.224029
v 0.089035 -0.032609 0.174799
v 6.227020 -3.401307 0.215424
v 6.086380 -3.644904 0.140055
v 6.234440 -3.388454 0.160033
v 6.093801 -3.632049 0.084664
v 1.748408 -0.658351 0.251909
v 1.755829 -0.645498 0.196518
v 1.479094 -1.124816 0.048216
v 1.471673 -1.137670 0.103607
v 6.151804 -3.531585 0.223077
v 6.171215 -3.497964 0.078189
v 1.625619 -0.871026 0.078777
v 0.149101 0.071429 0.099659
v 0.129690 0.037806 0.244548
v 1.606208 -0.904649 0.223666
v 0.768069 -0.170038 0.233882
v 0.775490 -0.157184 0.178491
v 0.678393 -0.325361 0.078495
v 0.566032 -0.519975 0.066243
v 0.558611 -0.532829 0.121634
v 0.658982 -0.358981 0.223384
v 0.582157 -0.075967 0.230804
v 0.589578 -0.063113 0.175413
v 0.530599 -0.165269 0.095844
v 0.457565 -0.291766 0.104667
v 0.450144 -0.304620 0.160058
v 0.511187 -0.198890 0.240733
# 116 vertices

# 184 texture coords
vt 0.736912 0.040728
vt 0.457938 0.039899
vt 0.743084 0.038203
vt 0.451631 0.038305
vt 0.745354 0.972116
vt 0.457784 0.978375
vt 0.740491 0.974333
vt 0.462537 0.976037
vt 0.741503 0.275673
vt 0.734858 0.276860
vt 0.468950 0.280997
vt 0.461838 0.281156
vt 0.741959 0.128554
vt 0.732801 0.129791
vt 0.464206 0.134997
vt 0.459298 0.134745
vt 0.741504 0.099097
vt 0.733671 0.100102
vt 0.465969 0.099837
vt 0.454192 0.100305
vt 0.736572 0.040807
vt 0.457323 0.039946
vt 0.742733 0.038255
vt 0.451009 0.038380
vt 0.748659 0.972156
vt 0.460920 0.978439
vt 0.743807 0.974390
vt 0.465669 0.976081
vt 0.742092 0.275731
vt 0.735450 0.276943
vt 0.469323 0.281019
vt 0.462234 0.281198
vt 0.741974 0.128613
vt 0.732816 0.129884
vt 0.463987 0.135031
vt 0.459076 0.134793
vt 0.741398 0.099157
vt 0.733571 0.100193
vt 0.465605 0.099853
vt 0.453827 0.100370
vt 0.737968 0.040671
vt 0.459880 0.039911
vt 0.744150 0.038172
vt 0.453572 0.038316
vt 0.742245 0.972091
vt 0.458972 0.978401
vt 0.737371 0.974285
vt 0.463734 0.976067
vt 0.741511 0.275633
vt 0.734863 0.276791
vt 0.470719 0.281029
vt 0.463622 0.281179
vt 0.742624 0.128520
vt 0.733458 0.129714
vt 0.466084 0.135023
vt 0.461174 0.134765
vt 0.742297 0.099062
vt 0.734463 0.100030
vt 0.467871 0.099858
vt 0.456096 0.100319
vt 0.195581 0.593350
vt 0.188163 0.563581
vt 0.217963 0.505540
vt 0.217176 0.563603
vt 0.209732 0.593356
vt 0.187500 0.505505
vt 0.202650 0.610434
vt 0.202778 0.468750
vt 0.195575 0.593348
vt 0.188159 0.563580
vt 0.217962 0.505541
vt 0.217172 0.563604
vt 0.209727 0.593356
vt 0.187500 0.505503
vt 0.202643 0.610433
vt 0.202782 0.468750
vt 0.195610 0.593353
vt 0.188180 0.563586
vt 0.217963 0.505536
vt 0.217193 0.563598
vt 0.209762 0.593354
vt 0.187500 0.505509
vt 0.202687 0.610434
vt 0.202768 0.468750
vt 0.217963 0.505540
vt 0.217179 0.563602
vt 0.188166 0.563582
vt 0.187500 0.505506
vt 0.195586 0.593350
vt 0.202777 0.468750
vt 0.209737 0.593355
vt 0.202658 0.610434
vt 0.217963 0.505539
vt 0.217180 0.563603
vt 0.188167 0.563582
vt 0.187500 0.505506
vt 0.195587 0.593350
vt 0.202776 0.468750
vt 0.209737 0.593356
vt 0.202657 0.610434
vt 0.209703 0.593358
vt 0.202615 0.610433
vt 0.195551 0.593346
vt 0.217159 0.563608
vt 0.188145 0.563576
vt 0.217963 0.505545
vt 0.187500 0.505500
vt 0.202789 0.468750
vt 0.195558 0.593348
vt 0.188147 0.563577
vt 0.217963 0.505545
vt 0.217161 0.563607
vt 0.209709 0.593358
vt 0.187500 0.505500
vt 0.202625 0.610435
vt 0.202792 0.468750
vt 0.195572 0.593348
vt 0.188160 0.563579
vt 0.217963 0.505541
vt 0.217173 0.563606
vt 0.209723 0.593358
vt 0.187500 0.505504
vt 0.202639 0.610434
vt 0.202782 0.468750
vt 0.507727 0.279546
vt 0.478987 0.985879
vt 0.490024 0.125154
vt 0.446833 0.985470
vt 0.422979 0.281410
vt 0.485734 0.092696
vt 0.432625 0.127139
vt 0.468428 0.031250
vt 0.433896 0.095080
vt 0.443441 0.031287
vt 0.729750 0.981613
vt 0.697702 0.278027
vt 0.761228 0.981928
vt 0.703689 0.128433
vt 0.714607 0.097983
vt 0.778754 0.275829
vt 0.771095 0.126873
vt 0.725642 0.034057
vt 0.760392 0.096848
vt 0.749741 0.031250
vt 0.726600 0.981518
vt 0.697702 0.277795
vt 0.758074 0.981972
vt 0.704352 0.128227
vt 0.715407 0.097824
vt 0.778758 0.275958
vt 0.771764 0.126970
vt 0.726730 0.033947
vt 0.761195 0.096898
vt 0.750839 0.031250
vt 0.509454 0.279603
vt 0.480174 0.985919
vt 0.491908 0.125196
vt 0.448009 0.985488
vt 0.424761 0.281405
vt 0.487639 0.092729
vt 0.434509 0.127138
vt 0.470374 0.031269
vt 0.435798 0.095079
vt 0.445387 0.031291
vt 0.733096 0.981714
vt 0.698300 0.278259
vt 0.764573 0.981905
vt 0.703699 0.128640
vt 0.779339 0.275743
vt 0.714497 0.098147
vt 0.771100 0.126820
vt 0.725282 0.034178
vt 0.760277 0.096836
vt 0.749367 0.031277
vt 0.508054 0.279410
vt 0.482164 0.985853
vt 0.449984 0.985574
vt 0.423374 0.281609
vt 0.489761 0.125078
vt 0.485337 0.092629
vt 0.432371 0.127295
vt 0.467773 0.031254
vt 0.433508 0.095229
vt 0.442791 0.031394
# 167 texture coordinates

vn 0.382509 0.923459 0.030166
vn 0.374273 0.903575 0.208501
vn 0.375672 0.906954 0.190540
vn -0.382509 0.923459 0.030166
vn -0.374273 0.903575 0.208501
vn -0.375672 0.906954 0.190540
vn -0.923459 0.382509 0.030166
vn -0.903575 0.374273 0.208501
vn -0.906954 0.375672 0.190540
vn -0.923459 -0.382509 0.030166
vn -0.903574 -0.374273 0.208502
vn -0.906954 -0.375672 0.190540
vn -0.382509 -0.923459 0.030166
vn -0.374273 -0.903575 0.208501
vn -0.375672 -0.906954 0.190540
vn 0.382509 -0.923459 0.030166
vn 0.374273 -0.903574 0.208502
vn 0.375672 -0.906954 0.190540
vn 0.923459 -0.382509 0.030166
vn 0.903575 -0.374273 0.208501
vn 0.906953 -0.375673 0.190540
vn 0.923459 0.382509 0.030166
vn 0.903575 0.374273 0.208501
vn 0.906953 0.375673 0.190540
vn 0.305333 0.737140 0.602823
vn -0.305333 0.737140 0.602823
vn -0.737140 0.305333 0.602824
vn -0.737140 -0.305333 0.602823
vn -0.305333 -0.737140 0.602823
vn 0.305333 -0.737140 0.602823
vn 0.737140 -0.305333 0.602823
vn 0.737140 0.305333 0.602823
vn -0.000000 0.000000 -1.000000
vn 0.000000 0.000000 1.000000
vn 0.000000 -1.000000 0.000000
vn 0.249964 0.000301 0.968255
vn 0.243821 -0.023442 0.969537
vn -0.165799 0.006393 0.986139
vn -0.069769 -0.018865 0.997385
vn -0.000001 1.000000 -0.000005
vn -0.559114 -0.018865 -0.828876
vn -0.273613 -0.023442 -0.961554
vn -0.636656 0.006393 -0.771122
vn -0.267652 0.000301 -0.963516
vn 0.958238 -0.125914 -0.256759
vn 0.921888 -0.298503 -0.247019
vn -0.964307 -0.057870 0.258385
vn -0.965579 0.026841 0.258721
vn -0.965865 0.011242 0.258803
vn -0.258738 0.000000 -0.965948
vn -0.258872 0.002002 -0.965910
vn -0.535467 0.000398 -0.844556
vn -0.411970 0.001872 -0.911196
vn 0.965865 0.011220 -0.258803
vn 0.965577 0.026814 -0.258731
vn 0.098821 0.001872 0.995103
vn 0.258766 0.002002 0.965938
vn -0.041450 0.000398 0.999141
vn 0.258900 -0.000000 0.965904
vn 0.032386 0.000152 -0.999475
vn -0.103723 0.001812 -0.994605
vn 0.154277 -0.020569 -0.987814
vn 0.030865 -0.080042 -0.996314
vn 0.627514 -0.020569 0.778333
vn 0.524887 -0.080042 0.847400
vn 0.527785 0.000152 0.849378
vn 0.407475 0.001812 0.913215
vn -0.964035 -0.062547 0.258312
vn -0.453831 0.003601 -0.891081
vn -0.252173 -0.007380 -0.967654
vn -0.063499 -0.015912 -0.997855
vn 0.952635 -0.165316 -0.255258
vn 0.265439 -0.007380 0.964100
vn 0.443936 -0.015912 0.895917
vn 0.052511 0.003601 0.998614
vn 0.866019 0.500012 0.000019
vn -0.125242 0.216325 0.968255
vn -0.101609 0.222877 0.969537
vn 0.077363 -0.146782 0.986139
vn 0.051221 -0.050989 0.997385
vn -0.866025 -0.500001 -0.000005
vn 0.295894 -0.474774 -0.828876
vn 0.157108 -0.225235 -0.961554
vn 0.312792 -0.554556 -0.771122
vn 0.133566 -0.231944 -0.963516
vn -0.370074 0.892816 -0.256759
vn -0.202432 0.947630 -0.247019
vn 0.532271 -0.806179 0.258385
vn 0.459544 -0.849637 0.258721
vn 0.473196 -0.842085 0.258803
vn 0.129369 -0.224074 -0.965948
vn 0.127702 -0.225190 -0.965910
vn 0.267389 -0.463927 -0.844556
vn 0.204364 -0.357712 -0.911196
vn -0.492649 0.830854 -0.258803
vn -0.506010 0.822808 -0.258731
vn -0.051032 0.084646 0.995103
vn -0.131116 0.223097 0.965938
vn 0.020380 -0.036096 0.999141
vn -0.129450 0.224214 0.965904
vn -0.016325 0.027971 -0.999475
vn 0.050292 -0.090733 -0.994605
vn -0.059325 0.143892 -0.987814
vn 0.053886 0.066751 -0.996314
vn -0.295944 0.553728 0.778333
vn -0.193125 0.494587 0.847400
vn -0.264024 0.456999 0.849378
vn -0.205307 0.351978 0.913215
vn 0.536184 -0.803605 0.258312
vn 0.223796 -0.394830 -0.891081
vn 0.132478 -0.214698 -0.967654
vn 0.045530 -0.047035 -0.997855
vn -0.333150 0.907664 -0.255258
vn -0.126328 0.233567 0.964100
vn -0.208187 0.392416 0.895917
vn -0.029375 0.043675 0.998614
vn -0.866020 0.500009 -0.000002
vn -0.124721 -0.216625 0.968255
vn -0.142212 -0.199434 0.969537
vn 0.088436 0.140390 0.986139
vn 0.018547 0.069854 0.997385
vn 0.866026 -0.499999 -0.000005
vn 0.263220 0.493639 -0.828876
vn 0.116505 0.248677 -0.961554
vn 0.323864 0.548164 -0.771122
vn 0.134087 0.231643 -0.963516
vn -0.588164 -0.766901 -0.256759
vn -0.719455 -0.649127 -0.247019
vn 0.432036 0.864050 0.258385
vn 0.506035 0.822795 0.258721
vn 0.492669 0.830842 0.258803
vn 0.129369 0.224074 -0.965948
vn 0.131169 0.223188 -0.965910
vn 0.268079 0.463529 -0.844556
vn 0.207606 0.355840 -0.911196
vn -0.473216 -0.842074 -0.258803
vn -0.459567 -0.849621 -0.258731
vn -0.047790 -0.086518 0.995103
vn -0.127649 -0.225098 0.965938
vn 0.021070 0.035697 0.999141
vn -0.129450 -0.224214 0.965904
vn -0.016061 -0.028123 -0.999475
vn 0.053431 0.088921 -0.994605
vn -0.094952 -0.123323 -0.987814
vn -0.084751 0.013291 -0.996314
vn -0.331570 -0.533159 0.778333
vn -0.331762 -0.414544 0.847400
vn -0.263761 -0.457151 0.849378
vn -0.202168 -0.353790 0.913215
vn 0.427850 0.866152 0.258312
vn 0.230034 0.391228 -0.891081
vn 0.119695 0.222078 -0.967654
vn 0.017969 0.062948 -0.997855
vn -0.619486 -0.742348 -0.255258
vn -0.139111 -0.226186 0.964100
vn -0.235748 -0.376504 0.895917
vn -0.023137 -0.047277 0.998614
# 157 normals

g default
# 0 triangles in group

g initialShadingGroup
s 1
f 1/88/1 2/85/1 9/87/2
f 9/87/2 2/85/1 10/86/3
f 2/96/4 3/93/4 10/95/5
f 10/95/5 3/93/4 11/94/6
f 3/107/7 4/106/7 11/105/8
f 11/105/8 4/106/7 12/104/9
f 4/122/10 5/119/10 12/118/11
f 12/118/11 5/119/10 13/120/12
f 5/114/13 6/111/13 13/110/14
f 13/110/14 6/111/13 14/112/15
f 6/66/16 7/63/16 14/62/17
f 14/62/17 7/63/16 15/64/18
f 7/74/19 8/71/19 15/70/20
f 15/70/20 8/71/19 16/72/21
f 8/82/22 1/79/22 16/78/23
f 16/78/23 1/79/22 9/80/24
f 9/87/2 10/86/3 17/89/25
f 17/89/25 10/86/3 18/91/25
f 10/95/5 11/94/6 18/97/26
f 18/97/26 11/94/6 19/99/26
f 11/105/8 12/104/9 19/103/27
f 19/103/27 12/104/9 20/101/27
f 12/118/11 13/120/12 20/117/28
f 20/117/28 13/120/12 21/121/28
f 13/110/14 14/112/15 21/109/29
f 21/109/29 14/112/15 22/113/29
f 14/62/17 15/64/18 22/61/30
f 22/61/30 15/64/18 23/65/30
f 15/70/20 16/72/21 23/69/31
f 23/69/31 16/72/21 24/73/31
f 16/78/23 9/80/24 24/77/32
f 24/77/32 9/80/24 17/81/32
f 2/85/33 1/88/33 25/90/33
f 3/93/33 2/96/33 25/98/33
f 4/106/33 3/107/33 25/108/33
f 5/119/33 4/122/33 25/124/33
f 6/111/33 5/114/33 25/116/33
f 7/63/33 6/66/33 25/68/33
f 8/71/33 7/74/33 25/76/33
f 1/79/33 8/82/33 25/84/33
f 17/89/34 18/91/34 26/92/34
f 18/97/34 19/99/34 26/100/34
f 19/103/34 20/101/34 26/102/34
f 20/117/34 21/121/34 26/123/34
f 21/109/34 22/113/34 26/115/34
f 22/61/34 23/65/34 26/67/34
f 23/69/34 24/73/34 26/75/34
f 24/77/34 17/81/34 26/83/34
f 27/1/35 42/142/35 29/3/35
f 29/3/35 42/142/35 43/144/35
f 43/144/36 56/143/37 29/3/38
f 29/3/38 56/143/37 51/17/39
f 31/5/40 39/137/40 33/7/40
f 33/7/40 39/137/40 40/135/40
f 52/18/41 53/139/42 27/1/43
f 27/1/43 53/139/42 42/142/44
f 28/2/45 54/19/46 30/4/45
f 30/4/45 54/19/46 55/20/46
f 52/18/47 27/1/47 51/17/47
f 51/17/47 27/1/47 29/3/47
f 33/7/48 36/10/49 31/5/48
f 31/5/48 36/10/49 35/9/49
f 40/135/50 41/136/51 33/7/52
f 33/7/52 41/136/51 36/10/53
f 38/12/54 37/11/54 32/6/55
f 32/6/55 37/11/54 34/8/55
f 35/9/56 44/140/57 31/5/58
f 31/5/58 44/140/57 39/137/59
f 39/128/40 32/6/40 40/126/40
f 40/126/40 32/6/40 34/8/40
f 40/126/50 34/8/60 41/125/51
f 41/125/51 34/8/60 37/11/61
f 42/132/44 53/130/42 28/2/62
f 28/2/62 53/130/42 54/19/63
f 43/134/35 42/132/35 30/4/35
f 30/4/35 42/132/35 28/2/35
f 43/134/36 30/4/64 56/133/37
f 56/133/37 30/4/64 55/20/65
f 39/128/59 44/129/57 32/6/66
f 32/6/66 44/129/57 38/12/67
f 36/10/49 46/14/68 35/9/49
f 35/9/49 46/14/68 45/13/68
f 36/10/53 41/136/51 46/14/69
f 46/14/69 41/136/51 47/138/70
f 47/127/70 41/125/51 48/15/71
f 48/15/71 41/125/51 37/11/61
f 49/16/72 48/15/72 38/12/54
f 38/12/54 48/15/72 37/11/54
f 50/131/73 49/16/74 44/129/57
f 44/129/57 49/16/74 38/12/67
f 50/141/73 44/140/57 45/13/75
f 45/13/75 44/140/57 35/9/56
f 46/14/68 52/18/47 45/13/68
f 45/13/68 52/18/47 51/17/47
f 47/138/70 53/139/42 46/14/69
f 46/14/69 53/139/42 52/18/41
f 53/130/42 47/127/70 54/19/63
f 54/19/63 47/127/70 48/15/71
f 55/20/46 54/19/46 49/16/72
f 49/16/72 54/19/46 48/15/72
f 56/133/37 55/20/65 50/131/73
f 50/131/73 55/20/65 49/16/74
f 51/17/39 56/143/37 45/13/75
f 45/13/75 56/143/37 50/141/73
f 57/21/76 72/172/76 59/23/76
f 59/23/76 72/172/76 73/174/76
f 73/174/77 86/173/78 59/23/79
f 59/23/79 86/173/78 81/37/80
f 61/25/81 69/167/81 63/27/81
f 63/27/81 69/167/81 70/165/81
f 82/38/82 83/170/83 57/21/84
f 57/21/84 83/170/83 72/172/85
f 58/22/86 84/39/87 60/24/86
f 60/24/86 84/39/87 85/40/87
f 82/38/88 57/21/88 81/37/88
f 81/37/88 57/21/88 59/23/88
f 63/27/89 66/30/90 61/25/89
f 61/25/89 66/30/90 65/29/90
f 70/165/91 71/166/92 63/27/93
f 63/27/93 71/166/92 66/30/94
f 68/32/95 67/31/95 62/26/96
f 62/26/96 67/31/95 64/28/96
f 65/29/97 74/169/98 61/25/99
f 61/25/99 74/169/98 69/167/100
f 69/177/81 62/26/81 70/176/81
f 70/176/81 62/26/81 64/28/81
f 70/176/91 64/28/101 71/175/92
f 71/175/92 64/28/101 67/31/102
f 72/182/85 83/180/83 58/22/103
f 58/22/103 83/180/83 84/39/104
f 73/184/76 72/182/76 60/24/76
f 60/24/76 72/182/76 58/22/76
f 73/184/77 60/24/105 86/183/78
f 86/183/78 60/24/105 85/40/106
f 69/177/100 74/178/98 62/26/107
f 62/26/107 74/178/98 68/32/108
f 66/30/90 76/34/109 65/29/90
f 65/29/90 76/34/109 75/33/109
f 66/30/94 71/166/92 76/34/110
f 76/34/110 71/166/92 77/168/111
f 77/179/111 71/175/92 78/35/112
f 78/35/112 71/175/92 67/31/102
f 79/36/113 78/35/113 68/32/95
f 68/32/95 78/35/113 67/31/95
f 80/181/114 79/36/115 74/178/98
f 74/178/98 79/36/115 68/32/108
f 80/171/114 74/169/98 75/33/116
f 75/33/116 74/169/98 65/29/97
f 76/34/109 82/38/88 75/33/109
f 75/33/109 82/38/88 81/37/88
f 77/168/111 83/170/83 76/34/110
f 76/34/110 83/170/83 82/38/82
f 83/180/83 77/179/111 84/39/104
f 84/39/104 77/179/111 78/35/112
f 85/40/87 84/39/87 79/36/113
f 79/36/113 84/39/87 78/35/113
f 86/183/78 85/40/106 80/181/114
f 80/181/114 85/40/106 79/36/115
f 81/37/80 86/173/78 75/33/116
f 75/33/116 86/173/78 80/171/114
f 87/41/117 102/152/117 89/43/117
f 89/43/117 102/152/117 103/154/117
f 103/154/118 116/153/119 89/43/120
f 89/43/120 116/153/119 111/57/121
f 91/45/122 99/147/122 93/47/122
f 93/47/122 99/147/122 100/145/122
f 112/58/123 113/149/124 87/41/125
f 87/41/125 113/149/124 102/152/126
f 88/42/127 114/59/128 90/44/127
f 90/44/127 114/59/128 115/60/128
f 112/58/129 87/41/129 111/57/129
f 111/57/129 87/41/129 89/43/129
f 93/47/130 96/50/131 91/45/130
f 91/45/130 96/50/131 95/49/131
f 100/145/132 101/146/133 93/47/134
f 93/47/134 101/146/133 96/50/135
f 98/52/136 97/51/136 92/46/137
f 92/46/137 97/51/136 94/48/137
f 95/49/138 104/150/139 91/45/140
f 91/45/140 104/150/139 99/147/141
f 99/158/122 92/46/122 100/156/122
f 100/156/122 92/46/122 94/48/122
f 100/156/132 94/48/142 101/155/133
f 101/155/133 94/48/142 97/51/143
f 102/162/126 113/160/124 88/42/144
f 88/42/144 113/160/124 114/59/145
f 103/164/117 102/162/117 90/44/117
f 90/44/117 102/162/117 88/42/117
f 103/164/118 90/44/146 116/163/119
f 116/163/119 90/44/146 115/60/147
f 99/158/141 104/159/139 92/46/148
f 92/46/148 104/159/139 98/52/149
f 96/50/131 106/54/150 95/49/131
f 95/49/131 106/54/150 105/53/150
f 96/50/135 101/146/133 106/54/151
f 106/54/151 101/146/133 107/148/152
f 107/157/152 101/155/133 108/55/153
f 108/55/153 101/155/133 97/51/143
f 109/56/154 108/55/154 98/52/136
f 98/52/136 108/55/154 97/51/136
f 110/161/155 109/56/156 104/159/139
f 104/159/139 109/56/156 98/52/149
f 110/151/155 104/150/139 105/53/157
f 105/53/157 104/150/139 95/49/138
f 106/54/150 112/58/129 105/53/150
f 105/53/150 112/58/129 111/57/129
f 107/148/152 113/149/124 106/54/151
f 106/54/151 113/149/124 112/58/123
f 113/160/124 107/157/152 114/59/145
f 114/59/145 107/157/152 108/55/153
f 115/60/128 114/59/128 109/56/154
f 109/56/154 114/59/128 108/55/154
f 116/163/119 115/60/147 110/161/155
f 110/161/155 115/60/147 109/56/156
f 111/57/121 116/153/119 105/53/157
f 105/53/157 116/153/119 110/151/155
# 216 triangles in group

# 216 triangles total

